<?xml version="1.0" encoding="utf-8"?>
<!-- Generator: Adobe Illustrator 24.0.3, SVG Export Plug-In . SVG Version: 6.00 Build 0)  -->
<svg version="1.1" id="圖層_1" xmlns="http://www.w3.org/2000/svg" xmlns:xlink="http://www.w3.org/1999/xlink" x="0px" y="0px"
	 viewBox="0 0 209.2 200" style="enable-background:new 0 0 209.2 200;" xml:space="preserve">
<style type="text/css">
	.st0{fill:#F9902D;}
	.st1{fill:#C91F08;}
	.st2{fill:#FFFFFF;}
	.st3{fill:#F9313A;}
	.st4{fill:#F8454F;}
	.st5{fill:#9C1613;}
	.st6{fill:#FFD64A;}
	.st7{fill:#E7530B;}
	.st8{fill:#9C0013;}
</style>
<path class="st0" d="M209.2,167.4l-6.5,6.5l-6.5,6.5c-4,0.9-8,1.5-12,2.2c-6.8,0.6-14.8,0.6-20.6-2.2l3.7-6.5l3.7-6.5l11.7-4.6
	l11.7-4.9l7.4,4.9L209.2,167.4L209.2,167.4z"/>
<path class="st1" d="M100.9,0l-8.3,6.2c-21.2,16.3-45.8,27.4-72,32.6H20l-10.2,44l-9.8,44l28,35.4l28,34.8h89.8l28-35.1l28-35.1
	l-10.2-43.7l-10.2-43.7c-27.4-5.2-53.2-17.2-75.4-34.5L100.9,0z"/>
<path class="st2" d="M100.9,10.5l-7.4,5.8C74.5,31.1,52.3,40.9,28.6,45.5H28l-8.9,39.4l-9.2,39.7l25.2,31.7l25.5,31.4h80.9
	l25.2-31.7l25.2-31.7l-9.2-39.4l-8.9-39.4c-24.6-4.6-48-15.4-67.7-31.1L100.9,10.5L100.9,10.5z"/>
<path class="st3" d="M185.2,123.1l-23.7,29.8l-3.7,4.6l-20,25.2H61.5l-8-10.5l-9.2-11.7l-6.2-7.7l-1.5-2.2l-9.2-11.7L18.5,128
	l-4.3-4.9l3.4-14.5l5.2-22.8l0.3-0.9l5.8-25.2l2.5-11.1H32c4.3-0.9,8.6-1.8,12.9-3.1c17.2-5.2,33.5-13.2,48-24.3l6.8-5.2l0.6,0.3
	l4.6,3.4c2.5,1.8,4.6,3.4,6.8,5.2c4.3,3.1,8.6,5.8,13.2,8.3c3.1,1.8,6.5,3.4,9.8,4.9c1.2,0.6,2.5,1.2,4,1.8c5.2,2.2,10.5,4,16,5.8
	c4.3,1.2,8.9,2.5,13.5,3.4l0.3,1.2l3.7,16.6l3.7,15.7l0.9,3.7l3.1,12.9l3.7,15.7L185.2,123.1L185.2,123.1z"/>
<path class="st4" d="M100.3,16.3L23.1,84.9l5.8-25.2l16-14.2c17.2-5.2,33.5-13.2,48-24.3l6.8-5.2C99.7,16,100.3,16.3,100.3,16.3z
	 M124.9,33.2L18.2,128l-4-4.9l3.4-14.5l94.2-83.7C116,28,120.3,30.8,124.9,33.2z M154.8,45.5L36.3,150.8l-9.2-11.7L138.8,40
	C144,42.2,149.2,44,154.8,45.5z M172.3,66.5L53.5,172.3l-9.2-11.7L168.6,49.8L172.3,66.5z M179.7,99.1l-93.8,83.4H63.4L176,82.5
	l0.6,3.4L179.7,99.1z M185.2,123.1l-23.7,29.5l-3.7,4.6v0.3l-28.3,24.9h-22.5l76.3-67.7L185.2,123.1z"/>
<path class="st5" d="M86.5,50.5l2.2,4.9l2.2,4.9c0.3,0,2.5-0.6,4.3-0.9c2.2-0.3,4-0.6,6.2-0.6c1.8,0,3.7,0.3,5.5,0.6
	c1.8,0.3,3.4,0.9,4,0.9l2.2-4.9l2.2-4.9v-0.6c0,0-0.3-0.3-0.6-0.3l-3.4,0.9l-3.4,1.5c-0.3,0-0.3,0-0.6-0.3l-3.1-4.3l-3.1-4.3l-3.1,4
	l-3.1,4.3l-0.3,0.3h-0.3l-3.4-0.9l-3.4-0.9c-0.3,0-0.3,0-0.6,0.3C86.5,50.2,86.5,50.5,86.5,50.5L86.5,50.5z M101.5,37.8
	c0,0.3,0,0.3-0.3,0.6c-0.3,0.3-0.3,0.3-0.6,0.3s-0.3,0-0.6-0.3c-0.3-0.3-0.3-0.3-0.3-0.6s0-0.6,0.3-0.6c0.3-0.3,0.3-0.3,0.6-0.3
	s0.6,0,0.6,0.3C101.5,37.5,101.5,37.8,101.5,37.8z M116,45.2c0,0.3,0,0.6-0.3,0.6c-0.3,0.3-0.9,0.3-1.2,0c-0.3-0.3-0.3-0.3-0.3-0.6
	s0-0.3,0.3-0.6c0.3-0.3,0.9-0.3,1.2,0C115.7,44.6,116,44.9,116,45.2z M87.1,45.5c0,0.3,0,0.3-0.3,0.6h-0.6c-0.3,0-0.3,0-0.6-0.3
	c-0.3-0.3-0.3-0.3-0.3-0.6s0-0.6,0.3-0.6c0.3-0.3,0.3-0.3,0.6-0.3s0.6,0,0.6,0.3C87.1,44.9,87.1,45.2,87.1,45.5z"/>
<path class="st6" d="M86.5,48.6l2.2,4.9l2.2,4.9c0.3,0,2.2-0.6,4.3-0.9c1.8-0.3,4-0.6,5.8-0.6c1.8,0,3.7,0.3,5.5,0.6
	c1.8,0.3,3.4,0.9,3.7,0.9l2.2-4.9l2.2-4.9V48c0-0.3-0.3-0.3-0.6-0.3l-3.1,1.2l-3.1,0.9h-0.3c0,0-0.3,0-0.3-0.3l-3.1-4.3l-3.1-4.3
	l-3.4,4.3l-3.1,4.3c0,0,0,0.3-0.3,0.3h-0.3l-3.4-0.9L87.1,48c-0.3,0-0.3,0-0.6,0.3L86.5,48.6L86.5,48.6z M101.5,36.9
	c0,0.3,0,0.3-0.3,0.6c-0.3,0.3-0.3,0.3-0.6,0.3c-0.6,0-0.9-0.3-0.9-0.9c0-0.6,0.3-0.9,0.9-0.9c0.3,0,0.6,0,0.6,0.3
	C101.5,36.6,101.5,36.9,101.5,36.9z M115.7,44.3c0,0.3,0,0.3-0.3,0.6c-0.3,0.3-0.3,0.3-0.6,0.3c-0.3,0-0.6,0-0.6-0.3
	c-0.3-0.3-0.3-0.3-0.3-0.6s0-0.6,0.3-0.6c0.3,0,0.3-0.3,0.6-0.3c0.3,0,0.3,0,0.6,0.3C115.7,43.7,115.7,44,115.7,44.3z M87.1,44.3
	c0,0.3,0,0.3-0.3,0.6c-0.3,0.3-0.3,0.3-0.6,0.3s-0.6,0-0.6-0.3c-0.3-0.3-0.3-0.3-0.3-0.6s0-0.6,0.3-0.6c0.3,0,0.3-0.3,0.6-0.3
	s0.3,0,0.6,0.3C87.1,43.7,87.1,44,87.1,44.3z"/>
<path class="st0" d="M17.5,152.3c0,0,5.5,1.2,12.6,1.8c7.4,0.9,15.1,0.6,22.5-0.9c0,0,5.5-0.9,13.2-2.5c9.5-1.8,18.8-4.6,27.7-7.7
	l11.1-2.8c5.5-1.5,11.4-2.5,16.9-2.8c4.3-0.3,8.6,0.3,12.9,1.2c5.2,1.2,38.5,11.7,47.7,17.2c0,0-7.4,9.5-12.3,15.4
	c-3.1,4-8,9.5-10.8,13.8c0,0-21.5-10.2-24.9-11.7c-4.3-1.8-9.2-2.5-13.8-2.5c-6.2,0-17.8,3.7-29.2,7.7c-11.4,4-22.2,8-26.2,8.9
	c-5.8,1.2-12,2.5-18.2,3.1c-9.8,1.2-21.2,1.5-27.4-1.5l-7.1-8.6l-7.4-9.5l6.2-9.5L17.5,152.3L17.5,152.3z"/>
<path class="st7" d="M34.2,193.8c-4.9,0.3-10.2-0.6-14.8-2.5h-0.3l-15.4-20l13.5-20l0.6,0.3c0,0,5.5,1.2,12.6,1.8
	c7.4,0.9,14.8,0.6,22.2-0.9c0.3,0,5.5-0.9,13.5-2.5c9.5-1.8,18.8-4.6,27.7-7.7c0,0,5.2-1.5,11.1-2.8c5.5-1.5,11.4-2.5,17.2-2.8h0.9
	c4,0,8,0.3,12,1.2c5.5,1.5,38.8,12,48,17.5l1.2,0.6l-0.9,0.9l-12.3,15.4c-1.2,1.5-2.8,3.7-4.3,5.5c-2.5,2.8-4.9,5.8-6.5,8.6
	l-0.6,0.9l-0.9-0.3c-0.3,0-21.5-10.2-24.6-11.7c-4.3-1.5-8.9-2.5-13.5-2.5c-6.2,0-19.4,4.3-28.9,7.7l-10.2,3.7
	c-7.4,2.5-13.2,4.6-16,5.2c-5.8,1.2-12,2.5-18.2,3.1C43.1,193.5,38.5,193.8,34.2,193.8z M20.6,189.2c4.9,2.5,14.2,2.8,26.5,1.2
	c6.2-0.6,12-1.8,17.8-3.1c2.8-0.6,8.6-2.8,15.7-5.2l10.2-3.7c10.5-3.7,23.1-7.7,29.5-7.7c4.9,0,9.8,0.6,14.5,2.5
	c2.8,1.2,19.7,9.2,24,11.1c1.8-2.5,4-5.2,6.2-7.7c1.5-1.8,3.1-3.7,4.3-5.5l11.7-14.5c-10.5-5.5-40.9-15.4-46.2-16.6
	c-3.7-0.9-7.7-1.2-11.4-1.2h-1.2c-5.5,0.3-11.4,1.2-16.6,2.8c-5.8,1.2-10.8,2.8-10.8,2.8c-8.9,3.1-18.2,5.8-27.7,7.7
	c-7.7,1.5-13.2,2.5-13.5,2.5c-7.4,1.5-15.1,1.8-22.8,0.9c-5.8-0.6-10.5-1.5-12.3-1.8l-12,17.5L20.6,189.2z"/>
<g>
	<path class="st8" d="M62.6,135H50.8V90.3c-4.3,4.1-9.5,7.1-15.3,9V88.5c3.1-1,6.5-2.9,10.1-5.8c3.6-2.8,6.1-6.1,7.5-9.9h9.6V135z"
		/>
	<path class="st8" d="M97.5,72.8c6,0,10.7,2.1,14.1,6.4c4,5.1,6,13.5,6,25.2c0,11.7-2,20.1-6.1,25.3c-3.4,4.2-8,6.3-14,6.3
		c-6,0-10.9-2.3-14.6-7c-3.7-4.6-5.5-12.9-5.5-24.8c0-11.7,2-20.1,6.1-25.2C86.8,74.9,91.5,72.8,97.5,72.8z M97.5,82.7
		c-1.4,0-2.7,0.5-3.8,1.4c-1.1,0.9-2,2.6-2.6,4.9c-0.8,3.1-1.2,8.2-1.2,15.5c0,7.3,0.4,12.3,1.1,15c0.7,2.7,1.7,4.5,2.8,5.4
		c1.1,0.9,2.4,1.4,3.8,1.4c1.4,0,2.7-0.5,3.8-1.4c1.1-0.9,2-2.6,2.6-4.9c0.8-3,1.2-8.2,1.2-15.5c0-7.3-0.4-12.3-1.1-15
		c-0.7-2.7-1.7-4.5-2.8-5.5C100.2,83.1,98.9,82.7,97.5,82.7z"/>
	<path class="st8" d="M145.6,72.8c6,0,10.7,2.1,14.1,6.4c4,5.1,6,13.5,6,25.2c0,11.7-2,20.1-6.1,25.3c-3.4,4.2-8,6.3-14,6.3
		c-6,0-10.9-2.3-14.6-7c-3.7-4.6-5.5-12.9-5.5-24.8c0-11.7,2-20.1,6.1-25.2C135,74.9,139.6,72.8,145.6,72.8z M145.6,82.7
		c-1.4,0-2.7,0.5-3.8,1.4c-1.1,0.9-2,2.6-2.6,4.9c-0.8,3.1-1.2,8.2-1.2,15.5c0,7.3,0.4,12.3,1.1,15c0.7,2.7,1.7,4.5,2.8,5.4
		c1.1,0.9,2.4,1.4,3.8,1.4c1.4,0,2.7-0.5,3.8-1.4c1.1-0.9,2-2.6,2.6-4.9c0.8-3,1.2-8.2,1.2-15.5c0-7.3-0.4-12.3-1.1-15
		c-0.7-2.7-1.7-4.5-2.8-5.5C148.4,83.1,147.1,82.7,145.6,82.7z"/>
</g>
<g>
	<path class="st2" d="M62.6,131.7H50.8V86.9c-4.3,4.1-9.5,7.1-15.3,9V85.1c3.1-1,6.5-2.9,10.1-5.8c3.6-2.8,6.1-6.1,7.5-9.9h9.6
		V131.7z"/>
	<path class="st2" d="M97.5,69.5c6,0,10.7,2.1,14.1,6.4c4,5.1,6,13.5,6,25.2c0,11.7-2,20.1-6.1,25.3c-3.4,4.2-8,6.3-14,6.3
		c-6,0-10.9-2.3-14.6-7c-3.7-4.6-5.5-12.9-5.5-24.8c0-11.7,2-20.1,6.1-25.2C86.8,71.6,91.5,69.5,97.5,69.5z M97.5,79.3
		c-1.4,0-2.7,0.5-3.8,1.4c-1.1,0.9-2,2.6-2.6,4.9c-0.8,3.1-1.2,8.2-1.2,15.5c0,7.3,0.4,12.3,1.1,15c0.7,2.7,1.7,4.5,2.8,5.4
		c1.1,0.9,2.4,1.4,3.8,1.4c1.4,0,2.7-0.5,3.8-1.4c1.1-0.9,2-2.6,2.6-4.9c0.8-3,1.2-8.2,1.2-15.5c0-7.3-0.4-12.3-1.1-15
		c-0.7-2.7-1.7-4.5-2.8-5.5C100.2,79.8,98.9,79.3,97.5,79.3z"/>
	<path class="st2" d="M145.6,69.5c6,0,10.7,2.1,14.1,6.4c4,5.1,6,13.5,6,25.2c0,11.7-2,20.1-6.1,25.3c-3.4,4.2-8,6.3-14,6.3
		c-6,0-10.9-2.3-14.6-7c-3.7-4.6-5.5-12.9-5.5-24.8c0-11.7,2-20.1,6.1-25.2C135,71.6,139.6,69.5,145.6,69.5z M145.6,79.3
		c-1.4,0-2.7,0.5-3.8,1.4c-1.1,0.9-2,2.6-2.6,4.9c-0.8,3.1-1.2,8.2-1.2,15.5c0,7.3,0.4,12.3,1.1,15c0.7,2.7,1.7,4.5,2.8,5.4
		c1.1,0.9,2.4,1.4,3.8,1.4c1.4,0,2.7-0.5,3.8-1.4c1.1-0.9,2-2.6,2.6-4.9c0.8-3,1.2-8.2,1.2-15.5c0-7.3-0.4-12.3-1.1-15
		c-0.7-2.7-1.7-4.5-2.8-5.5C148.4,79.8,147.1,79.3,145.6,79.3z"/>
</g>
</svg>
