<?xml version="1.0" encoding="utf-8"?>
<!-- Generator: Adobe Illustrator 22.1.0, SVG Export Plug-In . SVG Version: 6.00 Build 0)  -->
<svg version="1.1" id="圖層_1" xmlns="http://www.w3.org/2000/svg" xmlns:xlink="http://www.w3.org/1999/xlink" x="0px" y="0px"
	 viewBox="0 0 32.6 32.6" style="enable-background:new 0 0 32.6 32.6;" xml:space="preserve">
<style type="text/css">
	.st0{fill:#FFFFFF;}
</style>
<path class="st0" d="M29.6,13.3H19.3V3c0-1.7-1.3-3-3-3c-1.7,0-3,1.3-3,3v10.3H3c-1.7,0-3,1.3-3,3c0,1.7,1.3,3,3,3h10.3v10.3
	c0,1.7,1.3,3,3,3c1.7,0,3-1.3,3-3V19.3h10.3c1.7,0,3-1.3,3-3C32.6,14.7,31.3,13.3,29.6,13.3z"/>
</svg>
