<?xml version="1.0" encoding="utf-8"?>
<!-- Generator: Adobe Illustrator 24.1.0, SVG Export Plug-In . SVG Version: 6.00 Build 0)  -->
<svg version="1.1" id="圖層_1" xmlns="http://www.w3.org/2000/svg" xmlns:xlink="http://www.w3.org/1999/xlink" x="0px" y="0px"
	 viewBox="0 0 200 200" style="enable-background:new 0 0 200 200;" xml:space="preserve">
<style type="text/css">
	.st0{fill:#FFFFFF;}
</style>
<path class="st0" d="M18.8,105.9h147.5l-45,46.2c-2.5,2.5-2.5,6.2,0,8.8c2.5,2.5,6.2,2.5,8.8,0l55.6-56.9c0,0,0-0.6,0.6-0.6
	c0.6-0.6,0.6-0.6,0.6-1.3c0-0.6,0.6-1.2,0.6-1.9c0,0,0,0,0-0.6l0,0c0-0.6,0-1.9-0.6-2.5s-0.6-1.3-1.3-1.9l-56.2-56.2
	c-1.2-1.3-3.1-1.9-4.4-1.9c-1.2,0-3.1,0.6-4.4,1.9c-2.5,2.5-2.5,6.2,0,8.7l45.6,45.6l-147.5,0c-3.8,0-6.2,2.5-6.2,6.2
	S15.6,105.9,18.8,105.9z"/>
</svg>
