<?xml version="1.0" encoding="utf-8"?>
<!-- Generator: Adobe Illustrator 23.0.5, SVG Export Plug-In . SVG Version: 6.00 Build 0)  -->
<svg version="1.1" id="圖層_1" xmlns="http://www.w3.org/2000/svg" xmlns:xlink="http://www.w3.org/1999/xlink" x="0px" y="0px"
	 viewBox="0 0 1923 1036" style="enable-background:new 0 0 1923 1036;" xml:space="preserve">
<style type="text/css">
	.st0{fill:url(#SVGID_1_);filter:url(#Adobe_OpacityMaskFilter);stroke:#7131FF;}
	.st1{mask:url(#mask0_1_);}
	.st2{opacity:0.5;fill:url(#SVGID_2_);stroke:#D6D6D6;}
	.st3{opacity:0.5;}
	.st4{fill:#CDCDCD;}
	.st5{opacity:0.5;fill:#DCDCDC;enable-background:new    ;}
	.st6{opacity:0.5;fill:#CDCDCD;enable-background:new    ;}
	.st7{opacity:0.4;}
	.st8{fill:#DCDCDC;}
</style>
<defs>
	<filter id="Adobe_OpacityMaskFilter" filterUnits="userSpaceOnUse" x="-171" y="-1.5" width="2129" height="1076.2">
		<feColorMatrix  type="matrix" values="1 0 0 0 0  0 1 0 0 0  0 0 1 0 0  0 0 0 1 0"/>
	</filter>
</defs>
<mask maskUnits="userSpaceOnUse" x="-171" y="-1.5" width="2129" height="1076.2" id="mask0_1_">
	
		<linearGradient id="SVGID_1_" gradientUnits="userSpaceOnUse" x1="1932.927" y1="1007.2547" x2="-46.4567" y2="163.539" gradientTransform="matrix(1 0 0 -1 0 1033.8898)">
		<stop  offset="0" style="stop-color:#7131FF"/>
		<stop  offset="1" style="stop-color:#AF64FF"/>
	</linearGradient>
	<path class="st0" d="M1922,1H1v879.4c532,206.1,1332,206.1,1921,0V1z"/>
</mask>
<g class="st1">
	
		<linearGradient id="SVGID_2_" gradientUnits="userSpaceOnUse" x1="1940.1414" y1="1006.2984" x2="-56.9989" y2="158.2086" gradientTransform="matrix(1 0 0 -1 0 1033.8898)">
		<stop  offset="0" style="stop-color:#CDCDCD"/>
		<stop  offset="1" style="stop-color:#DCDCDC"/>
	</linearGradient>
	<path class="st2" d="M1928-1H-8v889.6c536.2,208.5,1342.4,208.5,1936,0V-1z"/>
	<g class="st3">
		<path class="st4" d="M162.9,687.9c0.1,0.1,0.1,0.3,0.2,0.4c44.5,81.6,26,180.6-39.3,241.1c-20.1,18.6-29.5,48.3-16.4,72.3
			l39.8,72.9c160.9-87.9,220.1-289.4,132.4-450c-0.1-0.1-0.1-0.3-0.2-0.4L162.9,687.9z"/>
		<path class="st4" d="M162.9,687.9c-0.1-0.1-0.1-0.3-0.2-0.4c-44.5-81.6-138-119.5-224.1-97.3c-26.5,6.8-56.6-1.3-69.7-25.3
			l-39.8-72.9c160.9-87.9,362.4-28.9,450.2,131.8c0.1,0.1,0.1,0.3,0.2,0.4L162.9,687.9z"/>
	</g>
	<circle class="st5" cx="1849" cy="627" r="109"/>
	<circle class="st6" cx="540" cy="223" r="127"/>
	<circle class="st6" cx="843" cy="766" r="78"/>
	<g class="st7">
		<path class="st8" d="M1291.1,208.8c0-0.1,0.1-0.2,0.1-0.2c18.7-50.7,69.2-80.5,120.6-75.1c15.8,1.7,32.4-5.6,37.9-20.5l16.7-45.3
			c-100-36.8-210.9,14.3-247.7,114.3c0,0.1-0.1,0.2-0.1,0.2L1291.1,208.8z"/>
		<path class="st8" d="M1291.1,208.8c0,0.1-0.1,0.2-0.1,0.2c-18.7,50.7,0.5,106.1,43.2,135.3c13.1,9,21.1,25.3,15.6,40.2l-16.7,45.3
			c-100-36.8-151.3-147.6-114.6-247.5c0-0.1,0.1-0.2,0.1-0.2L1291.1,208.8z"/>
	</g>
</g>
</svg>
