<svg xmlns="http://www.w3.org/2000/svg" width="8.919" height="23.794" viewBox="0 0 8.919 23.794">
  <path id="Path_9" data-name="Path 9" d="M43.819,74.355V85.7a.885.885,0,0,1-.882.882H35.882A.885.885,0,0,1,35,85.7V74.355a4.427,4.427,0,0,1,2.646-4.04V63.772a.884.884,0,0,1,.882-.882h1.764a.884.884,0,0,1,.882.882v6.546a4.42,4.42,0,0,1,2.646,4.038Zm-5.292-5.724h1.764V63.775l0,0H38.528l0,0ZM42.937,85.7V83.056c.049-1.8.008-3.2,0-7.805v-.9a3.54,3.54,0,0,0-2.119-3.233.882.882,0,0,1-.526-.808v-.8H38.528v.8a.882.882,0,0,1-.526.808,3.54,3.54,0,0,0-2.119,3.233V85.7l0,0,7.053,0Zm0-9.564h0v0Z" transform="translate(-34.95 -62.84)" fill="#333" stroke="#333" stroke-width="0.1"/>
</svg>
