<svg xmlns="http://www.w3.org/2000/svg" width="44.763" height="47.067" viewBox="0 0 44.763 47.067">
  <g id="Group_1771" data-name="Group 1771" transform="translate(-851.209 -342.372)">
    <path id="Path_11958" data-name="Path 11958" d="M894.754,364.438,873.922,343.6a4.2,4.2,0,0,0-5.943,0L856.57,355.01a4.267,4.267,0,0,0,0,6l1.891,1.943h4.362l-4.071-4.124a1.166,1.166,0,0,1-.328-.818,1.138,1.138,0,0,1,.328-.8l1.506-1.459,7.159,7.205h6.867L863.691,352.3l6.468-6.493a1.132,1.132,0,0,1,.791-.339,1.1,1.1,0,0,1,.791.32l20.834,20.831a1.11,1.11,0,0,1,.329.79,1.179,1.179,0,0,1-.36.791l-1.181,1.153v4.361l3.364-3.333A4.205,4.205,0,0,0,894.754,364.438Z" fill="#90004c"/>
    <path id="Path_11959" data-name="Path 11959" d="M851.209,385.224a4.3,4.3,0,0,0,4.306,4.215H884.98a4.17,4.17,0,0,0,4.151-4.215v-.247H851.209Z" fill="#90004c"/>
    <path id="Path_11960" data-name="Path 11960" d="M889.13,369.093a4.149,4.149,0,0,0-4.15-4.191H855.515a4.282,4.282,0,0,0-4.306,4.191v11.144H889.13Zm-27.952,4.227a1.551,1.551,0,0,1-1.551,1.551h-2.864a1.551,1.551,0,0,1-1.551-1.551v-2.864a1.551,1.551,0,0,1,1.551-1.551h2.864a1.55,1.55,0,0,1,1.551,1.551Z" fill="#90004c"/>
  </g>
</svg>
