<svg xmlns="http://www.w3.org/2000/svg" width="49.936" height="47.066" viewBox="0 0 49.936 47.066">
  <g id="Group_1775" data-name="Group 1775" transform="translate(-687.189 -336.503)">
    <path id="Path_11969" data-name="Path 11969" d="M717.077,372.567H691.093a3.9,3.9,0,0,0-3.9,3.9v7.1H720.98v-7.1A3.9,3.9,0,0,0,717.077,372.567Z" fill="#90004c" opacity="0.9"/>
    <path id="Path_11970" data-name="Path 11970" d="M736.333,375.226l-18.575-18.575,5.183-5.173a2.175,2.175,0,0,0,2.977-3.17l-11.174-11.164a2.17,2.17,0,0,0-3.069,3.069l-.091-.092L697.4,354.3l.092.1a2.17,2.17,0,0,0-3.069,3.069l11.164,11.174a2.176,2.176,0,1,0,3.078-3.078l.092.091,5.183-5.173L732.5,379.048a2.706,2.706,0,0,0,3.832-3.822Z" fill="#90004c" opacity="0.9"/>
  </g>
</svg>
