<svg xmlns="http://www.w3.org/2000/svg" width="47.287" height="47.066" viewBox="0 0 47.287 47.066">
  <g id="Group_1774" data-name="Group 1774" transform="translate(-767.044 -336.23)">
    <path id="Path_11966" data-name="Path 11966" d="M814.326,338.4a2.171,2.171,0,0,0-4.341,0v-.13l-20.057-.007-.007.137a2.17,2.17,0,1,0-4.34,0l-.007,15.8a2.177,2.177,0,1,0,4.353,0v.13l7.322.007v26.255a2.706,2.706,0,1,0,5.412.006V354.326l7.322.007a2.176,2.176,0,0,0,4.347-.137Z" fill="#90004c" opacity="0.9"/>
    <path id="Path_11967" data-name="Path 11967" d="M780.835,358.341a12.267,12.267,0,0,0-10.77,6.3l-3.021-3.021v8.538h8.537l-3.677-3.678a9.9,9.9,0,1,1-.394,7.618h-2.758a12.5,12.5,0,1,0,12.083-15.762Z" fill="#90004c" opacity="0.9"/>
    <path id="Path_11968" data-name="Path 11968" d="M779.091,365.524v6.291l6.371,3.927,1.212-1.969-5.31-3.321v-4.928Z" fill="#90004c" opacity="0.9"/>
  </g>
</svg>
