<?xml version="1.0" encoding="utf-8"?>
<!-- Generator: Adobe Illustrator 23.0.3, SVG Export Plug-In . SVG Version: 6.00 Build 0)  -->
<svg version="1.1" id="圖層_1" xmlns="http://www.w3.org/2000/svg" xmlns:xlink="http://www.w3.org/1999/xlink" x="0px" y="0px"
	 viewBox="0 0 28 22.9" style="enable-background:new 0 0 28 22.9;" xml:space="preserve">
<style type="text/css">
	.st0{fill:#90004C;}
</style>
<path class="st0" d="M27.9,6.5c0-1.5-1.3-2.8-2.8-2.8h-3l-0.1,0c-0.3,0-0.5-0.2-0.6-0.4l-1.1-2.1C20,0.5,19.2,0,18.3,0l-8.1,0
	c-0.9,0-1.6,0.5-2,1.3l-1,2C7.1,3.6,6.8,3.7,6.6,3.7H2.8c0,0,0,0,0,0C2,3.7,1.3,4,0.8,4.5C0.3,5.1,0,5.8,0,6.5l0,13.6
	c0,1.5,1.3,2.8,2.8,2.8l22.3,0c0,0,0,0,0,0c0.7,0,1.4-0.3,2-0.8c0.5-0.5,0.8-1.2,0.8-2L27.9,6.5z M14.3,18.8c-3,0-5.5-2.5-5.5-5.5
	s2.5-5.5,5.5-5.5s5.5,2.5,5.5,5.5S17.3,18.8,14.3,18.8z"/>
</svg>
