<?xml version="1.0" encoding="utf-8"?>
<!-- Generator: Adobe Illustrator 22.1.0, SVG Export Plug-In . SVG Version: 6.00 Build 0)  -->
<svg version="1.1" id="圖層_1" xmlns="http://www.w3.org/2000/svg" xmlns:xlink="http://www.w3.org/1999/xlink" x="0px" y="0px"
	 viewBox="0 0 15.3 15.3" style="enable-background:new 0 0 15.3 15.3;" xml:space="preserve">
<style type="text/css">
	.st0{fill:#90004C;}
</style>
<path class="st0" d="M14.6,13.2L9.1,7.7l5.5-5.5c0.4-0.4,0.4-1,0-1.4s-1-0.4-1.4,0L7.7,6.3L2.1,0.7c-0.4-0.4-1-0.4-1.4,0
	s-0.4,1,0,1.4l5.5,5.5l-5.5,5.5c-0.4,0.4-0.4,1,0,1.4c0.2,0.2,0.5,0.3,0.7,0.3s0.5-0.1,0.7-0.3l5.5-5.5l5.5,5.5
	c0.2,0.2,0.5,0.3,0.7,0.3s0.5-0.1,0.7-0.3C15,14.2,15,13.6,14.6,13.2z"/>
</svg>
