<?xml version="1.0" encoding="utf-8"?>
<!-- Generator: Adobe Illustrator 23.0.3, SVG Export Plug-In . SVG Version: 6.00 Build 0)  -->
<svg version="1.1" id="圖層_1" xmlns="http://www.w3.org/2000/svg" xmlns:xlink="http://www.w3.org/1999/xlink" x="0px" y="0px"
	 viewBox="0 0 15.3 15.3" style="enable-background:new 0 0 15.3 15.3;" xml:space="preserve">
<style type="text/css">
	.st0{fill:#FFFFFF;}
</style>
<g>
	<path class="st0" d="M1.4,14.9c-0.3,0-0.5-0.1-0.7-0.3c-0.4-0.4-0.4-1,0-1.4L13.2,0.7c0.4-0.4,1-0.4,1.4,0s0.4,1,0,1.4L2.1,14.6
		C1.9,14.8,1.7,14.9,1.4,14.9z"/>
	<path class="st0" d="M13.9,14.9c-0.3,0-0.5-0.1-0.7-0.3L0.7,2.1c-0.4-0.4-0.4-1,0-1.4s1-0.4,1.4,0l12.5,12.5c0.4,0.4,0.4,1,0,1.4
		C14.4,14.8,14.2,14.9,13.9,14.9z"/>
</g>
</svg>
