<svg xmlns="http://www.w3.org/2000/svg" viewBox="0 0 20 22"><defs><style>.cls-1{fill:#333;}</style></defs><title>commission-v2</title><g id="圖層_2" data-name="圖層 2"><g id="圖層_1-2" data-name="圖層 1"><path class="cls-1" d="M16,8a4,4,0,0,0-4,4v1.75l-2,1.77L8,13.75V12a4,4,0,0,0-8,0v9A1,1,0,0,0,1.05,22H7A1,1,0,0,0,8,21V15.09l1.67,1.47a.48.48,0,0,0,.66,0L12,15.09V21A1,1,0,0,0,13.05,22H19A1,1,0,0,0,20,21V12A4,4,0,0,0,16,8ZM7,21,1,21V12a3,3,0,0,1,6,0Zm12,0L13,21V12a3,3,0,0,1,6,0Z"/><path class="cls-1" d="M4,7A3.5,3.5,0,1,0,.5,3.5,3.5,3.5,0,0,0,4,7ZM4,1A2.5,2.5,0,1,1,1.5,3.5,2.5,2.5,0,0,1,4,1Z"/><path class="cls-1" d="M16,7a3.5,3.5,0,1,0-3.5-3.5A3.5,3.5,0,0,0,16,7Zm0-6a2.5,2.5,0,1,1-2.5,2.5A2.5,2.5,0,0,1,16,1Z"/></g></g></svg>