<svg xmlns="http://www.w3.org/2000/svg" viewBox="0 0 23.7 13.76"><defs><style>.cls-1{fill:#ffc350;}.cls-2{fill:#ffd164;}.cls-3{fill:#fff;}.cls-4{fill:#fff6d8;}</style></defs><title>coupon</title><g id="圖層_2" data-name="圖層 2"><g id="圖層_1-2" data-name="圖層 1"><path class="cls-1" d="M22.93,0H5.35V.38a.38.38,0,0,1-.76,0V0H.76A.76.76,0,0,0,0,.76V4.13a.55.55,0,0,0,.26.48A2.67,2.67,0,0,1,1.53,6.88,2.67,2.67,0,0,1,.26,9.15.56.56,0,0,0,0,9.63V13a.76.76,0,0,0,.76.76H4.59v-.38a.38.38,0,0,1,.76,0v.38H22.93A.76.76,0,0,0,23.7,13V.76A.76.76,0,0,0,22.93,0ZM5.35,11.85a.38.38,0,0,1-.76,0v-.77a.38.38,0,0,1,.76,0Zm0-2.29a.38.38,0,1,1-.76,0V8.79a.38.38,0,0,1,.76,0Zm0-2.3a.38.38,0,0,1-.76,0V6.5a.38.38,0,0,1,.76,0ZM5.35,5a.38.38,0,0,1-.76,0V4.2a.38.38,0,0,1,.76,0Zm0-2.29a.38.38,0,0,1-.76,0V1.91a.38.38,0,0,1,.76,0Z"/><path class="cls-2" d="M22.55,13H6.5a.39.39,0,0,1-.38-.39V1.15A.39.39,0,0,1,6.5.76H22.55a.39.39,0,0,1,.38.39V12.61A.39.39,0,0,1,22.55,13Z"/><path class="cls-3" d="M14.21,9.52l-2,1.25a.58.58,0,0,1-.86-.63l.57-2.27-1.8-1.5a.58.58,0,0,1,.33-1l2.34-.15L13.68,3a.57.57,0,0,1,1.06,0l.87,2.18,2.33.15a.57.57,0,0,1,.33,1l-1.79,1.5.57,2.27a.58.58,0,0,1-.86.63Z"/><path class="cls-4" d="M16.8,9.15a6.49,6.49,0,0,1-5.54-3.84l-.79.05a.58.58,0,0,0-.33,1l1.8,1.5-.57,2.27a.58.58,0,0,0,.86.63l2-1.25,2,1.25a.58.58,0,0,0,.86-.63Z"/></g></g></svg>