<?xml version="1.0" standalone="no"?><!DOCTYPE svg PUBLIC "-//W3C//DTD SVG 1.1//EN" "http://www.w3.org/Graphics/SVG/1.1/DTD/svg11.dtd"><svg t="1581672540642" class="icon" viewBox="0 0 1024 1024" version="1.1" xmlns="http://www.w3.org/2000/svg" p-id="873" xmlns:xlink="http://www.w3.org/1999/xlink" width="200" height="200"><defs><style type="text/css"></style></defs><path d="M139.4 388.7c22.9 0 41.5-18.6 41.5-41.5v-41.5c0-22.9-18.6-41.5-41.5-41.5s-41.5 18.6-41.5 41.5v41.5c0 22.9 18.6 41.5 41.5 41.5z" fill="#515151" p-id="874"></path><path d="M912.2 107c-0.3-0.2-0.5-0.4-0.8-0.6-5.2-3.9-11.1-6.5-17.5-7.6-2.4-0.4-4.9-0.7-7.3-0.7H139.4c-22.9 0-41.5 18.6-41.5 41.5s18.6 41.5 41.5 41.5H845v498.1H180.9v-166c0-22.9-18.6-41.5-41.5-41.5s-41.5 18.6-41.5 41.5v207.5c0 22.9 18.6 41.5 41.5 41.5h273.4l-95.2 95.2c-16.2 16.2-16.2 42.5 0 58.7 16.2 16.2 42.5 16.2 58.7 0L513 779.5l136.6 136.6c16.2 16.2 42.5 16.2 58.7 0 16.2-16.2 16.2-42.5 0-58.7l-95.2-95.2h273.4c22.9 0 41.5-18.6 41.5-41.5v-581c0.1-12.8-5.8-24.8-15.8-32.7z" fill="#515151" p-id="875"></path><path d="M307.5 596.2c22.9 0 41.5-18.6 41.5-41.5v-41.5c0-22.9-18.6-41.5-41.5-41.5S266 490.3 266 513.2v41.5c0 23 18.6 41.5 41.5 41.5zM444.5 596.2c22.9 0 41.5-18.6 41.5-41.5v-166c0-22.9-18.6-41.5-41.5-41.5S403 365.8 403 388.7v166c0 23 18.6 41.5 41.5 41.5zM581.5 596.2c22.9 0 41.5-18.6 41.5-41.5V430.2c0-22.9-18.6-41.5-41.5-41.5S540 407.3 540 430.2v124.5c0 23 18.6 41.5 41.5 41.5zM718.5 596.2c22.9 0 41.5-18.6 41.5-41.5v-249c0-22.9-18.6-41.5-41.5-41.5S677 282.8 677 305.7v249c0 23 18.5 41.5 41.5 41.5z" fill="#515151" p-id="876"></path></svg>