<svg width="21" height="19" viewBox="0 0 21 19" fill="none" xmlns="http://www.w3.org/2000/svg">
<path fill-rule="evenodd" clip-rule="evenodd" d="M4.5 15.75C4.5 16.0815 4.6317 16.3995 4.86612 16.6339C5.10054 16.8683 5.41848 17 5.75 17C6.08152 17 6.39946 16.8683 6.63388 16.6339C6.8683 16.3995 7 16.0815 7 15.75H8.5C8.5 16.4793 8.21027 17.1788 7.69454 17.6945C7.17882 18.2103 6.47935 18.5 5.75 18.5C5.02065 18.5 4.32118 18.2103 3.80546 17.6945C3.28973 17.1788 3 16.4793 3 15.75H4.5Z" fill="#2D2D2D"/>
<path fill-rule="evenodd" clip-rule="evenodd" d="M13.5 15.75C13.5 16.0815 13.6317 16.3995 13.8661 16.6339C14.1005 16.8683 14.4185 17 14.75 17C15.0815 17 15.3995 16.8683 15.6339 16.6339C15.8683 16.3995 16 16.0815 16 15.75H17.5C17.5 16.4793 17.2103 17.1788 16.6945 17.6945C16.1788 18.2103 15.4793 18.5 14.75 18.5C14.0207 18.5 13.3212 18.2103 12.8055 17.6945C12.2897 17.1788 12 16.4793 12 15.75H13.5Z" fill="#2D2D2D"/>
<path fill-rule="evenodd" clip-rule="evenodd" d="M6.90596 0.750033C11.9954 3.41636 15.8581 8.10565 17.4263 13.75L7.93195 13.75L6.90596 13.75L0.75 13.75V9.64601C1.2288 7.59403 4.54047 5.37104 6.13646 4.51605H6.90596V0.750033Z" fill="#4DAB94"/>
<path fill-rule="evenodd" clip-rule="evenodd" d="M6 0.75C6 0.335786 6.33579 0 6.75 0H19.75C20.1642 0 20.5 0.335786 20.5 0.75V13.75C20.5 14.1642 20.1642 14.5 19.75 14.5H0.75C0.335786 14.5 0 14.1642 0 13.75V9.75C0 9.69263 0.00658274 9.63545 0.0196191 9.57958C0.170851 8.93144 0.530826 8.32099 0.959691 7.77756C1.39298 7.22853 1.92823 6.70826 2.48248 6.23973C3.5896 5.30383 4.83096 4.52543 5.64583 4.08889C5.75476 4.03053 5.87642 4 6 4V0.75ZM6.19125 5.5C5.45165 5.91053 4.39167 6.58995 3.45085 7.38527C2.94538 7.81257 2.48897 8.26105 2.13718 8.70681C1.80635 9.12603 1.59431 9.50989 1.5 9.84435V13H19V1.5H7.5V4.75C7.5 5.16421 7.16421 5.5 6.75 5.5H6.19125Z" fill="#2D2D2D"/>
</svg>
