<?xml version="1.0" standalone="no"?><!DOCTYPE svg PUBLIC "-//W3C//DTD SVG 1.1//EN" "http://www.w3.org/Graphics/SVG/1.1/DTD/svg11.dtd"><svg t="1592879967097" class="icon" viewBox="0 0 1024 1024" version="1.1" xmlns="http://www.w3.org/2000/svg" p-id="6600" xmlns:xlink="http://www.w3.org/1999/xlink" width="200" height="200"><defs><style type="text/css"></style></defs><path d="M937.6 160H432c-51.2 0-89.6 38.4-89.6 89.6v-4.8H132.8c-20.8 0-38.4 12.8-46.4 30.4L4.8 438.4C0 448 0 456 0 465.6v252.8c0 25.6 17.6 43.2 43.2 43.2h33.6c12.8 59.2 68.8 102.4 128 102.4 64 0 115.2-43.2 128-102.4H662.4c12.8 59.2 68.8 102.4 128 102.4s115.2-43.2 128-102.4h46.4c30.4 0 56-25.6 56-56V251.2c6.4-51.2-32-91.2-83.2-91.2z m-784 172.8h188.8v86.4H112l41.6-86.4z m180.8 342.4c-20.8-46.4-68.8-81.6-124.8-81.6s-102.4 33.6-124.8 81.6V504h257.6v171.2h-8z m-124.8 102.4c-25.6 0-46.4-20.8-46.4-46.4 0-25.6 20.8-46.4 46.4-46.4s46.4 20.8 46.4 46.4c1.6 25.6-20.8 46.4-46.4 46.4z m587.2 0c-25.6 0-46.4-20.8-46.4-46.4 0-25.6 20.8-46.4 46.4-46.4s46.4 20.8 46.4 46.4c0 25.6-20.8 46.4-46.4 46.4z m145.6-102.4h-25.6c-20.8-46.4-68.8-81.6-124.8-81.6s-102.4 33.6-124.8 81.6h-240V251.2s0-4.8 4.8-4.8h510.4s4.8 0 4.8 4.8v424h-4.8z" p-id="6601" fill="#2c2c2c"></path></svg>