<?xml version="1.0" standalone="no"?><!DOCTYPE svg PUBLIC "-//W3C//DTD SVG 1.1//EN" "http://www.w3.org/Graphics/SVG/1.1/DTD/svg11.dtd"><svg t="1581657777548" class="icon" viewBox="0 0 1024 1024" version="1.1" xmlns="http://www.w3.org/2000/svg" p-id="1857" xmlns:xlink="http://www.w3.org/1999/xlink" width="200" height="200"><defs><style type="text/css"></style></defs><path d="M512 31.146667c-268.373333 0-485.76 217.6-485.76 485.76S243.626667 1002.666667 512 1002.666667s485.76-217.6 485.76-485.76S780.373333 31.146667 512 31.146667z m0 682.026666c-108.16 0-196.266667-88.106667-196.266667-196.266666s88.106667-196.266667 196.266667-196.266667 196.266667 88.106667 196.266667 196.266667-88.106667 196.266667-196.266667 196.266666z" fill="#F19942" p-id="1858"></path><path d="M725.333333 467.413333c0-108.16-88.106667-196.266667-196.266666-196.266666-95.146667 0-174.72 68.053333-192.426667 158.08 32.213333-64.213333 98.773333-108.586667 175.573333-108.586667 108.16 0 196.266667 88.106667 196.266667 196.266667 0 13.013333-1.28 25.813333-3.84 38.186666 13.013333-26.453333 20.693333-56.106667 20.693333-87.68z" fill="#FCAE5B" p-id="1859"></path><path d="M529.066667 953.173333c-268.373333 0-485.76-217.6-485.76-485.76 0-46.08 6.613333-90.666667 18.56-133.12-22.826667 56.32-35.626667 117.973333-35.626667 182.613334C26.24 785.066667 243.626667 1002.666667 512 1002.666667c222.08 0 409.386667-149.12 467.2-352.853334-72.106667 177.92-246.4 303.36-450.133333 303.36z" fill="#FCAE5B" p-id="1860"></path><path d="M494.933333 321.493333c-5.76-0.426667-11.306667-0.853333-17.066666-0.853333-108.16 0-196.266667 88.106667-196.266667 196.266667s88.106667 196.266667 196.266667 196.266666c5.76 0 11.52-0.213333 17.066666-0.853333-100.266667-8.746667-179.2-93.013333-179.2-195.413333 0-102.4 78.933333-186.88 179.2-195.413334zM512 31.146667c-5.76 0-11.52 0.213333-17.066667 0.426666C755.2 40.533333 963.413333 254.293333 963.413333 516.906667S755.2 993.28 494.933333 1002.24c5.76 0.213333 11.306667 0.426667 17.066667 0.426667 268.373333 0 485.76-217.6 485.76-485.76S780.373333 31.146667 512 31.146667z" fill="#E56C25" p-id="1861"></path><path d="M907.306667 234.666667c33.066667 65.706667 51.84 139.733333 51.84 218.453333 0 268.373333-217.6 485.76-485.76 485.76-162.986667 0-307.2-80.426667-395.306667-203.52C158.08 893.866667 322.346667 1002.666667 512 1002.666667c268.373333 0 485.76-217.6 485.76-485.76 0-105.386667-33.493333-202.666667-90.453333-282.24z" fill="#E56C25" p-id="1862"></path><path d="M512 31.146667C308.053333 31.146667 133.76 156.8 61.653333 334.933333c5.973333 56.96 24.32 122.666667 74.026667 159.573334 100.906667 75.093333 150.186667 19.2 165.12-38.613334 9.386667-36.266667 29.653333-45.653333 50.56-51.2 35.626667-50.773333 94.293333-83.84 160.853333-83.84 103.253333 0 187.946667 80 195.626667 181.333334 10.88-7.466667 23.253333-28.8 32.853333-69.76 19.2-83.626667 87.893333-42.88 103.04 14.933333s57.813333 128.64 120.106667 92.16c16.64-9.813333 26.88-31.573333 32.853333-58.026667C978.133333 229.546667 768.213333 31.146667 512 31.146667z" fill="#FB86D7" p-id="1863"></path><path d="M512 31.146667C308.053333 31.146667 133.76 156.8 61.653333 334.933333c5.973333 56.96 24.32 122.666667 74.026667 159.573334 100.906667 75.093333 150.186667 19.2 165.12-38.613334 9.386667-36.266667 29.653333-45.653333 50.56-51.2 35.626667-50.773333 94.293333-83.84 160.853333-83.84 103.253333 0 187.946667 80 195.626667 181.333334 10.88-7.466667 23.253333-28.8 32.853333-69.76 19.2-83.626667 87.893333-42.88 103.04 14.933333s57.813333 128.64 120.106667 92.16c16.64-9.813333 26.88-31.573333 32.853333-58.026667C978.133333 229.546667 768.213333 31.146667 512 31.146667z" fill="#FB86D7" p-id="1864"></path><path d="M113.066667 401.28C185.173333 223.146667 359.68 97.493333 563.413333 97.493333c141.226667 0 268.16 60.373333 356.906667 156.586667C833.92 119.893333 683.52 31.146667 512 31.146667 308.053333 31.146667 133.76 156.8 61.653333 334.933333c5.973333 56.96 24.32 122.666667 74.026667 159.573334 0.213333 0.213333 0.64 0.426667 0.853333 0.64-13.44-30.08-20.266667-63.146667-23.466666-93.866667zM894.933333 513.706667c-7.466667-29.013333-28.373333-53.546667-49.92-60.586667 10.24 35.626667 30.72 74.453333 59.52 89.813333-4.053333-9.813333-7.253333-19.84-9.6-29.226666zM689.28 432.853333c10.026667 21.12 16.426667 44.373333 18.346667 68.906667 6.186667-4.266667 12.8-13.013333 19.2-27.093333-10.453333-15.573333-23.04-29.653333-37.546667-41.813334z" fill="#FDA5DF" p-id="1865"></path><path d="M963.413333 484.266667c-62.293333 36.48-105.173333-34.346667-120.106666-92.16s-83.626667-98.56-103.04-14.933334c-9.386667 40.96-21.973333 62.293333-32.853334 69.76-7.68-101.333333-92.373333-181.333333-195.626666-181.333333-66.346667 0-125.226667 33.28-160.853334 83.84-20.693333 5.546667-41.173333 14.933333-50.56 51.2-14.933333 57.813333-64.426667 113.706667-165.12 38.613333-38.186667-28.373333-57.813333-74.026667-67.626666-119.466666-2.133333 4.906667-4.266667 9.813333-6.4 14.933333 5.973333 56.96 24.32 122.666667 74.026666 159.573333 100.906667 75.093333 150.186667 19.2 165.12-38.613333 9.386667-36.266667 29.653333-45.653333 50.56-51.2 35.626667-50.773333 94.293333-83.84 160.853334-83.84 103.253333 0 187.946667 80 195.626666 181.333333 10.88-7.466667 23.253333-28.8 32.853334-69.76 19.2-83.626667 87.893333-42.88 103.04 14.933334s57.813333 128.64 120.106666 92.16c16.64-9.813333 26.88-31.573333 32.853334-58.026667-0.853333-13.013333-2.56-26.026667-4.48-38.826667-6.186667 18.986667-15.146667 34.133333-28.373334 41.813334z" fill="#F45EC1" p-id="1866"></path><path d="M227.626667 229.12c-4.906667-6.186667-3.84-15.36 2.56-20.266667l41.813333-32.853333c6.186667-4.906667 15.36-3.84 20.266667 2.56 4.906667 6.186667 3.84 15.36-2.56 20.266667l-41.813334 32.853333c-6.186667 4.906667-15.36 3.626667-20.266666-2.56zM827.733333 154.453333c5.333333-5.973333 14.506667-6.613333 20.48-1.28l39.68 35.2c5.973333 5.333333 6.613333 14.506667 1.28 20.48s-14.506667 6.613333-20.48 1.28L829.013333 174.933333c-5.973333-5.333333-6.613333-14.506667-1.28-20.48z" fill="#F8101E" p-id="1867"></path><path d="M575.573333 30.72c2.773333-7.466667 11.093333-11.306667 18.56-8.533333l49.706667 18.773333c7.466667 2.773333 11.306667 11.093333 8.533333 18.56-2.773333 7.466667-11.093333 11.306667-18.56 8.533333l-49.706666-18.773333c-7.68-2.773333-11.52-11.093333-8.533334-18.56zM217.173333 452.693333c-7.68-1.92-12.586667-9.6-10.666666-17.493333l12.16-51.626667c1.92-7.68 9.6-12.586667 17.493333-10.666666 7.68 1.92 12.586667 9.6 10.666667 17.493333l-12.16 51.626667c-1.92 7.68-9.813333 12.373333-17.493334 10.666666z" fill="#643FCB" p-id="1868"></path><path d="M295.68 79.146667c-1.92-7.68 2.773333-15.573333 10.453333-17.706667l51.413334-13.226667c7.68-1.92 15.573333 2.773333 17.706666 10.453334 1.92 7.68-2.773333 15.573333-10.453333 17.706666L313.386667 89.6c-7.68 1.92-15.573333-2.773333-17.706667-10.453333zM544.64 184.746667c1.493333-7.893333 9.173333-13.013333 16.853333-11.52l52.053334 10.026666c7.893333 1.493333 13.013333 9.173333 11.52 16.853334-1.493333 7.893333-9.173333 13.013333-16.853334 11.52l-52.053333-10.026667c-7.893333-1.493333-13.013333-8.96-11.52-16.853333zM930.986667 343.893333c7.68-2.133333 15.786667 2.346667 17.92 10.026667l14.293333 51.2c2.133333 7.68-2.346667 15.786667-10.026667 17.92s-15.786667-2.346667-17.92-10.026667l-14.293333-51.2c-2.133333-7.893333 2.346667-15.786667 10.026667-17.92z" fill="#8BB138" p-id="1869"></path><path d="M656 305.706667c4.053333-6.826667 13.013333-8.96 19.84-4.906667l45.44 27.52c6.826667 4.053333 8.96 13.013333 4.906667 19.84-4.053333 6.826667-13.013333 8.96-19.84 4.906667l-45.44-27.52c-6.826667-4.053333-8.96-13.013333-4.906667-19.84z" fill="#FDE718" p-id="1870"></path><path d="M112.64 315.306667c-7.893333-1.706667-12.8-9.386667-11.306667-17.066667l10.88-52.053333c1.706667-7.893333 9.386667-12.8 17.066667-11.306667 7.893333 1.706667 12.8 9.386667 11.306667 17.066667l-10.88 52.053333c-1.493333 7.893333-9.173333 12.8-17.066667 11.306667z" fill="#F9E007" p-id="1871"></path><path d="M567.04 827.946667c-11.093333 4.693333-6.4 21.546667 5.546667 19.84 30.72-4.266667 70.826667-14.933333 113.28-39.893334 43.946667-26.026667 72.746667-61.653333 90.666666-91.306666 6.186667-10.453333-7.466667-21.333333-16.213333-12.8-25.6 24.96-58.453333 55.04-84.906667 71.466666-26.026667 16.213333-72.32 37.12-108.373333 52.693334z" fill="#FCD0A1" p-id="1872"></path></svg>