<?xml version="1.0" encoding="utf-8"?>
<!-- Generator: Adobe Illustrator 23.0.4, SVG Export Plug-In . SVG Version: 6.00 Build 0)  -->
<svg version="1.1" id="圖層_1" xmlns="http://www.w3.org/2000/svg" xmlns:xlink="http://www.w3.org/1999/xlink" x="0px" y="0px"
	 viewBox="0 0 401 401" style="enable-background:new 0 0 401 401;" xml:space="preserve">
<g>
	<path d="M367,244.3c-8.6,0-15.6,7-15.6,15.6v86.5c0,12.9-10.5,23.4-23.4,23.4H54.6c-12.9,0-23.4-10.5-23.4-23.4V92.5
		c0-12.9,10.5-23.4,23.4-23.4h86.5c8.6,0,15.6-7,15.6-15.6c0-8.6-7-15.6-15.6-15.6H54.6C24.5,38,0,62.4,0,92.5v253.9
		C0,376.5,24.5,401,54.6,401H328c30.1,0,54.5-24.5,54.6-54.6v-86.5C382.6,251.3,375.6,244.3,367,244.3z"/>
	<path d="M388.4,26L377,14.6c0,0,0,0,0,0C367.6,5.2,355.1,0,341.8,0c-13.3,0-25.8,5.2-35.1,14.6L132.9,188.4c-1.9,1.9-3.3,4.3-4,6.9
		L106,277.8c-1.5,5.4,0,11.2,4,15.2c3,3,7,4.6,11,4.6c1.4,0,2.8-0.2,4.1-0.6l82.5-22.9c2.6-0.7,5-2.1,6.9-4L388.4,96.3
		C407.8,76.9,407.8,45.4,388.4,26z M366.4,74.2l-6.2,6.2l-37.6-37.6l6.2-6.2c7.2-7.2,19-7.2,26.2,0L366.4,48
		C373.6,55.3,373.6,67,366.4,74.2z M338.1,102.5l-134,134l-37.6-37.6l134-134L338.1,102.5z M174.5,251l-31.1,8.6l8.6-31.1L174.5,251
		z"/>
</g>
</svg>
