<svg width="107" height="19" viewBox="0 0 107 19" fill="none" xmlns="http://www.w3.org/2000/svg">
<path d="M10.7827 9.43982C10.7827 6.14181 8.53139 3.98921 5.45061 3.98921C2.31058 3.98921 0 6.24055 0 9.38058C0 12.5206 2.29084 14.7917 5.82583 14.7917C7.6427 14.7917 9.12385 14.1992 10.0718 13.0736L8.74862 11.5529C7.99818 12.3231 7.06999 12.6983 5.88508 12.6983C4.04846 12.6983 2.7648 11.7109 2.46857 10.1705H10.7432C10.763 9.93354 10.7827 9.63731 10.7827 9.43982ZM5.45061 5.96407C7.06999 5.96407 8.23516 7.01075 8.43265 8.53139H2.44882C2.68581 6.991 3.85097 5.96407 5.45061 5.96407Z" fill="#262727"/>
<path d="M31.8704 14.7917C33.9242 14.7917 35.5633 13.903 36.373 12.3231L34.4772 11.2172C33.8452 12.2244 32.8973 12.6786 31.8506 12.6786C30.0337 12.6786 28.6513 11.4344 28.6513 9.38058C28.6513 7.34647 30.0337 6.08256 31.8506 6.08256C32.8973 6.08256 33.8452 6.53678 34.4772 7.54396L36.373 6.43804C35.5633 4.8384 33.9242 3.98921 31.8704 3.98921C28.5328 3.98921 26.163 6.2208 26.163 9.38058C26.163 12.5404 28.5328 14.7917 31.8704 14.7917Z" fill="#262727"/>
<path d="M45.3818 3.98921C43.9204 3.98921 42.6762 4.46318 41.8665 5.33212V0H39.398V14.6534H41.8665V9.32133C41.8665 7.20823 43.0514 6.14181 44.8091 6.14181C46.389 6.14181 47.3171 7.05024 47.3171 8.92636V14.6534H49.7857V8.61038C49.7857 5.43086 47.9096 3.98921 45.3818 3.98921Z" fill="#262727"/>
<path d="M57.9334 3.98921C56.235 3.98921 54.5959 4.42368 53.4702 5.29262L54.4379 7.08974C55.2278 6.43804 56.4523 6.04307 57.6372 6.04307C59.3948 6.04307 60.2637 6.89226 60.2637 8.3339V8.49189H57.5384C54.3392 8.49189 53.1542 9.87429 53.1542 11.6319C53.1542 13.4685 54.6749 14.7917 57.0842 14.7917C58.6641 14.7917 59.8095 14.2782 60.402 13.3698V14.6534H62.7323V8.47214C62.7323 5.43086 60.9747 3.98921 57.9334 3.98921ZM57.5977 12.9946C56.3338 12.9946 55.5833 12.4219 55.5833 11.5332C55.5833 10.763 56.0375 10.131 57.7162 10.131H60.2637V11.3554C59.849 12.4416 58.8023 12.9946 57.5977 12.9946Z" fill="#262727"/>
<path d="M72.8717 3.98921C71.3313 3.98921 70.0476 4.50268 69.2379 5.47036V4.10771H66.8878V14.6534H69.3564V9.32133C69.3564 7.20823 70.5413 6.14181 72.299 6.14181C73.8788 6.14181 74.807 7.05024 74.807 8.92636V14.6534H77.2756V8.61038C77.2756 5.43086 75.3995 3.98921 72.8717 3.98921Z" fill="#262727"/>
<path d="M89.6077 4.10771V5.50985C88.7387 4.46318 87.4353 3.98921 85.9542 3.98921C82.9326 3.98921 80.622 6.00357 80.622 9.0646C80.622 12.1256 82.9326 14.1795 85.9542 14.1795C87.3761 14.1795 88.6202 13.7253 89.4892 12.7773V13.3303C89.4892 15.4631 88.4622 16.5296 86.1319 16.5296C84.6705 16.5296 83.1696 16.0359 82.2414 15.2657L81.1355 17.122C82.3402 18.1095 84.2953 18.6229 86.2701 18.6229C89.9631 18.6229 91.9577 16.885 91.9577 13.0538V4.10771H89.6077ZM86.3294 12.0861C84.4533 12.0861 83.1104 10.8617 83.1104 9.0646C83.1104 7.28723 84.4533 6.08256 86.3294 6.08256C88.1858 6.08256 89.5287 7.28723 89.5287 9.0646C89.5287 10.8617 88.1858 12.0861 86.3294 12.0861Z" fill="#262727"/>
<path d="M106.104 9.43982C106.104 6.14181 103.853 3.98921 100.772 3.98921C97.6322 3.98921 95.3216 6.24055 95.3216 9.38058C95.3216 12.5206 97.6125 14.7917 101.147 14.7917C102.964 14.7917 104.445 14.1992 105.393 13.0736L104.07 11.5529C103.32 12.3231 102.392 12.6983 101.207 12.6983C99.3701 12.6983 98.0864 11.7109 97.7902 10.1705H106.065C106.085 9.93354 106.104 9.63731 106.104 9.43982ZM100.772 5.96407C102.392 5.96407 103.557 7.01075 103.754 8.53139H97.7705C98.0074 6.991 99.1726 5.96407 100.772 5.96407Z" fill="#262727"/>
<path fill-rule="evenodd" clip-rule="evenodd" d="M16.2154 2.91759C16.0891 2.7512 15.892 2.65344 15.6829 2.65344H13.0738C12.5218 2.65344 12.208 3.28356 12.5413 3.72264L16.3173 8.69771C16.4994 8.93759 16.4979 9.26946 16.3136 9.50766L12.39 14.5793C12.051 15.0176 12.364 15.6534 12.9188 15.6534H15.3938C15.6013 15.6534 15.7971 15.5572 15.9235 15.393L20.5285 9.41327C20.7119 9.17511 20.7131 8.84395 20.5314 8.60451L16.2154 2.91759ZM22.7117 11.4534C22.4446 11.1051 21.9191 11.1046 21.6514 11.4525L20.3605 13.1304C20.1807 13.364 20.1759 13.6878 20.3487 13.9267L21.3982 15.3771C21.5238 15.5506 21.7252 15.6534 21.9398 15.6534H24.5803C25.1338 15.6534 25.4471 15.0202 25.1107 14.5816L22.7117 11.4534ZM21.4699 2.91933C21.5961 2.75192 21.7938 2.65344 22.0037 2.65344H24.3792C24.9333 2.65344 25.2465 3.28799 24.9088 3.72643L22.73 6.55476C22.4612 6.90373 21.9333 6.90152 21.6675 6.55032L20.5006 5.00894C20.3208 4.77154 20.3205 4.44404 20.4997 4.20628L21.4699 2.91933Z" fill="url(#paint0_radial_312_901)"/>
<defs>
<radialGradient id="paint0_radial_312_901" cx="0" cy="0" r="1" gradientUnits="userSpaceOnUse" gradientTransform="translate(18.7495 9.15344) rotate(90) scale(6.5)">
<stop offset="0.161458" stop-color="#A6A6A6"/>
<stop offset="1"/>
</radialGradient>
</defs>
</svg>
