<?xml version="1.0" encoding="UTF-8" standalone="no"?>
<!DOCTYPE svg PUBLIC "-//W3C//DTD SVG 1.1//EN" "http://www.w3.org/Graphics/SVG/1.1/DTD/svg11.dtd">
<svg width="100%" height="100%" viewBox="0 0 67 75" version="1.1" xmlns="http://www.w3.org/2000/svg" xmlns:xlink="http://www.w3.org/1999/xlink" xml:space="preserve" xmlns:serif="http://www.serif.com/" style="fill-rule:evenodd;clip-rule:evenodd;stroke-linejoin:round;stroke-miterlimit:2;">
    <g transform="matrix(1,0,0,1,-222.957,-669.395)">
        <g transform="matrix(4.16667,0,0,4.16667,0,0)">
            <g transform="matrix(1,0,0,1,60.7455,172.898)">
                <path d="M0,-8.45C-2.33,-8.45 -4.225,-6.554 -4.225,-4.225C-4.225,-1.895 -2.33,0 0,0C2.33,0 4.225,-1.895 4.225,-4.225C4.225,-6.554 2.33,-8.45 0,-8.45M0,0.8C-2.771,0.8 -5.025,-1.454 -5.025,-4.225C-5.025,-6.996 -2.771,-9.25 0,-9.25C2.771,-9.25 5.025,-6.996 5.025,-4.225C5.025,-1.454 2.771,0.8 0,0.8" style="fill:rgb(50,51,52);fill-rule:nonzero;"/>
            </g>
        </g>
        <g transform="matrix(4.16667,0,0,4.16667,0,0)">
            <g transform="matrix(1,0,0,1,60.4071,166.243)">
                <path d="M0,4.86C-0.169,4.86 -0.321,4.754 -0.377,4.592L-1.005,2.803L-1.287,3.375C-1.354,3.511 -1.493,3.598 -1.646,3.598L-3.009,3.598C-3.229,3.598 -3.409,3.419 -3.409,3.198C-3.409,2.977 -3.229,2.798 -3.009,2.798L-1.894,2.798L-1.301,1.595C-1.23,1.451 -1.073,1.36 -0.918,1.372C-0.757,1.382 -0.618,1.487 -0.565,1.639L-0.085,3.008L0.519,0.312C0.559,0.131 0.718,0.002 0.903,0C1.112,0.016 1.251,0.122 1.296,0.301L1.932,2.802L3.688,2.812C3.908,2.813 4.086,2.993 4.085,3.214C4.084,3.435 3.905,3.612 3.685,3.612L3.683,3.612L1.618,3.6C1.436,3.599 1.277,3.475 1.232,3.298L0.933,2.121L0.39,4.548C0.352,4.722 0.202,4.849 0.023,4.86L0,4.86" style="fill:rgb(50,51,52);fill-rule:nonzero;"/>
            </g>
        </g>
        <g transform="matrix(4.16667,0,0,4.16667,0,0)">
            <g transform="matrix(1,0,0,1,65.7753,171.833)">
                <path d="M0,3.257C-0.111,3.257 -0.221,3.211 -0.3,3.122L-2.425,0.711C-2.571,0.545 -2.555,0.293 -2.389,0.146C-2.224,0 -1.971,0.016 -1.824,0.182L0.3,2.592C0.446,2.758 0.43,3.011 0.265,3.157C0.188,3.224 0.094,3.257 0,3.257" style="fill:rgb(50,51,52);fill-rule:nonzero;"/>
            </g>
        </g>
        <g transform="matrix(4.16667,0,0,4.16667,0,0)">
            <g transform="matrix(1,0,0,1,61.5297,177.716)">
                <path d="M0,-16.172C-0.094,-16.172 -0.187,-16.157 -0.277,-16.129L-6.816,-14.012C-7.002,-13.952 -7.128,-13.779 -7.128,-13.583L-7.128,-8.94C-7.125,-6.53 -5.978,-4.265 -4.039,-2.834L-0.267,-0.061C-0.107,0.055 0.109,0.055 0.269,-0.061L4.038,-2.834C5.978,-4.265 7.125,-6.53 7.128,-8.94L7.128,-13.583C7.129,-13.778 7.003,-13.952 6.817,-14.011L0.276,-16.129C0.187,-16.157 0.094,-16.172 0,-16.172M0,0.918C-0.288,0.918 -0.563,0.828 -0.796,0.658L-4.567,-2.116C-6.733,-3.715 -8.014,-6.247 -8.02,-8.94L-8.02,-13.583C-8.02,-14.168 -7.646,-14.681 -7.089,-14.859L-0.55,-16.975C-0.192,-17.09 0.193,-17.09 0.551,-16.975L7.089,-14.859C7.645,-14.68 8.019,-14.168 8.019,-13.583L8.019,-8.94C8.015,-6.247 6.733,-3.715 4.566,-2.116L0.796,0.658C0.565,0.827 0.286,0.918 0,0.918" style="fill:rgb(50,51,52);fill-rule:nonzero;"/>
            </g>
        </g>
    </g>
</svg>
