<?xml version="1.0" encoding="UTF-8" standalone="no"?>
<!DOCTYPE svg PUBLIC "-//W3C//DTD SVG 1.1//EN" "http://www.w3.org/Graphics/SVG/1.1/DTD/svg11.dtd">
<svg width="100%" height="100%" viewBox="0 0 73 73" version="1.1" xmlns="http://www.w3.org/2000/svg" xmlns:xlink="http://www.w3.org/1999/xlink" xml:space="preserve" xmlns:serif="http://www.serif.com/" style="fill-rule:evenodd;clip-rule:evenodd;stroke-linejoin:round;stroke-miterlimit:2;">
    <g transform="matrix(1,0,0,1,-218.322,-449.899)">
        <g transform="matrix(4.16667,0,0,4.16667,0,0)">
            <g transform="matrix(1,0,0,1,69.0692,109.546)">
                <path d="M0,14.175C0,14.599 -0.372,14.945 -0.828,14.945L-15.045,14.945C-15.501,14.945 -15.873,14.599 -15.873,14.175L-15.873,4.419C-15.873,4.418 -15.872,4.417 -15.872,4.415L-15.708,3.981C-15.557,3.784 -15.323,3.648 -15.045,3.648L-11.447,3.648L-11.447,5.526C-11.447,5.951 -11.101,6.297 -10.676,6.297L-5.545,6.297C-5.12,6.297 -4.774,5.951 -4.774,5.526L-4.774,3.648L-0.828,3.648C-0.608,3.648 -0.41,3.731 -0.261,3.862L-0.038,4.246C-0.023,4.303 0,4.357 0,4.419L0,14.175ZM-14.154,-0.125C-14.003,-0.48 -13.644,-0.769 -13.354,-0.769L-10.81,-0.769C-10.813,-0.755 -10.818,-0.743 -10.821,-0.728L-11.376,2.848L-15.045,2.848C-15.128,2.848 -15.208,2.86 -15.288,2.872L-14.154,-0.125ZM-10.589,3.648L-5.574,3.648L-5.574,5.497L-10.647,5.526L-10.676,3.648L-10.589,3.648ZM-9.997,-0.769L-6.672,-0.769C-6.659,-0.726 -6.641,-0.661 -6.617,-0.564L-5.773,2.848L-10.566,2.848L-10.032,-0.595C-10.014,-0.694 -9.992,-0.749 -9.997,-0.769M-2.56,-0.08L-0.853,2.848L-4.95,2.848L-5.84,-0.753C-5.841,-0.758 -5.843,-0.764 -5.844,-0.769L-3.333,-0.769C-3.073,-0.769 -2.814,-0.54 -2.56,-0.08M0.385,3.382L-1.864,-0.475C-2.266,-1.201 -2.76,-1.569 -3.333,-1.569L-6.558,-1.569C-6.559,-1.569 -6.559,-1.57 -6.56,-1.57L-10.037,-1.57C-10.04,-1.57 -10.043,-1.569 -10.045,-1.569L-13.354,-1.569C-14.047,-1.569 -14.652,-1 -14.896,-0.423L-16.4,3.552C-16.572,3.801 -16.672,4.098 -16.672,4.419L-16.672,14.175C-16.672,15.041 -15.942,15.745 -15.045,15.745L-0.828,15.745C0.069,15.745 0.8,15.041 0.8,14.175L0.8,4.419C0.8,4.02 0.64,3.659 0.385,3.382" style="fill:rgb(50,51,52);fill-rule:nonzero;"/>
            </g>
        </g>
    </g>
</svg>
