<?xml version="1.0" encoding="UTF-8" standalone="no"?>
<!DOCTYPE svg PUBLIC "-//W3C//DTD SVG 1.1//EN" "http://www.w3.org/Graphics/SVG/1.1/DTD/svg11.dtd">
<svg width="100%" height="100%" viewBox="0 0 56 78" version="1.1" xmlns="http://www.w3.org/2000/svg" xmlns:xlink="http://www.w3.org/1999/xlink" xml:space="preserve" xmlns:serif="http://www.serif.com/" style="fill-rule:evenodd;clip-rule:evenodd;stroke-linejoin:round;stroke-miterlimit:2;">
    <g transform="matrix(1,0,0,1,-225.735,-226.661)">
        <g transform="matrix(4.16667,0,0,4.16667,0,0)">
            <g transform="matrix(1,0,0,1,56.5214,72.3984)">
                <path d="M0,-13.139L0,-9.273C0,-9.119 -0.1,-8.984 -0.247,-8.938C-1.083,-8.679 -1.645,-7.922 -1.645,-7.055L-1.645,-0.116C-1.645,-0.052 -1.593,0 -1.529,0L2.204,0C2.269,0 2.321,-0.052 2.321,-0.116L2.321,-7.055C2.321,-7.922 1.759,-8.679 0.922,-8.938C0.776,-8.984 0.676,-9.119 0.676,-9.273L0.676,-13.139L0,-13.139ZM2.204,0.7L-1.529,0.7C-1.979,0.7 -2.345,0.334 -2.345,-0.116L-2.345,-7.055C-2.345,-8.143 -1.694,-9.102 -0.7,-9.518L-0.7,-13.279C-0.7,-13.588 -0.449,-13.839 -0.14,-13.839L0.815,-13.839C1.125,-13.839 1.376,-13.588 1.376,-13.279L1.376,-9.518C2.37,-9.102 3.021,-8.143 3.021,-7.055L3.021,-0.116C3.021,0.334 2.654,0.7 2.204,0.7" style="fill:rgb(50,51,52);fill-rule:nonzero;"/>
            </g>
        </g>
        <g transform="matrix(4.16667,0,0,4.16667,0,0)">
            <g transform="matrix(1,0,0,1,64.6869,72.4326)">
                <path d="M0,-17.368L-1.124,-17.334L-1.09,-12.3C-1.09,-12.132 -1.209,-11.987 -1.375,-11.956C-2.45,-11.752 -3.229,-10.81 -3.229,-9.717L-3.229,-0.21C-3.229,-0.113 -3.15,-0.034 -3.053,-0.034L1.963,-0.034C2.06,-0.034 2.139,-0.113 2.139,-0.21L2.139,-9.717C2.139,-10.81 1.359,-11.752 0.285,-11.956C0.12,-11.987 0,-12.132 0,-12.3L0,-17.368ZM1.963,0.666L-3.053,0.666C-3.537,0.666 -3.93,0.273 -3.93,-0.21L-3.93,-9.717C-3.93,-11.048 -3.046,-12.206 -1.79,-12.575L-1.79,-17.368C-1.79,-17.735 -1.491,-18.034 -1.124,-18.034L0.034,-18.034C0.401,-18.034 0.7,-17.735 0.7,-17.368L0.7,-12.575C1.956,-12.206 2.839,-11.048 2.839,-9.717L2.839,-0.21C2.839,0.273 2.446,0.666 1.963,0.666" style="fill:rgb(50,51,52);fill-rule:nonzero;"/>
            </g>
        </g>
        <g transform="matrix(4.16667,0,0,4.16667,0,0)">
            <g transform="matrix(1,0,0,1,65.015,58.681)">
                <path d="M0,0.7L-1.768,0.7C-1.961,0.7 -2.118,0.543 -2.118,0.35C-2.118,0.157 -1.961,0 -1.768,0L0,0C0.193,0 0.35,0.157 0.35,0.35C0.35,0.543 0.193,0.7 0,0.7" style="fill:rgb(50,51,52);fill-rule:nonzero;"/>
            </g>
        </g>
        <g transform="matrix(4.16667,0,0,4.16667,0,0)">
            <g transform="matrix(1,0,0,1,57.5473,61.805)">
                <path d="M0,0.7L-1.376,0.7C-1.569,0.7 -1.726,0.543 -1.726,0.35C-1.726,0.157 -1.569,0 -1.376,0L0,0C0.193,0 0.35,0.157 0.35,0.35C0.35,0.543 0.193,0.7 0,0.7" style="fill:rgb(50,51,52);fill-rule:nonzero;"/>
            </g>
        </g>
        <g transform="matrix(4.16667,0,0,4.16667,0,0)">
            <g transform="matrix(1,0,0,1,0,-116.151)">
                <path d="M64.289,186.73L66.826,186.73L66.826,181.025L64.289,181.025L64.289,186.73ZM67.176,187.43L64.139,187.43C63.835,187.43 63.589,187.183 63.589,186.88L63.589,180.875C63.589,180.572 63.835,180.325 64.139,180.325L67.176,180.325C67.37,180.325 67.526,180.482 67.526,180.675L67.526,187.08C67.526,187.273 67.37,187.43 67.176,187.43" style="fill:rgb(50,51,52);fill-rule:nonzero;"/>
            </g>
        </g>
        <g transform="matrix(4.16667,0,0,4.16667,0,0)">
            <g transform="matrix(1,0,0,1,0,-113.764)">
                <path d="M57.209,184.238L58.815,184.238L58.815,181.13L57.209,181.13L57.209,184.238ZM59.166,184.938L57.059,184.938C56.756,184.938 56.509,184.692 56.509,184.389L56.509,180.98C56.509,180.677 56.756,180.43 57.059,180.43L59.166,180.43C59.359,180.43 59.516,180.587 59.516,180.78L59.516,184.588C59.516,184.782 59.359,184.938 59.166,184.938" style="fill:rgb(50,51,52);fill-rule:nonzero;"/>
            </g>
        </g>
    </g>
</svg>
