<svg xmlns="http://www.w3.org/2000/svg" viewBox="0 0 201.82 185.37"><defs><style>.cls-1{fill:#fff;}</style></defs><title>資產 3</title><g id="圖層_2" data-name="圖層 2"><g id="圖層_1-2" data-name="圖層 1"><path class="cls-1" d="M125,38.34h68.36a8.5,8.5,0,0,0,0-17H125a8.5,8.5,0,1,0,0,17Z"/><path class="cls-1" d="M68.93,0A29.88,29.88,0,0,0,40.34,21.34H8.5a8.5,8.5,0,0,0,0,17H40.34A29.83,29.83,0,1,0,68.93,0Zm0,42.67A12.84,12.84,0,1,1,81.77,29.84,12.85,12.85,0,0,1,68.93,42.67Z"/><path class="cls-1" d="M193.32,147H125a8.5,8.5,0,0,0,0,17h68.36a8.5,8.5,0,0,0,0-17Z"/><path class="cls-1" d="M68.93,125.7A29.88,29.88,0,0,0,40.34,147H8.5a8.5,8.5,0,0,0,0,17H40.34A29.83,29.83,0,1,0,68.93,125.7Zm0,42.67a12.84,12.84,0,1,1,12.84-12.84A12.85,12.85,0,0,1,68.93,168.37Z"/><path class="cls-1" d="M193.32,84.18H161.48a29.84,29.84,0,1,0,0,17h31.84a8.5,8.5,0,0,0,0-17Zm-60.43,21.34a12.84,12.84,0,1,1,12.83-12.84A12.85,12.85,0,0,1,132.89,105.52Z"/><path class="cls-1" d="M8.5,101.18H76.86a8.5,8.5,0,1,0,0-17H8.5a8.5,8.5,0,0,0,0,17Z"/></g></g></svg>