<?xml version="1.0" encoding="utf-8"?>
<!-- Generator: Adobe Illustrator 23.0.3, SVG Export Plug-In . SVG Version: 6.00 Build 0)  -->
<svg version="1.1" id="圖層_1" focusable="false" xmlns="http://www.w3.org/2000/svg" xmlns:xlink="http://www.w3.org/1999/xlink"
	 x="0px" y="0px" viewBox="0 0 504 518" style="enable-background:new 0 0 504 518;" xml:space="preserve">
<style type="text/css">
	.st0{fill:#FFFFFF;}
</style>
<path class="st0" d="M341.6,98.8C288,98.8,243.7,64,176.3,64c-25,0-47.3,4.4-68,12c2.9-7.5,4.1-15.5,3.6-23.6
	C110.1,24,86.8,1.2,58.3,0C26.3-1.3,0,24.3,0,56c0,19,9.5,35.8,24,45.9V494c0,13.3,10.7,24,24,24h16c13.3,0,24-10.7,24-24V393.6
	c28.3-12.1,63.6-22.1,114.4-22.1c53.6,0,97.8,34.8,165.2,34.8c48.2,0,86.7-16.3,122.5-40.9c8.7-6,13.8-15.8,13.8-26.4V95.9
	c0-23.4-24.3-38.9-45.5-29C424.2,82.9,382.1,98.8,341.6,98.8z"/>
</svg>
