<svg xmlns="http://www.w3.org/2000/svg" width="19.568" height="17.785" viewBox="0 0 19.568 17.785">
  <g id="Group_1613" data-name="Group 1613" transform="translate(-241.149 -483.211)">
    <g id="Group_1609" data-name="Group 1609">
      <path id="Path_1498" data-name="Path 1498" d="M259.575,501H242.291a1.144,1.144,0,0,1-1.142-1.142V489.08a1.143,1.143,0,0,1,1.142-1.141h3.382a.142.142,0,0,0,.1-.042l4.352-4.352a1.143,1.143,0,0,1,1.614,0l4.353,4.352a.137.137,0,0,0,.1.042h3.382a1.143,1.143,0,0,1,1.142,1.141v10.774A1.144,1.144,0,0,1,259.575,501Zm-17.284-12.057a.142.142,0,0,0-.142.141v10.774a.143.143,0,0,0,.142.142h17.284a.142.142,0,0,0,.142-.142V489.08a.141.141,0,0,0-.142-.141h-3.382a1.14,1.14,0,0,1-.809-.335l-4.351-4.352a.142.142,0,0,0-.2,0l-4.352,4.352a1.135,1.135,0,0,1-.808.335Z" fill="#1a1311"/>
    </g>
    <g id="Group_1610" data-name="Group 1610">
      <path id="Path_1499" data-name="Path 1499" d="M250.931,493.163a2.758,2.758,0,1,1,.269-.013C251.11,493.159,251.02,493.163,250.931,493.163Zm0-4.516a1.66,1.66,0,0,0-.172.008,1.762,1.762,0,1,0,.172-.008Z" fill="#1a1311"/>
    </g>
    <g id="Group_1611" data-name="Group 1611">
      <path id="Path_1500" data-name="Path 1500" d="M254.823,501h-7.78V495.42a1.285,1.285,0,0,1,1.284-1.283h5.212a1.285,1.285,0,0,1,1.284,1.283Zm-6.78-1h5.78V495.42a.284.284,0,0,0-.284-.283h-5.212a.284.284,0,0,0-.284.283Z" fill="#1a1311"/>
    </g>
    <g id="Group_1612" data-name="Group 1612">
      <rect id="Rectangle_2100" data-name="Rectangle 2100" width="1" height="5.859" transform="translate(250.433 494.637)" fill="#1a1311"/>
    </g>
  </g>
</svg>
