<svg xmlns="http://www.w3.org/2000/svg" width="18.104" height="18.07" viewBox="0 0 18.104 18.07">
  <g id="Group_1605" data-name="Group 1605" transform="translate(-241.881 -414.287)">
    <path id="Path_1484" data-name="Path 1484" d="M242.711,420.323l7.137,3.394a2.569,2.569,0,0,0,2.175,0l7.137-3.394a1.285,1.285,0,0,0,0-2.4l-7.137-3.394a2.523,2.523,0,0,0-1.087-.242h0a2.523,2.523,0,0,0-1.087.242l-7.137,3.394a1.286,1.286,0,0,0,0,2.4Zm.542-1.229,7.15-3.4a1.268,1.268,0,0,1,.532-.116h0a1.272,1.272,0,0,1,.532.116l7.137,3.4a.3.3,0,0,1,.074.036.459.459,0,0,1-.061.035l-7.15,3.4a1.293,1.293,0,0,1-1.065,0l-7.137-3.4a.386.386,0,0,1-.074-.035A.251.251,0,0,1,243.253,419.094Z" fill="#1a1311"/>
    <path id="Path_1485" data-name="Path 1485" d="M259.034,422.84l-7.279,3.614a1.871,1.871,0,0,1-1.645,0l-7.279-3.614a.645.645,0,1,0-.574,1.155l7.279,3.617a3.129,3.129,0,0,0,1.4.323h-.007a3.131,3.131,0,0,0,1.4-.326L259.608,424a.646.646,0,0,0-.574-1.156Z" fill="#1a1311"/>
    <path id="Path_1486" data-name="Path 1486" d="M259.034,427.261l-7.279,3.614a1.864,1.864,0,0,1-1.645,0l-7.279-3.614a.645.645,0,1,0-.574,1.155l7.279,3.617a3.175,3.175,0,0,0,1.4.323h0a3.175,3.175,0,0,0,1.4-.323l7.275-3.617a.646.646,0,0,0-.574-1.156Z" fill="#1a1311"/>
  </g>
</svg>
