<svg xmlns="http://www.w3.org/2000/svg" width="19.437" height="20.35" viewBox="0 0 19.437 20.35">
  <g id="Group_1606" data-name="Group 1606" transform="translate(-241.215 -516.319)">
    <g id="Path_591" data-name="Path 591">
      <path id="Path_1487" data-name="Path 1487" d="M251.4,530.044a3.822,3.822,0,0,1-3.773-3.213.516.516,0,0,1,1.019-.164h0a2.784,2.784,0,1,0,.206-1.583.516.516,0,0,1-.943-.421h0a3.822,3.822,0,1,1,3.49,5.381Z" fill="#1a1311"/>
    </g>
    <g id="Path_592" data-name="Path 592">
      <path id="Path_1488" data-name="Path 1488" d="M244.4,523.639a.517.517,0,0,1-.5-.413,3.822,3.822,0,1,1,7.547-.392.516.516,0,1,1-1.029-.083l0-.017a2.79,2.79,0,1,0-5.552-.558,2.757,2.757,0,0,0,.044.845.516.516,0,0,1-.4.609.5.5,0,0,1-.1.011Zm10.767,10.173a3.812,3.812,0,0,1-1.919-.518l.52-.892a2.79,2.79,0,1,0,.989-5.171l-.152-1.021a3.822,3.822,0,1,1,.562,7.6Z" fill="#1a1311"/>
    </g>
    <g id="Group_725" data-name="Group 725">
      <g id="Path_593" data-name="Path 593">
        <path id="Path_1489" data-name="Path 1489" d="M250.234,535.11a3.827,3.827,0,0,1-3.5-2.291.516.516,0,1,1,.946-.413,2.79,2.79,0,1,0,4.8-2.774.516.516,0,1,1,.83-.614,3.844,3.844,0,0,1-.372,4.973,3.806,3.806,0,0,1-2.7,1.12Z" fill="#1a1311"/>
      </g>
      <g id="Path_594" data-name="Path 594">
        <path id="Path_1490" data-name="Path 1490" d="M245.035,536.668a3.823,3.823,0,0,1-1.512-7.333l.408.949a2.789,2.789,0,1,0,3.716,3.544l.967.362a3.827,3.827,0,0,1-3.579,2.479Z" fill="#1a1311"/>
      </g>
      <g id="Path_595" data-name="Path 595">
        <path id="Path_1491" data-name="Path 1491" d="M246.594,531.474a3.822,3.822,0,1,1,1.989-7.086l-.538.881a2.788,2.788,0,1,0,.933,3.831c.051-.085.1-.172.141-.262l.935.439a3.825,3.825,0,0,1-3.46,2.2Zm6.965-7.544a.516.516,0,0,1-.4-.839,9.658,9.658,0,0,1,.728-.812,9.779,9.779,0,0,1,2.716-1.922.516.516,0,0,1,.444.932,8.736,8.736,0,0,0-2.43,1.72,8.494,8.494,0,0,0-.652.728.518.518,0,0,1-.4.194Z" fill="#1a1311"/>
      </g>
      <g id="Path_596" data-name="Path 596">
        <path id="Path_1492" data-name="Path 1492" d="M253.293,523.665a.516.516,0,0,1-.517-.515.5.5,0,0,1,.026-.162,4.477,4.477,0,0,0-2.46-5.495,4.492,4.492,0,0,0-.261,1.888.516.516,0,0,1-1.029.08,5.528,5.528,0,0,1,.546-2.851.513.513,0,0,1,.622-.265,5.509,5.509,0,0,1,3.579,6.92l-.014.044a.518.518,0,0,1-.491.356Z" fill="#1a1311"/>
      </g>
      <g id="Path_597" data-name="Path 597">
        <path id="Path_1493" data-name="Path 1493" d="M257.933,527.937c-.142,0-.282-.006-.422-.016a.516.516,0,1,1,.08-1.029h0a4.513,4.513,0,0,0,1.888-.261,4.475,4.475,0,0,0-5.5-2.46.516.516,0,0,1-.321-.981,5.507,5.507,0,0,1,6.949,3.521l.015.044a.518.518,0,0,1-.265.622,5.626,5.626,0,0,1-1.354.456,5.549,5.549,0,0,1-1.075.106Zm.953-5.261a.512.512,0,0,1-.215-.047,6.748,6.748,0,0,1-3.532-3.865.516.516,0,1,1,.973-.344,5.714,5.714,0,0,0,2.989,3.271.516.516,0,0,1-.215.985Z" fill="#1a1311"/>
      </g>
    </g>
  </g>
</svg>
