<svg xmlns="http://www.w3.org/2000/svg" width="18.68" height="18.624" viewBox="0 0 18.68 18.624">
  <g id="Group_1607" data-name="Group 1607" transform="translate(-241.593 -585.964)">
    <path id="Path_1494" data-name="Path 1494" d="M259.684,586.666a2.338,2.338,0,0,0-1.676-.7h-.022l-6.366.22h-.02a2.331,2.331,0,0,0-1.66.7l-7.733,7.735a2.523,2.523,0,0,0,.023,3.325l5.958,5.958a2.539,2.539,0,0,0,1.648.688h.033a2.867,2.867,0,0,0,1.77-.7l7.721-7.722a2.531,2.531,0,0,0,.686-1.647l.219-6.143A2.277,2.277,0,0,0,259.684,586.666Zm-.637,7.821a1.526,1.526,0,0,1-.4.986l-7.68,7.682a1.834,1.834,0,0,1-1.107.432,1.528,1.528,0,0,1-.97-.4l-5.925-5.923a1.51,1.51,0,0,1-.023-1.961l7.715-7.715a1.344,1.344,0,0,1,.969-.4h.011l6.376-.219a1.413,1.413,0,0,1,.945.384,1.279,1.279,0,0,1,.314.97Z" fill="#1a1311"/>
    <path id="Path_1495" data-name="Path 1495" d="M253.985,589.5a2.54,2.54,0,1,0,2.539,2.541A2.543,2.543,0,0,0,253.985,589.5Zm0,3.88a1.34,1.34,0,1,1,1.34-1.339A1.341,1.341,0,0,1,253.985,593.38Z" fill="#1a1311"/>
  </g>
</svg>
