<svg xmlns="http://www.w3.org/2000/svg" width="17.413" height="16.34" viewBox="0 0 17.413 16.34">
  <g id="Group_1614" data-name="Group 1614" transform="translate(-242.227 -552.715)">
    <path id="Path_1501" data-name="Path 1501" d="M247.737,556.3a.56.56,0,0,0,.559-.56v-2.467a.56.56,0,1,0-1.119,0v2.467A.56.56,0,0,0,247.737,556.3Z" fill="#1a1311"/>
    <path id="Path_1502" data-name="Path 1502" d="M254.13,556.3a.56.56,0,0,0,.56-.56v-2.467a.56.56,0,1,0-1.12,0v2.467A.56.56,0,0,0,254.13,556.3Z" fill="#1a1311"/>
    <rect id="Rectangle_2101" data-name="Rectangle 2101" width="3.035" height="1.119" transform="translate(249.416 553.949)" fill="#1a1311"/>
    <path id="Path_1503" data-name="Path 1503" d="M259.635,555.995a2.088,2.088,0,0,0-1.823-2.05l-2,0v1.12H257.8a.864.864,0,0,1,.794.859v2.649H243.323v-2.65a.863.863,0,0,1,.784-.859h1.95v-1.119h-1.878a2.157,2.157,0,0,0-1.952,2.058v10.923a2.209,2.209,0,0,0,1.963,2.126l13.722,0a2.026,2.026,0,0,0,1.724-2.128Zm-1.081,10.727,0,.121c0,.541-.254,1.089-.738,1.089h-13.6a1.063,1.063,0,0,1-.863-1.007l.045-7.131h15.2Z" fill="#1a1311"/>
  </g>
</svg>
