<svg xmlns="http://www.w3.org/2000/svg" width="13.147" height="15.981" viewBox="0 0 13.147 15.981">
  <g id="Group_1608" data-name="Group 1608" transform="translate(-244.359 -449.722)">
    <path id="Path_1496" data-name="Path 1496" d="M251.019,449.722h-.088a6.573,6.573,0,0,0-6.571,6.488q0,.086,0,.171a6.557,6.557,0,0,0,1.674,4.422l4.9,4.9,4.9-4.9a6.667,6.667,0,0,0-4.814-11.081Zm4.086,10.394-4.171,4.173-4.173-4.173a5.565,5.565,0,0,1-1.4-3.748v-.145a5.594,5.594,0,0,1,5.571-5.5h.075a5.666,5.666,0,0,1,4.1,9.394Z" fill="#1a1311"/>
    <path id="Path_1497" data-name="Path 1497" d="M250.665,453.2a2.758,2.758,0,0,0,.263,5.5c.09,0,.181,0,.273-.013a2.758,2.758,0,1,0-.536-5.49Zm1.626,3.862a1.758,1.758,0,1,1-1.529-2.866,1.663,1.663,0,0,1,.172-.009,1.758,1.758,0,0,1,1.357,2.875Z" fill="#1a1311"/>
  </g>
</svg>
