<svg xmlns="http://www.w3.org/2000/svg" viewBox="0 0 18.21 18.21"><defs><style>.cls-1{fill:#1a1311;}</style></defs><title>fm-wine</title><g id="圖層_2" data-name="圖層 2"><g id="圖層_1-2" data-name="圖層 1"><path class="cls-1" d="M16.19,4.38a.67.67,0,0,1-.27-.52V.41A.41.41,0,0,0,15.51,0H13.7a.41.41,0,0,0-.41.41V3.86a.64.64,0,0,1-.27.52,4.87,4.87,0,0,0-2,3.93v.13l-.08-.17a8.42,8.42,0,0,1-.83-3.62V.79A.78.78,0,0,0,9.31,0H7.89A.79.79,0,0,0,7.1.79V4.65a8.37,8.37,0,0,1-.82,3.62.89.89,0,0,0-.08.17v-1a3.4,3.4,0,0,0-1.8-3v-4A.42.42,0,0,0,4,0H2.21A.41.41,0,0,0,1.8.41v4A3.4,3.4,0,0,0,0,7.4V17.8a.41.41,0,0,0,.41.41H5.78A.41.41,0,0,0,6,18.13a1.26,1.26,0,0,0,.43.08h4.29a1,1,0,0,0,.56-.16.7.7,0,0,0,.46.16h5.67a.76.76,0,0,0,.77-.77V8.31A4.84,4.84,0,0,0,16.19,4.38Zm-2.07-3V.83h1v.52Zm0,2.18V2.18h1V3.53ZM14,4.36h1.16a1.43,1.43,0,0,0,.52.69,4,4,0,0,1,1.67,3.26v9.07H11.83V8.31A4,4,0,0,1,13.5,5.05,1.52,1.52,0,0,0,14,4.36Zm-3,7.89v4.88a.25.25,0,0,1-.25.25H6.46a.25.25,0,0,1-.26-.25V12.24A8.44,8.44,0,0,1,7,8.62a8.67,8.67,0,0,0,.65-1.81H9.53a8.56,8.56,0,0,0,.65,1.82A8.37,8.37,0,0,1,11,12.25ZM7.93,1.7V.83H9.27V1.7Zm0,3V2.53H9.27V4.65A8.73,8.73,0,0,0,9.37,6H7.83A10.2,10.2,0,0,0,7.93,4.65ZM5.37,15.38v2H.83v-2ZM2.62,3V.83h.95V3ZM2.38,5h0a.4.4,0,0,0,.24-.38V3.81h.95v.85A.41.41,0,0,0,3.82,5,2.58,2.58,0,0,1,5.37,7.4V8.69H3.45a.42.42,0,1,0,0,.83H5.37v5H.83V7.4A2.57,2.57,0,0,1,2.38,5Z"/><path class="cls-1" d="M1.74,9.11a.47.47,0,0,0,.12.29.47.47,0,0,0,.3.12.47.47,0,0,0,.29-.12.42.42,0,0,0,0-.59.44.44,0,0,0-.59,0A.47.47,0,0,0,1.74,9.11Z"/><path class="cls-1" d="M3.1,13.43A1.39,1.39,0,1,0,1.71,12,1.39,1.39,0,0,0,3.1,13.43ZM2.54,12a.56.56,0,1,1,.56.56A.56.56,0,0,1,2.54,12Z"/><path class="cls-1" d="M16,11.58a.45.45,0,0,0-.12.29.43.43,0,0,0,.12.29.42.42,0,0,0,.29.12.41.41,0,0,0,.42-.41.45.45,0,0,0-.12-.29A.43.43,0,0,0,16,11.58Z"/><path class="cls-1" d="M12.49,9.46v4.95a.41.41,0,0,0,.41.41h3.41a.42.42,0,0,0,.42-.41V13.24a.42.42,0,0,0-.83,0V14H13.31V9.87H15.9v.58a.42.42,0,1,0,.83,0v-1a.41.41,0,0,0-.42-.41H12.9A.41.41,0,0,0,12.49,9.46Z"/><path class="cls-1" d="M7.2,11.8a.41.41,0,0,0-.41.41v3.68a.41.41,0,0,0,.41.41H10a.41.41,0,0,0,.42-.41V12.21A.42.42,0,0,0,10,11.8Zm2.39.83v2.85h-2V12.63Z"/></g></g></svg>