<?xml version="1.0" encoding="utf-8"?>
<!-- Generator: Adobe Illustrator 22.1.0, SVG Export Plug-In . SVG Version: 6.00 Build 0)  -->
<svg version="1.1" id="圖層_1" xmlns="http://www.w3.org/2000/svg" xmlns:xlink="http://www.w3.org/1999/xlink" x="0px" y="0px"
	 viewBox="0 0 480 480" style="enable-background:new 0 0 480 480;" xml:space="preserve">
<style type="text/css">
	.st0{fill:#333333;}
</style>
<path class="st0" d="M240,0C107.4,0,0,107.4,0,240s107.4,240,240,240s240-107.4,240-240S372.6,0,240,0z M319.6,346.1
	c-3.8,3.8-7.7,7.7-10.9,10.9c-2.9,2.9-4.9,6.5-6,10.4c-1.5,5.5-2.6,11-4.6,16.3L281.3,429c-13.3,2.9-27.1,4.5-41.3,4.5v-26.5
	c1.6-12.2-7.4-35.1-21.9-49.6c-5.8-5.8-9.1-13.7-9.1-21.9v-31c0-11.3-6.1-21.6-15.9-27.1c-13.9-7.7-33.7-18.4-47.2-25.3
	c-11.1-5.6-21.4-12.7-30.6-21l-0.8-0.7c-6.6-6-12.5-12.7-17.5-20.1c-9.1-13.3-23.9-35.2-33.5-49.5c19.8-44,55.5-79.4,99.9-98.6
	L186.6,74c10.3,5.1,22.4-2.3,22.4-13.8V49.2c7.7-1.2,15.6-2,23.6-2.3L260,74.2c6,6,6,15.9,0,21.9l-4.5,4.5l-10,10c-3,3-3,7.9,0,10.9
	l4.5,4.5c3,3,3,7.9,0,10.9l-7.7,7.7c-1.5,1.5-3.4,2.3-5.5,2.3h-8.7c-2,0-3.9,0.8-5.4,2.2l-9.6,9.3c-2.4,2.4-3,6-1.5,9l15.1,30.2
	c2.6,5.1-1.2,11.2-6.9,11.2h-5.5c-1.9,0-3.7-0.7-5.1-1.9l-9-7.8c-4.1-3.6-9.9-4.7-15-3L155,206.4c-4.7,1.6-7.9,6-7.9,11
	c0,4.4,2.5,8.4,6.4,10.3l10.7,5.4c9.1,4.6,19.2,6.9,29.3,6.9s21.9,26.4,31,31h64.6c8.2,0,16.1,3.3,21.9,9.1l13.2,13.2
	c5.5,5.5,8.6,13,8.6,20.9C332.9,326.1,328.1,337.6,319.6,346.1z M403.5,257.7c-5.6-1.4-10.5-4.8-13.7-9.6l-17.4-26.1
	c-5.2-7.8-5.2-18,0-25.8l19-28.4c2.2-3.4,5.3-6.1,8.9-7.9l12.6-6.3c13.1,26.1,20.6,55.4,20.6,86.4c0,8.4-0.7,16.6-1.8,24.7
	L403.5,257.7z"/>
</svg>
