<svg xmlns="http://www.w3.org/2000/svg" viewBox="0 0 35 35"><defs><style>.a{fill:#90004c;}</style></defs><path class="a" d="M43,25.465A17.5,17.5,0,0,1,14.52,39.126a1.688,1.688,0,0,1-.127-2.512l.8-.8a1.7,1.7,0,0,1,2.251-.141,12.978,12.978,0,1,0-.84-19.638l3.585,3.585a1.128,1.128,0,0,1-.8,1.926H9.129A1.132,1.132,0,0,1,8,20.419V10.159a1.127,1.127,0,0,1,1.926-.8l3.486,3.486A17.5,17.5,0,0,1,43,25.465Zm-12.765,5.56.692-.889a1.7,1.7,0,0,0-.3-2.378l-2.872-2.237v-7.36a1.689,1.689,0,0,0-1.694-1.694H24.935a1.689,1.689,0,0,0-1.694,1.694v9.576l4.615,3.592A1.7,1.7,0,0,0,30.235,31.025Z" transform="translate(-8 -8)"/></svg>