<?xml version="1.0" standalone="no"?><!DOCTYPE svg PUBLIC "-//W3C//DTD SVG 1.1//EN" "http://www.w3.org/Graphics/SVG/1.1/DTD/svg11.dtd"><svg t="1592427877661" class="icon" viewBox="0 0 1024 1024" version="1.1" xmlns="http://www.w3.org/2000/svg" p-id="5927" xmlns:xlink="http://www.w3.org/1999/xlink" width="200" height="200"><defs><style type="text/css"></style></defs><path d="M665.6 371.2a294.4 294.4 0 1 1 0 588.8 294.4 294.4 0 0 1 0-588.8z m-358.4 460.8a38.4 38.4 0 0 1 5.2224 76.4416L307.2 908.8H153.6a38.4 38.4 0 0 1-5.2224-76.4416L153.6 832h153.6z m358.4-384a217.6 217.6 0 1 0 0 435.2 217.6 217.6 0 0 0 0-435.2z m0 25.6a38.4 38.4 0 0 1 38.0416 33.1776l0.3584 5.2224v115.2H768a38.4 38.4 0 0 1 5.2224 76.4416L768 704h-102.4a38.4 38.4 0 0 1-38.0416-33.1776L627.2 665.6v-153.6a38.4 38.4 0 0 1 38.4-38.4z m-358.4 0a38.4 38.4 0 0 1 5.2224 76.4416L307.2 550.4H153.6a38.4 38.4 0 0 1-5.2224-76.4416L153.6 473.6h153.6z m563.2-358.4a38.4 38.4 0 0 1 5.2224 76.4416L870.4 192H153.6a38.4 38.4 0 0 1-5.2224-76.4416L153.6 115.2h716.8z" fill="#2c2c2c" p-id="5928"></path></svg>