<?xml version="1.0" encoding="utf-8"?>
<!-- Generator: Adobe Illustrator 24.0.3, SVG Export Plug-In . SVG Version: 6.00 Build 0)  -->
<svg version="1.1" id="圖層_1" xmlns="http://www.w3.org/2000/svg" xmlns:xlink="http://www.w3.org/1999/xlink" x="0px" y="0px"
	 viewBox="0 0 200 200" style="enable-background:new 0 0 200 200;" xml:space="preserve">
<style type="text/css">
	.st0{fill:#515151;}
</style>
<path class="st0" d="M71.4,92.9h57.1V71.4c0-7.9-2.8-14.6-8.4-20.2s-12.3-8.4-20.2-8.4c-7.9,0-14.6,2.8-20.2,8.4
	c-5.6,5.6-8.4,12.3-8.4,20.2C71.4,71.4,71.4,92.9,71.4,92.9z M164.3,103.6v64.3c0,3-1,5.5-3.1,7.6c-2.1,2.1-4.6,3.1-7.6,3.1H46.4
	c-3,0-5.5-1-7.6-3.1c-2.1-2.1-3.1-4.6-3.1-7.6v-64.3c0-3,1-5.5,3.1-7.6c2.1-2.1,4.6-3.1,7.6-3.1H50V71.4c0-13.7,4.9-25.4,14.7-35.3
	S86.3,21.4,100,21.4s25.4,4.9,35.3,14.7S150,57.7,150,71.4v21.4h3.6c3,0,5.5,1,7.6,3.1C163.2,98.1,164.3,100.6,164.3,103.6z"/>
</svg>
