<?xml version="1.0" encoding="utf-8"?>
<!-- Generator: Adobe Illustrator 24.0.3, SVG Export Plug-In . SVG Version: 6.00 Build 0)  -->
<svg version="1.1" id="圖層_1" xmlns="http://www.w3.org/2000/svg" xmlns:xlink="http://www.w3.org/1999/xlink" x="0px" y="0px"
	 viewBox="0 0 200 200" style="enable-background:new 0 0 200 200;" xml:space="preserve">
<style type="text/css">
	.st0{fill:#515151;}
</style>
<g>
	<path class="st0" d="M123,180H25.9c-1.7,0-3.1-1.4-3.1-3.1V23.1c0-1.7,1.4-3.1,3.1-3.1h112c1.7,0,3.1,1.4,3.1,3.1v11.2
		c6-4.1,12.8-6.7,20.1-7.6v-3.6C161,10.3,150.7,0,137.9,0h-112c-12.7,0-23,10.3-23,23.1v153.8C2.9,189.7,13.2,200,26,200h110.7
		c-0.7-0.6-1.4-1.2-2.1-1.9C129.3,192.9,125.3,186.8,123,180z"/>
	<path class="st0" d="M166.9,134.5c-7.4,0-14.5,2.7-20.1,7.7l-34-19.6c1.1-4,1.3-8.2,0.6-12.5l30.4-17.5
		c5.8,6.9,14.1,10.8,23.1,10.8c16.7,0,30.2-13.5,30.2-30.2S183.6,42.9,167,42.9c-0.1,0-0.1,0-0.2,0c-7.9,0-15.4,3.1-21,8.7
		c-5.7,5.7-8.9,13.3-8.9,21.4c0,0.6,0,1.2,0,1.9l-32,18.4c-11.1-11-28.8-11.8-40.8-1.6c-6.2,5.2-9.9,12.5-10.6,20.5
		c-0.7,8,1.8,15.8,7,22c10.6,12.5,29.3,14.2,42,4l34.9,20.2c-0.4,2.2-0.7,4.3-0.7,6.4c0,16.7,13.5,30.2,30.2,30.2
		c16.5,0,30.1-13.5,30.2-30.2C197.1,148,183.6,134.5,166.9,134.5z M166.9,61.5c6.3,0,11.5,5.2,11.5,11.5s-5.2,11.5-11.5,11.5
		s-11.5-5.2-11.5-11.5S160.6,61.5,166.9,61.5z M83.6,126.2c-6.3,0-11.5-5.2-11.5-11.5s5.2-11.5,11.5-11.5s11.5,5.2,11.5,11.5
		S90,126.2,83.6,126.2z M166.9,176.2c-6.3,0-11.5-5.2-11.5-11.5s5.2-11.5,11.5-11.5s11.5,5.2,11.5,11.5
		C178.4,171.1,173.4,176.2,166.9,176.2z"/>
</g>
</svg>
