<?xml version="1.0" encoding="utf-8"?>
<!-- Generator: Adobe Illustrator 24.0.3, SVG Export Plug-In . SVG Version: 6.00 Build 0)  -->
<svg version="1.1" id="圖層_1" xmlns="http://www.w3.org/2000/svg" xmlns:xlink="http://www.w3.org/1999/xlink" x="0px" y="0px"
	 viewBox="0 0 200 200" style="enable-background:new 0 0 200 200;" xml:space="preserve">
<style type="text/css">
	.st0{fill:#515151;}
</style>
<path class="st0" d="M100,76.9c-16.9,0-30.8,13.8-30.8,30.8s13.8,30.8,30.8,30.8s30.8-13.8,30.8-30.8S116.9,76.9,100,76.9z
	 M176.9,53.8h-20c-5.4,0-10-2.7-13.1-6.9L135,33.5c-2.7-6.5-9.2-10.4-16.2-10.4H81.2c-6.9,0-13.5,3.8-16.5,10.4l-8.8,13.5
	c-2.7,4.2-7.7,6.9-13.1,6.9H23.1c-8.5,0-15.4,6.9-15.4,15.4v92.3c0,8.5,6.9,15.4,15.4,15.4h153.8c8.5,0,15.4-6.9,15.4-15.4V69.2
	C192.3,60.8,185.4,53.8,176.9,53.8z M100,153.8c-25.4,0-46.2-20.8-46.2-46.2S74.6,61.5,100,61.5s46.2,20.8,46.2,46.2
	S125.4,153.8,100,153.8z"/>
</svg>
