<?xml version="1.0" standalone="no"?><!DOCTYPE svg PUBLIC "-//W3C//DTD SVG 1.1//EN" "http://www.w3.org/Graphics/SVG/1.1/DTD/svg11.dtd"><svg t="1582081922923" class="icon" viewBox="0 0 1024 1024" version="1.1" xmlns="http://www.w3.org/2000/svg" p-id="32290" xmlns:xlink="http://www.w3.org/1999/xlink" width="200" height="200"><defs><style type="text/css"></style></defs><path d="M896 256h-85.333333v85.333333h42.666666v341.333334h-42.666666v85.333333h85.333333a42.666667 42.666667 0 0 0 42.666667-42.666667V298.666667a42.666667 42.666667 0 0 0-42.666667-42.666667zM128 768h426.666667v-85.333333H170.666667V341.333333h384V256H128a42.666667 42.666667 0 0 0-42.666667 42.666667v426.666666a42.666667 42.666667 0 0 0 42.666667 42.666667z" fill="#515151" p-id="32291"></path><path d="M256 426.666667h298.666667v170.666666H256z" fill="#515151" p-id="32292"></path><path d="M725.333333 257.024C725.888 242.602667 734.72 170.666667 853.333333 170.666667V85.333333c-84.736 0-138.154667 28.586667-170.368 64.469334C650.88 113.92 597.333333 85.333333 512 85.333333v85.333334c119.466667 0 127.573333 71.594667 128 85.333333v511.914667C640 771.413333 638.378667 853.333333 512 853.333333v85.333334c85.461333 0 138.965333-28.714667 171.093333-64.725334 2.090667 2.346667 3.797333 4.736 6.101334 7.04C727.338667 919.296 782.592 938.666667 853.333333 938.666667v-85.333334c-119.594667 0-127.616-71.509333-128-85.248V257.024z" fill="#515151" p-id="32293"></path></svg>