<?xml version="1.0" encoding="utf-8"?>
<!-- Generator: Adobe Illustrator 24.1.0, SVG Export Plug-In . SVG Version: 6.00 Build 0)  -->
<svg version="1.1" id="圖層_1" xmlns="http://www.w3.org/2000/svg" xmlns:xlink="http://www.w3.org/1999/xlink" x="0px" y="0px"
	 viewBox="0 0 200 200" style="enable-background:new 0 0 200 200;" xml:space="preserve">
<style type="text/css">
	.st0{fill:#E02A47;}
	.st1{fill:#4FB130;}
</style>
<path class="st0" d="M138.3,96L83.5,61.3c-5.3-3.4-9.7-1-9.7,5.3v68.7c0,6.2,4.4,8.8,9.9,5.5l54.5-32.7l0,0
	C143.6,104.8,143.6,99.4,138.3,96L138.3,96z M77.3,71L77.3,71C77.4,71,77.4,71,77.3,71L77.3,71z"/>
<path class="st0" d="M34.5,154.7L34.5,154.7c1.4,1.7,3.5,2.8,5.9,2.8c4.1,0,7.5-3.3,7.5-7.5c0-2-0.8-3.8-2-5.1l0,0
	c-10.1-12.2-16.2-27.8-16.2-44.9c0-38.9,31.5-70.4,70.4-70.4s70.4,31.5,70.4,70.4s-31.5,70.4-70.4,70.4l0,0c-0.2,0-0.4,0-0.7,0
	c-4.1,0-7.5,3.3-7.5,7.5c0,3.9,2.9,7,6.7,7.4l0,0h1.4c47.1,0,85.3-38.2,85.3-85.3S147.1,14.7,100,14.7S14.7,52.9,14.7,100
	C14.7,120.8,22.1,139.9,34.5,154.7z"/>
<rect x="-234.6" y="-54.8" class="st1" width="83.9" height="83.9"/>
<rect x="-105.9" y="-54.8" class="st0" width="83.9" height="83.9"/>
</svg>
