<?xml version="1.0" standalone="no"?><!DOCTYPE svg PUBLIC "-//W3C//DTD SVG 1.1//EN" "http://www.w3.org/Graphics/SVG/1.1/DTD/svg11.dtd"><svg t="1582646922334" class="icon" viewBox="0 0 1024 1024" version="1.1" xmlns="http://www.w3.org/2000/svg" p-id="4554" xmlns:xlink="http://www.w3.org/1999/xlink" width="200" height="200"><defs><style type="text/css"></style></defs><path d="M512 928c-229.76 0-416-186.24-416-416s186.24-416 416-416 416 186.24 416 416-186.24 416-416 416zM702.752 390.688c7.808-7.808 7.808-20.512 0-28.32l-42.496-42.464c-7.808-7.808-20.512-7.808-28.32 0l-120.352 120.352-120.352-120.352c-7.808-7.808-20.512-7.808-28.32 0l-42.496 42.464c-7.808 7.808-7.808 20.512 0 28.32l120.384 120.384-120.384 120.32c-7.808 7.808-7.808 20.512 0 28.32l42.496 42.496c7.808 7.808 20.512 7.808 28.32 0l120.352-120.384 120.352 120.384c7.808 7.808 20.512 7.808 28.32 0l42.496-42.496c7.808-7.808 7.808-20.512 0-28.32l-120.384-120.32 120.384-120.384z" p-id="4555" fill="#515151"></path></svg>