<?xml version="1.0" encoding="utf-8"?>
<!-- Generator: Adobe Illustrator 24.1.0, SVG Export Plug-In . SVG Version: 6.00 Build 0)  -->
<svg version="1.1" id="圖層_1" xmlns="http://www.w3.org/2000/svg" xmlns:xlink="http://www.w3.org/1999/xlink" x="0px" y="0px"
	 viewBox="0 0 200 200" style="enable-background:new 0 0 200 200;" xml:space="preserve">
<style type="text/css">
	.st0{fill:#515151;}
</style>
<g>
	<g>
		<path class="st0" d="M47,105.7c0-2.1-0.5-3.2-1.6-3.7c-1.1,0-2.6,0.5-3.7,1.6L6.9,135.8v0c-1.6,1.6-2.6,3.7-2.6,5.3
			s0.5,3.7,2.1,4.7L41.2,178c1.6,1.6,2.6,2.1,3.7,1.6c1.1-0.5,1.6-1.6,1.6-3.7v-21.1h57v-28H47V105.7z"/>
		<rect x="117.7" y="126.8" class="st0" width="14.2" height="28"/>
		<path class="st0" d="M155.8,126.8h-9.6v28h9.6c2.6,0,4.6-2.1,4.6-4.6v-18.7C160.4,128.9,158.3,126.8,155.8,126.8z"/>
	</g>
	<g>
		<path class="st0" d="M153,94.3c0,2.1,0.5,3.2,1.6,3.7c1.1,0,2.6-0.5,3.7-1.6l34.8-32.2v0c1.6-1.6,2.6-3.7,2.6-5.3
			c0-1.6-0.5-3.7-2.1-4.7L158.8,22c-1.6-1.6-2.6-2.1-3.7-1.6c-1.1,0.5-1.6,1.6-1.6,3.7v21.1h-57v28H153V94.3z"/>
		<rect x="68.1" y="45.3" class="st0" width="14.2" height="28"/>
		<path class="st0" d="M44.2,73.2h9.6v-28h-9.6c-2.6,0-4.6,2.1-4.6,4.6v18.7C39.6,71.1,41.7,73.2,44.2,73.2z"/>
	</g>
</g>
</svg>
