<?xml version="1.0" encoding="utf-8"?>
<!-- Generator: Adobe Illustrator 24.0.3, SVG Export Plug-In . SVG Version: 6.00 Build 0)  -->
<svg version="1.1" id="圖層_1" xmlns="http://www.w3.org/2000/svg" xmlns:xlink="http://www.w3.org/1999/xlink" x="0px" y="0px"
	 viewBox="0 0 200 200" style="enable-background:new 0 0 200 200;" xml:space="preserve">
<style type="text/css">
	.st0{fill:#515151;}
</style>
<path class="st0" d="M192.9,71.4V100c0,3.9-3.2,7.1-7.1,7.1h-7.1c-3.9,0-7.1-3.2-7.1-7.1V71.4c0-15.7-12.8-28.6-28.6-28.6
	s-28.6,12.8-28.6,28.6v21.4H125c5.9,0,10.7,4.8,10.7,10.7v64.3c0,5.9-4.8,10.7-10.7,10.7H17.9c-5.9,0-10.7-4.8-10.7-10.7
	c0,0,0,0,0,0v-64.3c0-5.9,4.8-10.7,10.7-10.7h75V71.4c0-27.6,22.4-50,50-50S192.9,43.9,192.9,71.4z"/>
</svg>
