<?xml version="1.0" standalone="no"?><!DOCTYPE svg PUBLIC "-//W3C//DTD SVG 1.1//EN" "http://www.w3.org/Graphics/SVG/1.1/DTD/svg11.dtd"><svg t="1581000981552" class="icon" viewBox="0 0 1024 1024" version="1.1" xmlns="http://www.w3.org/2000/svg" p-id="6151" xmlns:xlink="http://www.w3.org/1999/xlink" width="200" height="200"><defs><style type="text/css"></style></defs><path d="M479.84 493.536l-73.28 73.28a32 32 0 0 1-45.12-45.12l124.8-124.8a31.936 31.936 0 0 1 49.92-1.6l126.4 126.4a32 32 0 0 1-45.44 45.12l-73.28-73.28v146.56a32 32 0 0 1-64 0v-146.56z m213.12 231.68a32 32 0 0 1-22.72-54.72 224 224 0 1 0-316.8 0 32 32 0 0 1-45.12 45.12 288 288 0 1 1 407.36 0 32 32 0 0 1-22.72 9.6z m-181.12 74.88a32 32 0 0 1-32-32v-32a32 32 0 1 1 64 0v32a32 32 0 0 1-32 32z" p-id="6152" fill="#90004c"></path></svg>