<?xml version="1.0" encoding="utf-8"?>
<!-- Generator: Adobe Illustrator 24.0.3, SVG Export Plug-In . SVG Version: 6.00 Build 0)  -->
<svg version="1.1" id="圖層_1" xmlns="http://www.w3.org/2000/svg" xmlns:xlink="http://www.w3.org/1999/xlink" x="0px" y="0px"
	 viewBox="0 0 200 200" style="enable-background:new 0 0 200 200;" xml:space="preserve">
<style type="text/css">
	.st0{fill:#90004C;}
</style>
<g>
	<path class="st0" d="M160.7,3.5H39.3c-15.8,0-27.8,11.9-27.8,27.8v137.5c0,15.8,11.9,27.8,27.8,27.8h121.3
		c15.8,0,27.8-11.9,27.8-27.8V31.3C188.4,15.4,176.5,3.5,160.7,3.5z M173.3,168.7c0,7.5-5.2,12.7-12.7,12.7H39.3
		c-7.5,0-12.7-5.2-12.7-12.7V31.3c0-7.5,5.2-12.7,12.7-12.7h121.3c7.5,0,12.7,5.2,12.7,12.7V168.7z"/>
	<path class="st0" d="M143.4,91.9H87.9c-4.9,0-8.1,3.2-8.1,8.1s3.2,8.1,8.1,8.1h55.6c4.9,0,8.1-3.2,8.1-8.1S148.3,91.9,143.4,91.9z"
		/>
	<path class="st0" d="M113.1,132.4H87.9c-4.9,0-8.1,3.2-8.1,8.1s3.2,8.1,8.1,8.1h25.2c4.9,0,8.1-3.2,8.1-8.1S118,132.4,113.1,132.4z
		"/>
	<path class="st0" d="M87.9,67.6h35.3c4.9,0,8.1-3.2,8.1-8.1c0-4.9-3.2-8.1-8.1-8.1H87.9c-4.9,0-8.1,3.2-8.1,8.1
		C79.8,64.5,83,67.6,87.9,67.6z"/>
	<path class="st0" d="M57.6,51.5c-4.4,0-8.1,3.6-8.1,8.1c0,4.4,3.6,8.1,8.1,8.1c4.4,0,8.1-3.6,8.1-8.1C65.6,55.1,62,51.5,57.6,51.5z
		"/>
	<path class="st0" d="M57.6,91.9c-4.4,0-8.1,3.6-8.1,8.1s3.6,8.1,8.1,8.1c4.4,0,8.1-3.6,8.1-8.1S62,91.9,57.6,91.9z"/>
	<path class="st0" d="M57.6,132.4c-4.4,0-8.1,3.6-8.1,8.1c0,4.4,3.6,8.1,8.1,8.1c4.4,0,8.1-3.6,8.1-8.1
		C65.6,136,62,132.4,57.6,132.4z"/>
</g>
</svg>
