<?xml version="1.0" standalone="no"?><!DOCTYPE svg PUBLIC "-//W3C//DTD SVG 1.1//EN" "http://www.w3.org/Graphics/SVG/1.1/DTD/svg11.dtd"><svg t="1582454495832" class="icon" viewBox="0 0 1024 1024" version="1.1" xmlns="http://www.w3.org/2000/svg" p-id="2786" xmlns:xlink="http://www.w3.org/1999/xlink" width="200" height="200"><defs><style type="text/css"></style></defs><path d="M815.616 1008.128H208.384C122.368 1008.128 56.32 942.08 56.32 856.064V167.936C56.32 81.408 122.368 15.872 208.384 15.872h607.744c86.016 0 152.064 66.048 152.064 152.064v688.64c-0.512 86.016-66.56 151.552-152.576 151.552zM208.384 117.248c-30.208 0-50.688 20.48-50.688 50.688v688.64c0 30.208 20.48 50.688 50.688 50.688h607.744c30.208 0 50.688-20.48 50.688-50.688V167.936c0-30.208-20.48-50.688-50.688-50.688H208.384z" fill="#515151" p-id="2787"></path><path d="M613.376 359.936H461.312c-30.208 0-50.688-20.48-50.688-50.688s20.48-50.688 50.688-50.688h152.064c30.208 0 50.688 20.48 50.688 50.688s-20.48 50.688-50.688 50.688z m101.376 202.752H461.312c-30.208 0-50.688-20.48-50.688-50.688s20.48-50.688 50.688-50.688h252.928c30.208 0 50.688 20.48 50.688 50.688s-19.968 50.688-50.176 50.688z m-152.064 202.24H461.312c-30.208 0-50.688-20.48-50.688-50.688s20.48-50.688 50.688-50.688h101.376c30.208 0 50.688 20.48 50.688 50.688 0 30.72-20.48 50.688-50.688 50.688zM259.072 309.248c0 28.16 22.528 50.688 50.688 50.688s50.688-22.528 50.688-50.688-22.528-50.688-50.688-50.688c-28.16 0.512-50.688 23.04-50.688 50.688zM259.072 512c0 28.16 22.528 50.688 50.688 50.688s50.688-22.528 50.688-50.688-22.528-50.688-50.688-50.688-50.688 22.528-50.688 50.688zM259.072 714.752c0 28.16 22.528 50.688 50.688 50.688s50.688-22.528 50.688-50.688-22.528-50.688-50.688-50.688-50.688 22.528-50.688 50.688z" fill="#515151" p-id="2788"></path></svg>