<svg xmlns="http://www.w3.org/2000/svg" viewBox="0 0 24.7 19"><defs><style>.a{fill:#90004c;}</style></defs><g transform="translate(-106)"><path class="a" d="M106,2.4V4.5h5.3V0h-2.9A2.433,2.433,0,0,0,106,2.4Z"/><rect class="a" width="5.3" height="4.5" transform="translate(106 7.3)"/><path class="a" d="M106,16.6a2.433,2.433,0,0,0,2.4,2.4h2.9V14.5H106Z"/><path class="a" d="M128.3,0H113.8V4.5h16.9V2.4A2.5,2.5,0,0,0,128.3,0Z"/><rect class="a" width="16.9" height="4.5" transform="translate(113.8 7.3)"/><path class="a" d="M113.8,19h14.5a2.433,2.433,0,0,0,2.4-2.4V14.5H113.8V19Z"/></g></svg>