<svg xmlns="http://www.w3.org/2000/svg" viewBox="0 0 24.6 18.841"><defs><style>.a{fill:#90004c;}</style></defs><g transform="translate(0 -0.059)"><path class="a" d="M11.8,4.9h0a.668.668,0,0,0,1,0l3.4-3.6a.764.764,0,0,0,.2-.5.684.684,0,0,0-.7-.7H8.9a.44.44,0,0,0-.5.1.668.668,0,0,0,0,1Z"/><path class="a" d="M12.8,14.1h0a.668.668,0,0,0-1,0L8.4,17.7a.764.764,0,0,0-.2.5.684.684,0,0,0,.7.7h6.8a.764.764,0,0,0,.5-.2.668.668,0,0,0,0-1Z"/><rect class="a" width="24.6" height="2.9" transform="translate(0 8.1)"/></g></svg>