<?xml version="1.0" standalone="no"?><!DOCTYPE svg PUBLIC "-//W3C//DTD SVG 1.1//EN" "http://www.w3.org/Graphics/SVG/1.1/DTD/svg11.dtd"><svg t="1592877963605" class="icon" viewBox="0 0 1024 1024" version="1.1" xmlns="http://www.w3.org/2000/svg" p-id="2081" xmlns:xlink="http://www.w3.org/1999/xlink" width="200" height="200"><defs><style type="text/css"></style></defs><path d="M0 0h1024v1024H0z" fill="#FFFFFF" p-id="2082"></path><path d="M896 928a32 32 0 1 0 64 0h-64zM64 928a32 32 0 1 0 64 0H64z m32-96a32 32 0 1 0 0 64v-64z m832 64a32 32 0 1 0 0-64v64z m-448-32a32 32 0 1 0 64 0h-64z m64-800a32 32 0 1 0-64 0h64z m-128 352a32 32 0 1 0-64 0h64z m-64 128a32 32 0 1 0 64 0h-64z m320-128a32 32 0 1 0-64 0h64z m-64 128a32 32 0 1 0 64 0h-64zM128 96h768V32H128v64z m768 0v832h64V96h-64zM128 928V96H64v832h64zM896 96h64a64 64 0 0 0-64-64v64zM128 32a64 64 0 0 0-64 64h64V32zM96 896h832v-64H96v64z m448-32V64h-64v800h64z m-192-448v128h64v-128h-64z m256 0v128h64v-128h-64z" fill="#000000" p-id="2083"></path></svg>