<svg xmlns="http://www.w3.org/2000/svg" viewBox="0 0 19.08 18.18"><defs><style>.cls-1{fill:#90004c;}</style></defs><title>m-menu-fav</title><g id="圖層_2" data-name="圖層 2"><g id="圖層_1-2" data-name="圖層 1"><path class="cls-1" d="M121-113.73a.3.3,0,0,0,.1-.19.35.35,0,0,0-.29-.4l-6-.87a.36.36,0,0,1-.26-.19l-2.68-5.43a.29.29,0,0,0-.16-.15.28.28,0,0,0-.15,0,.35.35,0,0,0-.32.2l-2.67,5.42a.36.36,0,0,1-.27.19l-6,.87a.38.38,0,0,0-.2.1.37.37,0,0,0,0,.5l4.34,4.22a.34.34,0,0,1,.09.31l-1,6a.35.35,0,0,0,0,.22.34.34,0,0,0,.31.19.32.32,0,0,0,.16,0l5.35-2.82a.53.53,0,0,1,.17,0,.47.47,0,0,1,.16,0l5.35,2.82a.53.53,0,0,0,.17,0h.06a.34.34,0,0,0,.28-.4l-1-6a.35.35,0,0,1,.1-.31ZM115.16-109l.66,3.87-3.47-1.83a1.76,1.76,0,0,0-.81-.2,1.81,1.81,0,0,0-.82.2l-3.47,1.83.66-3.86a1.75,1.75,0,0,0-.5-1.56l-2.8-2.73,3.88-.56a1.76,1.76,0,0,0,1.31-1l1.74-3.52,1.73,3.52a1.76,1.76,0,0,0,1.32,1l3.88.57-2.81,2.74A1.74,1.74,0,0,0,115.16-109Z" transform="translate(-102 121)"/></g></g></svg>