<svg version="1.1" xmlns="http://www.w3.org/2000/svg" viewBox="0 0 117 117"><path fill="black" d="M58.5,0C26.2,0,0,26.2,0,58.5C0,90.8,26.2,117,58.5,117c32.3,0,58.5-26.2,58.5-58.5C117,26.2,90.8,0,58.5,0 M58.5,4.1c30,0,54.4,24.4,54.4,54.4c0,30.1-24.4,54.4-54.4,54.4c-30.1,0-54.4-24.4-54.4-54.4C4.1,28.4,28.4,4.1,58.5,4.1 M84.4,52.3c-3.4,0-6.2,2.8-6.2,6.2c0,3.4,2.8,6.2,6.2,6.2s6.2-2.8,6.2-6.2C90.6,55.1,87.8,52.3,84.4,52.3 M84.4,68.6c-5.6,0-10.2-4.6-10.2-10.2c0-5.6,4.6-10.1,10.2-10.1s10.2,4.6,10.2,10.1C94.5,64.1,90,68.6,84.4,68.6 M58.5,78.1c-3.4,0-6.2,2.8-6.2,6.2c0,3.4,2.8,6.2,6.2,6.2c3.4,0,6.2-2.8,6.2-6.2C64.7,80.9,61.9,78.1,58.5,78.1 M58.5,94.5c-5.6,0-10.2-4.6-10.2-10.2c0-5.6,4.6-10.1,10.2-10.1c5.6,0,10.2,4.6,10.2,10.1C68.7,90,64.1,94.5,58.5,94.5 M58.5,26.4c-3.4,0-6.2,2.8-6.2,6.2c0,3.4,2.8,6.2,6.2,6.2c3.4,0,6.2-2.8,6.2-6.2C64.7,29.2,61.9,26.4,58.5,26.4 M58.5,42.8c-5.6,0-10.1-4.6-10.1-10.2c0-5.6,4.6-10.2,10.1-10.2c5.6,0,10.1,4.6,10.1,10.2C68.6,38.2,64.1,42.8,58.5,42.8 M32.6,52.3c-3.4,0-6.2,2.8-6.2,6.2c0,3.4,2.8,6.2,6.2,6.2c3.4,0,6.2-2.8,6.2-6.2C38.8,55.1,36,52.3,32.6,52.3 M32.6,68.6c-5.6,0-10.1-4.6-10.1-10.2c0-5.6,4.6-10.1,10.1-10.1c5.6,0,10.2,4.6,10.2,10.1C42.8,64.1,38.2,68.6,32.6,68.6 M61.4,58.5l23.1,23.1l-2.9,2.9L58.5,61.4L35.4,84.5l-2.9-2.9l23.1-23.1L32.5,35.4l2.9-2.9l23.1,23.1l23.1-23.1l2.9,2.9L61.4,58.5z"/></svg>