<svg xmlns="http://www.w3.org/2000/svg" width="29.4" height="23.773" viewBox="0 0 29.4 23.773">
  <g id="Group_1655" data-name="Group 1655" transform="translate(-914.394 -268.15)">
    <g id="Path_781" data-name="Path 781">
      <g id="Group_1647" data-name="Group 1647">
        <path id="Path_1527" data-name="Path 1527" d="M921.957,291.924h-.014a4.674,4.674,0,0,1-4.653-4.682l1.4,0a3.269,3.269,0,0,0,3.255,3.277h.011a3.271,3.271,0,0,0,3.268-3.257l1.4-.022A4.682,4.682,0,0,1,921.957,291.924Z" fill="#90004c"/>
      </g>
    </g>
    <g id="Path_782" data-name="Path 782">
      <g id="Group_1648" data-name="Group 1648">
        <path id="Path_1528" data-name="Path 1528" d="M917.991,287.244" fill="#90004c" stroke="#fff" stroke-miterlimit="10" stroke-width="1.4"/>
      </g>
    </g>
    <g id="Path_783" data-name="Path 783">
      <g id="Group_1649" data-name="Group 1649">
        <path id="Path_1529" data-name="Path 1529" d="M925.925,287.244" fill="#90004c" stroke="#fff" stroke-miterlimit="10" stroke-width="1.4"/>
      </g>
    </g>
    <g id="Path_784" data-name="Path 784">
      <g id="Group_1650" data-name="Group 1650">
        <path id="Path_1530" data-name="Path 1530" d="M931.826,287.244" fill="#90004c" stroke="#fff" stroke-miterlimit="10" stroke-width="1.4"/>
      </g>
    </g>
    <g id="Path_785" data-name="Path 785">
      <g id="Group_1651" data-name="Group 1651">
        <path id="Path_1531" data-name="Path 1531" d="M939.76,287.244" fill="#90004c" stroke="#fff" stroke-miterlimit="10" stroke-width="1.4"/>
      </g>
    </g>
    <g id="Path_786" data-name="Path 786">
      <g id="Group_1652" data-name="Group 1652">
        <path id="Path_1532" data-name="Path 1532" d="M935.792,291.9a4.667,4.667,0,0,1-4.667-4.652l1.4,0a3.264,3.264,0,0,0,3.266,3.256h.011a3.275,3.275,0,0,0,3.257-3.256l1.4,0a4.68,4.68,0,0,1-4.653,4.652Z" fill="#90004c"/>
      </g>
    </g>
    <g id="Rectangle_1145" data-name="Rectangle 1145">
      <g id="Group_1653" data-name="Group 1653">
        <path id="Path_1533" data-name="Path 1533" d="M941.793,287.263H922.91V270.151a2,2,0,0,1,2-2h16.883a2,2,0,0,1,2,2v15.112A2,2,0,0,1,941.793,287.263Zm-17.482-1.4h17.482a.6.6,0,0,0,.6-.6V270.151a.6.6,0,0,0-.6-.6H924.91a.6.6,0,0,0-.6.6Z" fill="#90004c"/>
      </g>
    </g>
    <g id="Path_787" data-name="Path 787">
      <g id="Group_1654" data-name="Group 1654">
        <path id="Path_1534" data-name="Path 1534" d="M924.311,287.268h-7.867a2.053,2.053,0,0,1-2.05-2.051v-7.54l4.821-4.629a3,3,0,0,1,2.109-.859h2.987Zm-8.517-8.995v6.944a.651.651,0,0,0,.65.651h6.466V273.589h-1.586a1.612,1.612,0,0,0-1.134.464Z" fill="#90004c"/>
      </g>
    </g>
  </g>
</svg>
