<svg xmlns="http://www.w3.org/2000/svg" width="23.058" height="23.059" viewBox="0 0 23.058 23.059">
  <g id="Group_1627" data-name="Group 1627" transform="translate(-674.273 -268.508)">
    <g id="Line_371" data-name="Line 371">
      <g id="Group_1617" data-name="Group 1617">
        <path id="Path_1508" data-name="Path 1508" d="M693.8,288.773a.7.7,0,0,1-.495-.206L677.237,272.5a.7.7,0,1,1,.99-.991L694.3,287.577a.7.7,0,0,1-.495,1.2Z" fill="#90004c"/>
      </g>
    </g>
    <g id="Line_372" data-name="Line 372">
      <g id="Group_1618" data-name="Group 1618">
        <path id="Path_1509" data-name="Path 1509" d="M677.732,288.773a.7.7,0,0,1-.495-1.2l16.071-16.071a.7.7,0,1,1,.99.991l-16.071,16.07A.7.7,0,0,1,677.732,288.773Z" fill="#90004c"/>
      </g>
    </g>
    <g id="Group_1620" data-name="Group 1620">
      <g id="Group_1619" data-name="Group 1619">
        <path id="Path_1510" data-name="Path 1510" d="M693.837,283.531a3.494,3.494,0,1,1,3.494-3.494A3.5,3.5,0,0,1,693.837,283.531Zm0-5.588a2.094,2.094,0,1,0,2.094,2.094A2.1,2.1,0,0,0,693.837,277.943Z" fill="#90004c"/>
      </g>
    </g>
    <g id="Group_1622" data-name="Group 1622">
      <g id="Group_1621" data-name="Group 1621">
        <path id="Path_1511" data-name="Path 1511" d="M677.767,283.531a3.494,3.494,0,1,1,3.494-3.494A3.5,3.5,0,0,1,677.767,283.531Zm0-5.588a2.094,2.094,0,1,0,2.094,2.094A2.1,2.1,0,0,0,677.767,277.943Z" fill="#90004c"/>
      </g>
    </g>
    <g id="Group_1624" data-name="Group 1624">
      <g id="Group_1623" data-name="Group 1623">
        <path id="Path_1512" data-name="Path 1512" d="M685.767,291.567a3.494,3.494,0,1,1,3.494-3.495A3.5,3.5,0,0,1,685.767,291.567Zm0-5.588a2.093,2.093,0,1,0,2.094,2.093A2.1,2.1,0,0,0,685.767,285.979Z" fill="#90004c"/>
      </g>
    </g>
    <g id="Group_1626" data-name="Group 1626">
      <g id="Group_1625" data-name="Group 1625">
        <path id="Path_1513" data-name="Path 1513" d="M685.767,275.5A3.494,3.494,0,1,1,689.261,272,3.5,3.5,0,0,1,685.767,275.5Zm0-5.588A2.094,2.094,0,1,0,687.861,272,2.1,2.1,0,0,0,685.767,269.908Z" fill="#90004c"/>
      </g>
    </g>
  </g>
</svg>
