<svg xmlns="http://www.w3.org/2000/svg" width="26.409" height="26.031" viewBox="0 0 26.409 26.031">
  <g id="Group_1661" data-name="Group 1661" transform="translate(-713.146 -267.021)">
    <path id="Path_1539" data-name="Path 1539" d="M717.509,273.222h12.209a.7.7,0,0,0,0-1.4H717.509a.7.7,0,0,0,0,1.4Z" fill="#90004c"/>
    <path id="Path_1540" data-name="Path 1540" d="M717.509,277.621h12.209a.7.7,0,0,0,0-1.4H717.509a.7.7,0,0,0,0,1.4Z" fill="#90004c"/>
    <path id="Path_1541" data-name="Path 1541" d="M723.614,280.619h-6.105a.7.7,0,0,0,0,1.4h6.105a.7.7,0,0,0,0-1.4Z" fill="#90004c"/>
    <path id="Path_1542" data-name="Path 1542" d="M739.485,284.26l-.022-.084-.032-.08a2.192,2.192,0,0,0-1.821-1.364l-1.464-.212v-13.5a2,2,0,0,0-2-2h-19a2,2,0,0,0-2,2v19a2,2,0,0,0,2,2h11.907l-.073.427a2.184,2.184,0,0,0,.742,2.163l.065.053.07.045a2.176,2.176,0,0,0,2.282.039l2.1-1.106,2.141,1.127a2.337,2.337,0,0,0,1.076.282h.05a2.052,2.052,0,0,0,1.192-.379l.042-.029.039-.032a2.185,2.185,0,0,0,.743-2.164l-.4-2.345,1.7-1.656A2.186,2.186,0,0,0,739.485,284.26Zm-24.339,4.362a.6.6,0,0,1-.6-.6v-19a.6.6,0,0,1,.6-.6h19a.6.6,0,0,1,.6.6V281.36l-.542-1.1a2.179,2.179,0,0,0-1.871-1.313l-.082-.005-.082.005a2.182,2.182,0,0,0-1.871,1.312l-1.051,2.13-2.355.342a2.186,2.186,0,0,0-1.825,1.367l-.03.076-.021.08a2.174,2.174,0,0,0,.673,2.2l1.694,1.652-.089.518Zm22.726-3.207-1.862,1.816a1.235,1.235,0,0,0-.3.936l.441,2.564a.781.781,0,0,1-.259.8.672.672,0,0,1-.385.122h-.023a.964.964,0,0,1-.451-.122l-2.3-1.21a1.24,1.24,0,0,0-.985,0l-2.3,1.21a.713.713,0,0,1-1.1-.8l.441-2.564a1.243,1.243,0,0,0-.3-.936l-1.862-1.816a.712.712,0,0,1,.417-1.291l2.575-.373a1.247,1.247,0,0,0,.8-.58l1.151-2.332a.711.711,0,0,1,1.354,0l1.149,2.332a1.247,1.247,0,0,0,.8.58l2.575.373a.713.713,0,0,1,.42,1.291Z" fill="#90004c"/>
  </g>
</svg>
