<svg xmlns="http://www.w3.org/2000/svg" width="24.426" height="23.633" viewBox="0 0 24.426 23.633">
  <g id="Group_1660" data-name="Group 1660" transform="translate(-957.43 -268.221)">
    <g id="Path_206" data-name="Path 206">
      <g id="Group_1656" data-name="Group 1656">
        <path id="Path_1535" data-name="Path 1535" d="M969.655,284.877a4.809,4.809,0,0,0,4.794-4.825V280a4.865,4.865,0,0,0-4.794-4.878,4.811,4.811,0,0,0-4.8,4.826V280A4.864,4.864,0,0,0,969.655,284.877Zm0-1.346A3.532,3.532,0,1,1,973.187,280,3.532,3.532,0,0,1,969.655,283.531Z" fill="#90004c"/>
      </g>
      <g id="Group_1657" data-name="Group 1657">
        <path id="Path_1536" data-name="Path 1536" d="M969.655,284.978h0A4.982,4.982,0,0,1,964.761,280v-.052a4.915,4.915,0,0,1,4.894-4.926A4.98,4.98,0,0,1,974.548,280c0,.014,0,.033,0,.053A4.915,4.915,0,0,1,969.655,284.978Zm0-9.757a4.717,4.717,0,0,0-4.694,4.725V280a4.783,4.783,0,0,0,4.7,4.778,4.71,4.71,0,0,0,4.694-4.725c0-.016,0-.032,0-.048A4.783,4.783,0,0,0,969.654,275.221Zm0,8.41h0A3.632,3.632,0,1,1,973.287,280,3.636,3.636,0,0,1,969.655,283.631Zm0-7.064A3.432,3.432,0,1,0,973.087,280,3.437,3.437,0,0,0,969.655,276.567Z" fill="#90004c"/>
      </g>
    </g>
    <g id="Path_207" data-name="Path 207">
      <g id="Group_1658" data-name="Group 1658">
        <path id="Path_1537" data-name="Path 1537" d="M962.743,288.7a11.882,11.882,0,0,0,2.944,1.766,5.9,5.9,0,0,1,3.953-1.6,5.752,5.752,0,0,1,3.953,1.6,9.462,9.462,0,0,0,2.943-1.766,6.367,6.367,0,0,1,.589-4.289,5.945,5.945,0,0,1,3.364-2.691,9.368,9.368,0,0,0,0-3.532,5.945,5.945,0,0,1-3.364-2.691,5.854,5.854,0,0,1-.589-4.289,11.926,11.926,0,0,0-2.943-1.766,5.743,5.743,0,0,1-3.953,1.6,5.9,5.9,0,0,1-3.953-1.6,9.475,9.475,0,0,0-2.944,1.766,6.366,6.366,0,0,1-.589,4.289,5.948,5.948,0,0,1-3.364,2.691,9.368,9.368,0,0,0,0,3.532,5.944,5.944,0,0,1,3.365,2.693,6.367,6.367,0,0,1,.589,4.289m2.944,3.028a11.226,11.226,0,0,1-3.953-2.355.555.555,0,0,1-.168-.589,4.391,4.391,0,0,0-.421-3.7A4.306,4.306,0,0,0,958.2,282.9a.533.533,0,0,1-.421-.5,11.229,11.229,0,0,1-.252-2.355,11.8,11.8,0,0,1,.252-2.355.861.861,0,0,1,.421-.5,4.626,4.626,0,0,0,2.946-2.2,4.759,4.759,0,0,0,.421-3.7.483.483,0,0,1,.168-.589,14.516,14.516,0,0,1,3.953-2.355.52.52,0,0,1,.589.168,4.8,4.8,0,0,0,3.364,1.514,4.355,4.355,0,0,0,3.36-1.517.559.559,0,0,1,.589-.168,11.244,11.244,0,0,1,3.956,2.357.56.56,0,0,1,.168.589,4.39,4.39,0,0,0,.421,3.7,4.3,4.3,0,0,0,2.944,2.187.534.534,0,0,1,.421.5,11.236,11.236,0,0,1,.252,2.355,11.863,11.863,0,0,1-.252,2.355.858.858,0,0,1-.421.5,4.629,4.629,0,0,0-2.944,2.187,4.76,4.76,0,0,0-.421,3.7.481.481,0,0,1-.168.589,14.465,14.465,0,0,1-3.953,2.355.52.52,0,0,1-.589-.168,4.806,4.806,0,0,0-3.364-1.514,4.358,4.358,0,0,0-3.364,1.514.641.641,0,0,1-.42.168Z" fill="#90004c"/>
      </g>
      <g id="Group_1659" data-name="Group 1659">
        <path id="Path_1538" data-name="Path 1538" d="M973.415,291.854a.615.615,0,0,1-.487-.238,4.73,4.73,0,0,0-3.288-1.476h-.06a4.242,4.242,0,0,0-3.225,1.48.748.748,0,0,1-.494.2l-.166.011a.071.071,0,0,1-.039-.005,11.279,11.279,0,0,1-3.989-2.376.658.658,0,0,1-.2-.693,4.277,4.277,0,0,0-.41-3.617A4.194,4.194,0,0,0,958.183,283a.634.634,0,0,1-.5-.594,11.179,11.179,0,0,1-.252-2.359,11.963,11.963,0,0,1,.254-2.375.959.959,0,0,1,.472-.568,4.576,4.576,0,0,0,2.906-2.159,4.681,4.681,0,0,0,.412-3.621.58.58,0,0,1,.207-.7,14.523,14.523,0,0,1,3.973-2.366.623.623,0,0,1,.705.2,4.724,4.724,0,0,0,3.288,1.476h.056a4.243,4.243,0,0,0,3.225-1.483.657.657,0,0,1,.694-.2,11.279,11.279,0,0,1,3.995,2.379.659.659,0,0,1,.2.693,4.28,4.28,0,0,0,.41,3.618,4.19,4.19,0,0,0,2.878,2.141.635.635,0,0,1,.5.594,11.25,11.25,0,0,1,.252,2.359,12.051,12.051,0,0,1-.254,2.376.953.953,0,0,1-.474.568,4.58,4.58,0,0,0-2.9,2.148,4.684,4.684,0,0,0-.412,3.622.58.58,0,0,1-.207.7,14.543,14.543,0,0,1-3.973,2.365A.639.639,0,0,1,973.415,291.854Zm-3.834-1.915h.063a4.929,4.929,0,0,1,3.436,1.546.417.417,0,0,0,.482.142,14.355,14.355,0,0,0,3.923-2.338.385.385,0,0,0,.14-.472,4.885,4.885,0,0,1,.426-3.789,4.753,4.753,0,0,1,3.007-2.235.766.766,0,0,0,.351-.434,11.9,11.9,0,0,0,.247-2.325,11.2,11.2,0,0,0-.25-2.333.443.443,0,0,0-.346-.423,4.381,4.381,0,0,1-3.01-2.238,4.473,4.473,0,0,1-.428-3.778.457.457,0,0,0-.138-.482,11.069,11.069,0,0,0-3.923-2.338.451.451,0,0,0-.481.138,4.427,4.427,0,0,1-3.437,1.552,4.933,4.933,0,0,1-3.437-1.546.42.42,0,0,0-.481-.142,14.335,14.335,0,0,0-3.923,2.338.385.385,0,0,0-.14.472,4.889,4.889,0,0,1-.426,3.789,4.75,4.75,0,0,1-3.01,2.246.766.766,0,0,0-.35.433,11.833,11.833,0,0,0-.247,2.325,11.128,11.128,0,0,0,.25,2.333.442.442,0,0,0,.345.424,4.38,4.38,0,0,1,3.01,2.237,4.476,4.476,0,0,1,.428,3.779.457.457,0,0,0,.138.482,11.063,11.063,0,0,0,3.9,2.329l.15-.009a.545.545,0,0,0,.359-.143A4.44,4.44,0,0,1,969.581,289.939Zm4.012.63a.1.1,0,0,1-.069-.028,5.627,5.627,0,0,0-3.884-1.572,5.791,5.791,0,0,0-3.885,1.573.1.1,0,0,1-.106.019,11.947,11.947,0,0,1-2.957-1.771.089.089,0,0,1-.038-.041.1.1,0,0,1,0-.083,6.27,6.27,0,0,0-.584-4.2,5.829,5.829,0,0,0-3.307-2.645.1.1,0,0,1-.068-.079,9.479,9.479,0,0,1,0-3.564.1.1,0,0,1,.068-.079,5.835,5.835,0,0,0,3.308-2.646,6.277,6.277,0,0,0,.578-4.218.1.1,0,0,1,.031-.1,9.553,9.553,0,0,1,2.976-1.784.1.1,0,0,1,.1.021,5.8,5.8,0,0,0,3.887,1.572,5.629,5.629,0,0,0,3.882-1.572.1.1,0,0,1,.107-.02,11.949,11.949,0,0,1,2.968,1.781.1.1,0,0,1,.033.1,5.742,5.742,0,0,0,.58,4.216,5.838,5.838,0,0,0,3.307,2.645.1.1,0,0,1,.068.079,9.484,9.484,0,0,1,0,3.565.1.1,0,0,1-.068.078,5.84,5.84,0,0,0-3.307,2.646,6.286,6.286,0,0,0-.579,4.218.1.1,0,0,1-.031.1,9.542,9.542,0,0,1-2.974,1.785A.1.1,0,0,1,973.593,290.569Zm-3.955-1.8a5.828,5.828,0,0,1,3.979,1.584,9.322,9.322,0,0,0,2.809-1.687,6.472,6.472,0,0,1,.611-4.3,6.033,6.033,0,0,1,3.363-2.722,9.165,9.165,0,0,0,0-3.378,6.039,6.039,0,0,1-3.362-2.717,5.946,5.946,0,0,1-.615-4.3,11.783,11.783,0,0,0-2.808-1.686,5.825,5.825,0,0,1-3.975,1.582,5.993,5.993,0,0,1-3.976-1.584,9.329,9.329,0,0,0-2.812,1.687,6.478,6.478,0,0,1-.609,4.3,6.039,6.039,0,0,1-3.365,2.721,9.165,9.165,0,0,0,0,3.378,6.037,6.037,0,0,1,3.364,2.72,6.488,6.488,0,0,1,.612,4.3,11.812,11.812,0,0,0,2.812,1.687A5.99,5.99,0,0,1,969.638,288.769Z" fill="#90004c"/>
      </g>
    </g>
  </g>
</svg>
