<svg xmlns="http://www.w3.org/2000/svg" width="21.001" height="23.863" viewBox="0 0 21.001 23.863">
  <g id="Group_1640" data-name="Group 1640" transform="translate(-837.496 -268.105)">
    <g id="Group_1634" data-name="Group 1634">
      <g id="Group_1633" data-name="Group 1633">
        <path id="Path_1517" data-name="Path 1517" d="M856.3,291.968H839.7a2.2,2.2,0,0,1-2.2-2.2v-17.6a2.2,2.2,0,0,1,2.2-2.2h16.6a2.2,2.2,0,0,1,2.2,2.2v17.6A2.2,2.2,0,0,1,856.3,291.968Zm-16.6-20.6a.8.8,0,0,0-.8.8v17.6a.8.8,0,0,0,.8.8h16.6a.8.8,0,0,0,.8-.8v-17.6a.8.8,0,0,0-.8-.8Z" fill="#90004c"/>
      </g>
    </g>
    <g id="Line_385" data-name="Line 385">
      <g id="Group_1635" data-name="Group 1635">
        <path id="Path_1518" data-name="Path 1518" d="M854.33,277.169H842a.7.7,0,0,1,0-1.4H854.33a.7.7,0,1,1,0,1.4Z" fill="#90004c"/>
      </g>
    </g>
    <g id="Line_386" data-name="Line 386">
      <g id="Group_1636" data-name="Group 1636">
        <path id="Path_1519" data-name="Path 1519" d="M854.33,282.169H842a.7.7,0,0,1,0-1.4H854.33a.7.7,0,1,1,0,1.4Z" fill="#90004c"/>
      </g>
    </g>
    <g id="Line_387" data-name="Line 387">
      <g id="Group_1637" data-name="Group 1637">
        <path id="Path_1520" data-name="Path 1520" d="M854.33,287.169H842a.7.7,0,0,1,0-1.4H854.33a.7.7,0,1,1,0,1.4Z" fill="#90004c"/>
      </g>
    </g>
    <g id="Line_383" data-name="Line 383">
      <g id="Group_1638" data-name="Group 1638">
        <path id="Path_1521" data-name="Path 1521" d="M843,272.94a.7.7,0,0,1-.7-.7v-3.433a.7.7,0,1,1,1.4,0v3.433A.7.7,0,0,1,843,272.94Z" fill="#90004c"/>
      </g>
    </g>
    <g id="Line_384" data-name="Line 384">
      <g id="Group_1639" data-name="Group 1639">
        <path id="Path_1522" data-name="Path 1522" d="M853,272.94a.7.7,0,0,1-.7-.7v-3.433a.7.7,0,1,1,1.4,0v3.433A.7.7,0,0,1,853,272.94Z" fill="#90004c"/>
      </g>
    </g>
  </g>
</svg>
