<svg xmlns="http://www.w3.org/2000/svg" width="24.001" height="24" viewBox="0 0 24.001 24">
  <g id="Group_1632" data-name="Group 1632" transform="translate(-754.899 -268.037)">
    <g id="Group_1629" data-name="Group 1629">
      <g id="Group_1628" data-name="Group 1628">
        <path id="Path_1514" data-name="Path 1514" d="M766.9,292.037a12,12,0,1,1,12-12A12.013,12.013,0,0,1,766.9,292.037Zm0-22.6a10.6,10.6,0,1,0,10.6,10.6A10.612,10.612,0,0,0,766.9,269.437Z" fill="#90004c"/>
      </g>
    </g>
    <g id="Line_366" data-name="Line 366">
      <g id="Group_1630" data-name="Group 1630">
        <path id="Path_1515" data-name="Path 1515" d="M766.9,280.736a.7.7,0,0,1-.7-.7v-8a.7.7,0,1,1,1.4,0v8A.7.7,0,0,1,766.9,280.736Z" fill="#90004c"/>
      </g>
    </g>
    <g id="Line_367" data-name="Line 367">
      <g id="Group_1631" data-name="Group 1631">
        <path id="Path_1516" data-name="Path 1516" d="M770.9,284.736a.7.7,0,0,1-.495-.2l-4-4a.7.7,0,0,1,.99-.99l4,4a.7.7,0,0,1-.495,1.2Z" fill="#90004c"/>
      </g>
    </g>
  </g>
</svg>
