<?xml version="1.0" encoding="utf-8"?>
<!-- Generator: Adobe Illustrator 24.0.3, SVG Export Plug-In . SVG Version: 6.00 Build 0)  -->
<svg version="1.1" id="圖層_1" xmlns="http://www.w3.org/2000/svg" xmlns:xlink="http://www.w3.org/1999/xlink" x="0px" y="0px"
	 viewBox="0 0 120 120" style="enable-background:new 0 0 120 120;" xml:space="preserve">
<style type="text/css">
	.st0{fill:#FFFFFF;}
</style>
<g>
	<path class="st0" d="M116,28.4c-0.1-0.1-0.1-0.2-0.1-0.3L106,8.9c-3-5.3-8.5-8.7-14.6-8.9H28.7c-6,0.3-11.4,3.5-14.5,8.7L4,27.9
		c-2.4,5-3.8,10.5-4,16.1v3c0.1,2.3,1.9,4.2,4.3,4.3c2.2,0,4-1.8,4.1-4v-2.7c0-0.5,0.4-0.8,0.8-0.8h101.8c0.5,0,0.8,0.4,0.8,0.8v64
		c0,0.9-0.3,1.7-1,2.3c-0.6,0.6-1.4,0.9-2.3,1H11.3c-0.9,0-1.7-0.3-2.3-0.9c-0.6-0.6-1-1.4-1-2.3v-4.6c0-2.2-1.8-4-4.1-4.1
		c-1.1,0-2.1,0.4-2.9,1.2c-0.8,0.8-1.2,1.8-1.2,2.9v4.5c0,6.4,5.2,11.6,11.6,11.7c0,0,0,0,0,0l96.8-0.2c3.1,0,6-1.2,8.2-3.4
		c2.2-2.2,3.4-5.1,3.4-8.2V44.2C119.8,38.7,118.5,33.3,116,28.4z M109.8,35c-0.1,0.2-0.4,0.4-0.7,0.4l-97.8,0.2
		c-0.5,0-0.8-0.4-0.8-0.8c0-0.1,0-0.2,0-0.2c0.2-0.7,0.5-1.5,0.8-2.2l10.2-19.3c1.6-2.4,4.3-4,7.2-4.4l0.1,0l62.8,0
		c3,0.3,5.7,1.9,7.2,4.5l10.2,19.5l0.8,1.5C110,34.5,110,34.8,109.8,35z"/>
	<path class="st0" d="M4.1,79.4C4.1,79.4,4.1,79.4,4.1,79.4h21.3c2.3,0,4.1-1.8,4.1-4.1c0-2.2-1.8-4.1-4.1-4.1H4.1
		c-2.3,0-4.1,1.8-4.1,4.1C0,77.6,1.9,79.4,4.1,79.4z"/>
	<path class="st0" d="M79.1,71.5L79.1,71.5l-19.1,0c-2,0-3.7,1.5-4,3.5c0.1,0.1,0.2,0.3,0.2,0.5c0,2.2,1.8,4,4,4.1c0,0,0,0,0,0h19
		c0.5,0,0.8,0.4,0.8,0.8c0,0.2-0.1,0.4-0.2,0.6l-4.4,4.2c-1.6,1.5-1.7,4.1-0.2,5.7c0.1,0.1,0.1,0.1,0.2,0.2c0.8,0.8,1.9,1.3,3,1.3
		h0.2c1.1,0,2.1-0.5,2.7-1.3L94,78.4c0.1-0.1,0.3-0.3,0.5-0.4l0.1-0.1v-0.2c0-0.2,0.1-0.5,0.3-0.6c0-0.1,0.1-0.3,0.2-0.4
		c0-0.2,0.1-0.4,0.2-0.7l0.1-0.4c0-0.3,0-0.5-0.2-0.8c-0.1-0.1-0.1-0.3-0.1-0.4l0-0.4c-0.2-0.2-0.2-0.4-0.2-0.6v-0.1
		c-0.2-0.1-0.3-0.3-0.4-0.5c-0.1,0-0.1-0.1-0.1-0.1l-13-12.6c-0.8-0.8-1.8-1.3-3-1.3c-2.3,0.1-4.2,2-4.3,4.3c0,1,0.5,2,1.3,2.7
		l4.3,4.3c0.3,0.3,0.3,0.8,0,1.2C79.5,71.5,79.3,71.5,79.1,71.5z"/>
	<path class="st0" d="M4.1,94.7C4.1,94.7,4.1,94.7,4.1,94.7h9.3c2.3,0,4.1-1.8,4.1-4.1c0-2.2-1.8-4.1-4.1-4.1H4.1
		c-2.3,0-4.1,1.8-4.1,4.1C0,92.8,1.9,94.7,4.1,94.7z"/>
	<path class="st0" d="M4.1,64.2h37.3c2.3,0,4.1-1.8,4.1-4.1c0-2.3-1.8-4.1-4.1-4.1H4.1c-2.3,0-4.1,1.8-4.1,4.1
		C0.1,62.4,1.9,64.2,4.1,64.2z"/>
</g>
</svg>
