<?xml version="1.0" encoding="utf-8"?>
<!-- Generator: Adobe Illustrator 22.1.0, SVG Export Plug-In . SVG Version: 6.00 Build 0)  -->
<svg version="1.1" id="圖層_1" xmlns="http://www.w3.org/2000/svg" xmlns:xlink="http://www.w3.org/1999/xlink" x="0px" y="0px"
	 viewBox="0 0 36 30" style="enable-background:new 0 0 36 30;" xml:space="preserve">
<style type="text/css">
	.st0{fill:#90004C;}
</style>
<g>
	<path class="st0" d="M2.4,5.6c0.1,0,0.2,0,0.2,0h30.7c1.2,0.1,2.2-0.8,2.3-1.9c0-0.1,0-0.2,0-0.2c0-1.2-0.9-2.2-2.1-2.2
		c-0.1,0-0.2,0-0.2,0H2.7C1.5,1.1,0.5,1.9,0.4,3.1c0,0.1,0,0.2,0,0.2C0.3,4.5,1.3,5.5,2.4,5.6z"/>
	<path class="st0" d="M33.6,24.4c-0.1,0-0.2,0-0.2,0H2.7c-1.2-0.1-2.2,0.8-2.3,1.9c0,0.1,0,0.2,0,0.2c0,1.2,0.9,2.2,2.1,2.2
		c0.1,0,0.2,0,0.2,0h30.7c1.2,0.1,2.2-0.8,2.3-1.9c0-0.1,0-0.2,0-0.2C35.7,25.5,34.7,24.5,33.6,24.4z"/>
	<path class="st0" d="M33.3,12.8H2.7c-1.2-0.1-2.2,0.8-2.3,1.9c0,0.1,0,0.2,0,0.2c0,1.2,0.9,2.2,2.1,2.2c0.1,0,0.2,0,0.2,0h30.7
		c1.2,0.1,2.2-0.8,2.3-1.9c0-0.1,0-0.2,0-0.2C35.6,13.8,34.6,12.8,33.3,12.8z"/>
</g>
</svg>
