<?xml version="1.0" standalone="no"?><!DOCTYPE svg PUBLIC "-//W3C//DTD SVG 1.1//EN" "http://www.w3.org/Graphics/SVG/1.1/DTD/svg11.dtd"><svg t="1581428340949" class="icon" viewBox="0 0 1024 1024" version="1.1" xmlns="http://www.w3.org/2000/svg" p-id="8682" xmlns:xlink="http://www.w3.org/1999/xlink" width="200" height="200"><defs><style type="text/css"></style></defs><path d="M512 64C264.576 64 64 264.576 64 512c0 247.36 200.576 448 448 448 247.424 0 448-200.64 448-448C960 264.576 759.424 64 512 64zM718.72 356.16l-223.36 358.784c-7.744 12.416-21.248 20.224-35.904 20.928C458.88 736 458.176 736 457.536 736c-14.016 0-27.136-6.592-35.648-17.664L277.696 537.472C262.848 517.824 266.688 489.856 286.336 474.944 306.112 460.096 333.952 464 348.864 483.584l105.088 129.152 189.248-303.744c12.992-20.928 40.512-27.264 61.376-14.272C725.504 307.712 731.776 335.232 718.72 356.16z" p-id="8683" fill="#ffffff"></path></svg>