<?xml version="1.0" standalone="no"?><!DOCTYPE svg PUBLIC "-//W3C//DTD SVG 1.1//EN" "http://www.w3.org/Graphics/SVG/1.1/DTD/svg11.dtd"><svg class="icon" width="200px" height="200.00px" viewBox="0 0 1024 1024" version="1.1" xmlns="http://www.w3.org/2000/svg"><path d="M480 236.224V496h80V236.224l104.56 105.088 56.32-56.56L519.056 83.088 317.616 284.752l56.752 56.56L480 236.224zM858.048 288h-84.544L872 576H599.472c-3.84 32-4.512 96-80.544 96-76.64 0-76.96-64-80.544-96H165.888l98.48-288H179.84L80 582.896V912h880V582.896L858.048 288zM880 832H160V656h213.12c51.792 128 239.728 128 291.632 0H880v176z" fill="#ffffff" /></svg>