<svg xmlns="http://www.w3.org/2000/svg" viewBox="0 0 93.68 20.87"><defs><style>.cls-1{fill:#1eaa39;}.cls-2{fill:#222;}</style></defs><title>WeChat Pay</title><g id="圖層_2" data-name="圖層 2"><g id="圖層_1-2" data-name="圖層 1"><path class="cls-1" d="M8.6,13.2a.68.68,0,0,1-.35.09.78.78,0,0,1-.69-.41l0-.11L5.36,8.05a.35.35,0,0,1,0-.17.38.38,0,0,1,.39-.39A.4.4,0,0,1,6,7.56L8.49,9.37a1.22,1.22,0,0,0,.65.2,1.1,1.1,0,0,0,.4-.08l12-5.32A12.66,12.66,0,0,0,11.83,0C5.3,0,0,4.41,0,9.86a9.27,9.27,0,0,0,4.09,7.45.79.79,0,0,1,.33.64,1,1,0,0,1,0,.25c-.2.74-.52,1.93-.54,2a1.36,1.36,0,0,0-.06.29.39.39,0,0,0,.39.39.45.45,0,0,0,.23-.07L7,19.3a1.28,1.28,0,0,1,.63-.18,1.34,1.34,0,0,1,.35.05,13.9,13.9,0,0,0,3.86.54c6.53,0,11.83-4.41,11.83-9.85a8.54,8.54,0,0,0-1.35-4.57L8.69,13.15Z"/><rect class="cls-2" x="52.13" y="7.01" width="8.87" height="0.8"/><rect class="cls-2" x="52.13" y="9.49" width="8.87" height="0.86"/><path class="cls-2" d="M52.36,16.84h8.42V12H52.36Zm.86-4h6.7v3.21h-6.7Z"/><path class="cls-2" d="M46.85,9.77l.47.81c.5-.74,1-1.61,1.52-2.52v9.28h.86v-11A27,27,0,0,0,51,2.86l-.79-.46A25.43,25.43,0,0,1,46.85,9.77Z"/><path class="cls-2" d="M79.08,9.77l.48.81c.5-.74,1-1.61,1.52-2.52v9.28h.86v-11a27,27,0,0,0,1.31-3.43l-.79-.46A25.18,25.18,0,0,1,79.08,9.77Z"/><path class="cls-2" d="M57.28,4.14h0v0c-.06-.15-.23-.49-.41-.86l-.41-.88v0l-.79.46v0c.28.53.53,1,.74,1.49a.64.64,0,0,1,.06.15H51.26v.86H61.94V4.46H56.73Z"/><polygon class="cls-2" points="39.04 3.81 38.25 3.81 38.25 6.61 36.74 6.61 36.74 2.63 35.95 2.63 35.95 6.61 34.38 6.61 34.38 3.81 33.59 3.81 33.59 7.4 39.04 7.4 39.04 3.81"/><rect class="cls-2" x="33.84" y="8.97" width="4.83" height="0.8"/><path class="cls-2" d="M39.73,14l-.38-.66,0,0-1.22,1.05v-3H34v1.21a3.72,3.72,0,0,1-1.22,3.51h0l.44.77,0,0,0,0a4.61,4.61,0,0,0,1.62-4v-.72h2.44V13.9A1.74,1.74,0,0,1,37,15v0l.49.84h0c.43-.35,1.16-1,2.18-1.87Z"/><path class="cls-2" d="M33.21,2.89l-.74-.42a13.63,13.63,0,0,1-2.81,3.92l.48.83A16.27,16.27,0,0,0,33.21,2.89Z"/><path class="cls-2" d="M33.13,7l-.77-.45v0a16.58,16.58,0,0,1-2.9,4.81v0l.44.76,0,0,0,0c.47-.55.93-1.13,1.37-1.72v6.9h.79V9.12a22.07,22.07,0,0,0,1-2.12Z"/><path class="cls-2" d="M41.35,5.36a16.58,16.58,0,0,0,.77-2.92h-.83A19.58,19.58,0,0,1,39,8.62l.5.87.37-.73.34-.62a16.45,16.45,0,0,0,1.29,5.14A13,13,0,0,1,38.8,16.4h0l.46.79,0,0,0,0a13.09,13.09,0,0,0,2.59-3.07,16.4,16.4,0,0,0,2.45,3.12l0,0,.47-.82h0v0a12.3,12.3,0,0,1-2.47-3.09A17.91,17.91,0,0,0,44,6.16h.87v-.8Zm1.86.8a18.16,18.16,0,0,1-1.27,6.18,21.58,21.58,0,0,1-1.16-5.46,5.5,5.5,0,0,1,.3-.72Z"/><path class="cls-2" d="M71.29,2.32h-.87V4.47H63.7v.85h6.72V8.14H66.06v.78a15,15,0,0,0,2,3.14,13.63,13.63,0,0,0,2,2A17.63,17.63,0,0,1,64,16.43l.5.87a20.91,20.91,0,0,0,6.27-2.7,16.43,16.43,0,0,0,6,2.68h0l.35-.67a22.92,22.92,0,0,1-2.34-.79,17.1,17.1,0,0,1-3.39-1.74,12.69,12.69,0,0,0,4.25-5.53l-.7-.41H71.29V5.32h6.78V4.47H71.29Zm3.34,6.57a10.75,10.75,0,0,1-3.87,4.64,13.43,13.43,0,0,1-3.84-4.64Z"/><path class="cls-2" d="M91.37,6.14V2.47h-.86V6.14H83.43V7h7.08v8c0,.87-.53,1.27-1.55,1.27h-.49v.86h.75a2.12,2.12,0,0,0,1.66-.54A2.09,2.09,0,0,0,91.37,15V7h2.31V6.14Z"/><path class="cls-2" d="M85.3,9.69c.52,1,1.1,2.26,1.74,3.71l.86-.49L86.07,9.23Z"/></g></g></svg>