<?xml version="1.0" standalone="no"?><!DOCTYPE svg PUBLIC "-//W3C//DTD SVG 1.1//EN" "http://www.w3.org/Graphics/SVG/1.1/DTD/svg11.dtd"><svg t="1582646285354" class="icon" viewBox="0 0 1024 1024" version="1.1" xmlns="http://www.w3.org/2000/svg" p-id="2565" xmlns:xlink="http://www.w3.org/1999/xlink" width="200" height="200"><defs><style type="text/css"></style></defs><path d="M51.2 153.303142C51.2 68.63616 120.141676 0 204.8 0 289.630935 0 358.4 68.777574 358.4 153.303142L358.4 870.696858C358.4 955.36384 289.458324 1024 204.8 1024 119.969065 1024 51.2 955.222426 51.2 870.696858L51.2 153.303142ZM665.6 153.303142C665.6 68.63616 734.541676 0 819.2 0 904.030935 0 972.8 68.777574 972.8 153.303142L972.8 870.696858C972.8 955.36384 903.858324 1024 819.2 1024 734.369065 1024 665.6 955.222426 665.6 870.696858L665.6 153.303142Z" p-id="2566" fill="#707070"></path></svg>