<?xml version="1.0" standalone="no"?><!DOCTYPE svg PUBLIC "-//W3C//DTD SVG 1.1//EN" "http://www.w3.org/Graphics/SVG/1.1/DTD/svg11.dtd"><svg t="1581348369699" class="icon" viewBox="0 0 1024 1024" version="1.1" xmlns="http://www.w3.org/2000/svg" p-id="1653" xmlns:xlink="http://www.w3.org/1999/xlink" width="200" height="200"><defs><style type="text/css"></style></defs><path d="M815.7 860.8H221.9c-56.3 0-102.1-45.8-102.1-102.1v-117c0-16.1 13-29.1 29.1-29.1s29.1 13 29.1 29.1v117.1c0 24.2 19.7 43.9 43.9 43.9h593.8c24.2 0 43.9-19.7 43.9-43.9V411.1c0-24.2-19.7-43.9-43.9-43.9H221.9c-24.2 0-43.9 19.7-43.9 43.9v126.5c0 16.1-13 29.1-29.1 29.1s-29.1-13-29.1-29.1V411.1c0-56.3 45.8-102.1 102.1-102.1h593.8c56.3 0 102.1 45.8 102.1 102.1v347.6c-0.1 56.3-45.9 102.1-102.1 102.1z" fill="#ffffff" p-id="1654"></path><path d="M177.2 406.9H119c0-54 43.9-97.9 97.9-97.9h28.2v58.2H217c-21.9 0-39.8 17.8-39.8 39.7zM217 860.8c-54 0-97.9-43.9-97.9-97.9h58.2c0 21.9 17.8 39.7 39.7 39.7v58.2zM677.6 309.1h141.6v58.2H677.6z" fill="#ffffff" p-id="1655"></path><path d="M663.1 363.3L398.3 210.5c-19-11-43.3-4.4-54.3 14.5l-73.7 127.7-50.3-29.1 73.7-127.7c27-46.7 87-62.8 133.7-35.8l264.7 152.8-29 50.4z" fill="#ffffff" p-id="1656"></path><path d="M788.8 488.4H248.7c-16.1 0-29.1-13-29.1-29.1s13-29.1 29.1-29.1h540.1c16.1 0 29.1 13 29.1 29.1s-13 29.1-29.1 29.1z" fill="#ffffff" p-id="1657"></path><path d="M789.5 764.1h-85.2c-16.1 0-29.1-13-29.1-29.1s13-29.1 29.1-29.1h85.2c16.1 0 29.1 13 29.1 29.1s-13.1 29.1-29.1 29.1z" fill="#ffffff" p-id="1658"></path><path d="M612.3 764.1h-85.2c-16.1 0-29.1-13-29.1-29.1s13-29.1 29.1-29.1h85.2c16.1 0 29.1 13 29.1 29.1-0.1 16.1-13.1 29.1-29.1 29.1z" fill="#ffffff" p-id="1659"></path></svg>