<svg xmlns="http://www.w3.org/2000/svg" viewBox="0 0 23.6 18.92"><defs><style>.cls-1{fill:#333;}</style></defs><title>per-case-b</title><g id="圖層_2" data-name="圖層 2"><g id="圖層_1-2" data-name="圖層 1"><path class="cls-1" d="M23.6,6h0a.56.56,0,0,0-.07-.23l0,0a.49.49,0,0,0-.19-.16h0L10.8,0a.53.53,0,0,0-.39,0L.3,4.34h0a.47.47,0,0,0-.19.15l0,.06A.51.51,0,0,0,0,4.78v0H0l.06,7.61s0,.05,0,.07,0,.07,0,.1l.06.1,0,.06.12.09,0,0h0l12.48,6a.44.44,0,0,0,.22.05.52.52,0,0,0,.21,0l10-4.58h0l0,0,.12-.08.05-.08a.22.22,0,0,0,.05-.08.25.25,0,0,0,0-.12.14.14,0,0,0,0-.06v0h0L23.6,6ZM1,5.59l11.54,5.3v6.72L1.05,12.09Zm12.54,5.32L22.6,6.75l-.05,6.76-9,4.15ZM10.6,1,21.88,6l-8.81,4L1.74,4.82Z"/><path class="cls-1" d="M19.6,5.86a.48.48,0,0,0-.3-.45L10.87,1.73h0a.41.41,0,0,0-.16,0h-.05a.53.53,0,0,0-.18,0L4.12,4.46a.49.49,0,0,0-.3.45.5.5,0,0,0,.29.46l6.37,2.91h0l2.1,1a.46.46,0,0,0,.2,0,.5.5,0,0,0,.21,0l6.32-2.92A.5.5,0,0,0,19.6,5.86ZM10.17,3V7L5.55,4.93Zm2.61,5.29L11.17,7.5V3l6.71,2.93Z"/></g></g></svg>