<svg xmlns="http://www.w3.org/2000/svg" xmlns:xlink="http://www.w3.org/1999/xlink" viewBox="0 0 19.27 19.27"><defs><style>.cls-1{fill:url(#未命名漸層_2);}.cls-2{fill:url(#未命名漸層_2-2);}.cls-3{fill:#fff;}</style><linearGradient id="未命名漸層_2" x1="0.69" y1="5.56" x2="15.36" y2="15.28" gradientUnits="userSpaceOnUse"><stop offset="0" stop-color="#3ce8fd"/><stop offset="1" stop-color="#26cdfd"/></linearGradient><linearGradient id="未命名漸層_2-2" x1="5.74" y1="3.79" x2="19.84" y2="13.12" xlink:href="#未命名漸層_2"/></defs><title>points</title><g id="圖層_2" data-name="圖層 2"><g id="圖層_1-2" data-name="圖層 1"><circle class="cls-1" cx="8.52" cy="10.75" r="8.52"/><path class="cls-2" d="M16,18.24a.48.48,0,0,1-.34-.13.51.51,0,0,1,0-.71A9.74,9.74,0,0,0,8.52,1,.5.5,0,0,1,8,.5a.5.5,0,0,1,.5-.5,10.75,10.75,0,0,1,7.86,18.09A.53.53,0,0,1,16,18.24Z"/><path class="cls-3" d="M5,16.49V5.68h3.5a12.7,12.7,0,0,1,2.6.16A2.92,2.92,0,0,1,12.6,6.9,3.35,3.35,0,0,1,13.23,9a3.53,3.53,0,0,1-.36,1.67A2.9,2.9,0,0,1,12,11.74a3.28,3.28,0,0,1-1.13.52,12.91,12.91,0,0,1-2.27.15H7.13v4.08Zm2.18-9v3.07h1.2a5.7,5.7,0,0,0,1.72-.17A1.43,1.43,0,0,0,11,9a1.41,1.41,0,0,0-.35-1,1.57,1.57,0,0,0-.87-.48,10.75,10.75,0,0,0-1.58-.07Z"/></g></g></svg>