<?xml version="1.0" encoding="utf-8"?>
<!-- Generator: Adobe Illustrator 24.1.3, SVG Export Plug-In . SVG Version: 6.00 Build 0)  -->
<svg version="1.1" id="圖層_1" xmlns="http://www.w3.org/2000/svg" xmlns:xlink="http://www.w3.org/1999/xlink" x="0px" y="0px"
	 viewBox="0 0 11 22" style="enable-background:new 0 0 11 22;" xml:space="preserve">
<style type="text/css">
	.st0{enable-background:new    ;}
	.st1{fill:#FFFFFF;}
</style>
<g class="st0">
	<path class="st1" d="M1.4,8.8c0-0.7,0.1-1.3,0.3-1.8s0.5-1,0.9-1.4c0.4-0.4,0.8-0.7,1.4-0.9C4.4,4.5,5,4.4,5.7,4.4
		c0.6,0,1.1,0.1,1.5,0.2c0.5,0.2,0.9,0.4,1.2,0.7c0.4,0.3,0.6,0.7,0.8,1.1s0.3,1,0.3,1.5c0,0.4,0,0.8-0.1,1.1
		C9.4,9.5,9.3,9.7,9.1,9.9c-0.2,0.2-0.3,0.4-0.5,0.6C8.4,10.7,8.2,10.9,8,11c-0.2,0.2-0.4,0.4-0.6,0.6C7.2,11.8,7,12,6.9,12.2
		c-0.1,0.2-0.3,0.5-0.3,0.8c-0.1,0.3-0.1,0.7-0.1,1.1H4.5c0-0.5,0-1,0.1-1.3s0.1-0.7,0.3-1s0.3-0.5,0.4-0.7c0.2-0.2,0.4-0.4,0.6-0.6
		c0.2-0.2,0.4-0.3,0.5-0.5c0.2-0.1,0.3-0.3,0.5-0.5s0.2-0.4,0.3-0.6s0.1-0.5,0.1-0.8c0-0.4-0.1-0.7-0.2-0.9S6.9,6.7,6.7,6.6
		C6.5,6.4,6.4,6.3,6.1,6.2S5.8,6.1,5.6,6.1C4.9,6.1,4.3,6.4,4,6.9C3.6,7.3,3.4,8,3.4,8.8H1.4z M4.2,15.3h2.4v2.2H4.2V15.3z"/>
</g>
</svg>
