<svg xmlns="http://www.w3.org/2000/svg" viewBox="0 0 240 240"><defs><style>.cls-1{fill:#90004c;}</style></defs><title>QR-ico-p</title><g id="圖層_2" data-name="圖層 2"><g id="圖層_1-2" data-name="圖層 1"><path class="cls-1" d="M32,40V88a8,8,0,0,0,8,8H88a8,8,0,0,0,8-8V40a8,8,0,0,0-8-8H40A8,8,0,0,0,32,40Zm16,8H80V80H48Z"/><path class="cls-1" d="M152,96h48a8,8,0,0,0,8-8V40a8,8,0,0,0-8-8H152a8,8,0,0,0-8,8V88A8,8,0,0,0,152,96Zm8-48h32V80H160Z"/><path class="cls-1" d="M88,144H40a8,8,0,0,0-8,8v48a8,8,0,0,0,8,8H88a8,8,0,0,0,8-8V152A8,8,0,0,0,88,144Zm-8,48H48V160H80Z"/><polygon class="cls-1" points="208 112 128 112 128 32 112 32 112 112 32 112 32 128 112 128 112 208 128 208 128 128 208 128 208 112"/><path class="cls-1" d="M208,144H152a8,8,0,0,0-8,8v56h16V160h48Z"/><rect class="cls-1" x="176" y="168" width="16" height="40"/><path class="cls-1" d="M16,16H64V0H8A8,8,0,0,0,0,8V64H16Z"/><path class="cls-1" d="M16,176H0v56a8,8,0,0,0,8,8H64V224H16Z"/><path class="cls-1" d="M232,0H176V16h48V64h16V8A8,8,0,0,0,232,0Z"/><path class="cls-1" d="M224,224H176v16h56a8,8,0,0,0,8-8V176H224Z"/></g></g></svg>