<svg xmlns="http://www.w3.org/2000/svg" viewBox="0 0 304 496"><title>QR-scanner</title><g id="圖層_2" data-name="圖層 2"><g id="圖層_1-2" data-name="圖層 1"><path d="M96,168v48a8,8,0,0,0,8,8h48a8,8,0,0,0,8-8V168a8,8,0,0,0-8-8H104A8,8,0,0,0,96,168Zm16,8h32v32H112Z"/><path d="M272,168a8,8,0,0,0-8-8H216a8,8,0,0,0-8,8v48a8,8,0,0,0,8,8h48a8,8,0,0,0,8-8Zm-16,40H224V176h32Z"/><path d="M104,336h48a8,8,0,0,0,8-8V280a8,8,0,0,0-8-8H104a8,8,0,0,0-8,8v48A8,8,0,0,0,104,336Zm8-48h32v32H112Z"/><polygon points="272 240 192 240 192 160 176 160 176 240 96 240 96 256 176 256 176 336 192 336 192 256 272 256 272 240"/><path d="M272,272H216a8,8,0,0,0-8,8v56h16V288h48Z"/><rect x="240" y="296" width="16" height="40"/><path d="M64,136v56H80V144h48V128H72A8,8,0,0,0,64,136Z"/><path d="M64,360a8,8,0,0,0,8,8h56V352H80V304H64Z"/><path d="M304,192V136a8,8,0,0,0-8-8H272V40A40.05,40.05,0,0,0,232,0H40A40.05,40.05,0,0,0,0,40V456a40.05,40.05,0,0,0,40,40H232a40.05,40.05,0,0,0,40-40V368h24a8,8,0,0,0,8-8V304H288v48H240v16h16v88a24,24,0,0,1-14.87,22.19c-.17.07-.43.18-.76.3l-.26.09a22.19,22.19,0,0,1-7.18,1.42H39.07a22.19,22.19,0,0,1-7.18-1.42l-.26-.09c-.33-.12-.59-.23-.76-.3A24,24,0,0,1,16,456V84H256v44H240v16h48v48ZM16,68V40A24,24,0,0,1,30.61,17.92,23.54,23.54,0,0,1,39.07,16H232.93a23.54,23.54,0,0,1,8.46,1.92A24,24,0,0,1,256,40V68Z"/><rect x="85.55" y="440" width="98.45" height="16"/><circle cx="134.78" cy="42.84" r="11.16"/></g></g></svg>