<?xml version="1.0" encoding="utf-8"?>
<!-- Generator: Adobe Illustrator 23.0.4, SVG Export Plug-In . SVG Version: 6.00 Build 0)  -->
<svg version="1.1" id="Capa_1" xmlns="http://www.w3.org/2000/svg" xmlns:xlink="http://www.w3.org/1999/xlink" x="0px" y="0px"
	 viewBox="0 0 552.8 552.8" style="enable-background:new 0 0 552.8 552.8;" xml:space="preserve">
<style type="text/css">
	.st0{fill:#FFFFFF;}
</style>
<g>
	<path class="st0" d="M300.4,489.1c98.2-11,176.9-89.5,188.1-187.7C503.2,173,403.4,63.7,278.3,62.3V4.7c0-3.2-4-4.9-6.7-2.9
		L153,88.9c-2,1.5-2,4.4,0,5.9l118.6,87.1c2.7,2,6.7,0.2,6.7-2.9v-57.5c87.9,1.4,158.3,76.2,152.3,165.6
		c-5.1,76.9-67.8,139.3-144.7,144.2c-81.5,5.2-150.8-53-163.2-130c-2.3-14.3-14.8-24.7-29.2-24.7c-17.9,0-31.9,15.9-29.1,33.6
		C81.8,419.9,183.1,502.2,300.4,489.1z"/>
</g>
</svg>
