<?xml version="1.0" encoding="utf-8"?>
<!-- Generator: Adobe Illustrator 24.1.0, SVG Export Plug-In . SVG Version: 6.00 Build 0)  -->
<svg version="1.1" id="圖層_1" xmlns="http://www.w3.org/2000/svg" xmlns:xlink="http://www.w3.org/1999/xlink" x="0px" y="0px"
	 viewBox="0 0 200 200" style="enable-background:new 0 0 200 200;" xml:space="preserve">
<style type="text/css">
	.st0{fill:#FFFFFF;}
</style>
<g>
	<path class="st0" d="M100.1,140.9c-13.4,0-24,10.5-24,24c0,13.1,10.7,23.7,24,23.7v0c12.9,0,23.7-10.9,23.7-23.7
		C123.9,151.6,113.2,140.9,100.1,140.9z"/>
	<path class="st0" d="M79.2,23.4l5.2,92c0.7,7.1,3.8,8.4,8.9,8.4h13.4c5.1,0,8.1-1.4,8.9-8.3l5.2-92.2l0.2-2.6l0-2.3
		c0-2.6-1.1-7-8.7-7H87.2v0c-7.1,0-8.2,4.4-8.2,7l0.1,2.3L79.2,23.4z"/>
</g>
</svg>
