<svg xmlns="http://www.w3.org/2000/svg" width="30.001" height="30" viewBox="0 0 30.001 30">
  <g id="Group_609" data-name="Group 609" transform="translate(-31.995 -140.087)">
    <path id="Path_410" data-name="Path 410" d="M52.776,168.459h-.019a2.273,2.273,0,1,0,0,4.545h0a2.292,2.292,0,0,0,2.265-2.258A2.267,2.267,0,0,0,52.776,168.459Z" transform="translate(-5.754 -8.833)" fill="#df003c"/>
    <path id="Path_411" data-name="Path 411" d="M50.7,149.922l.529,9.535c.071.736.386.87.9.87h1.363c.519,0,.824-.145.906-.86l.529-9.556.02-.269V149.4c0-.269-.112-.725-.885-.725H51.509c-.722,0-.834.456-.834.725l.01.238Z" transform="translate(-5.816 -2.675)" fill="#df003c"/>
    <path id="Path_412" data-name="Path 412" d="M47,140.087a15,15,0,1,0,15,15A15.017,15.017,0,0,0,47,140.087Zm0,27.59a12.59,12.59,0,1,1,12.59-12.589A12.6,12.6,0,0,1,47,167.677Z" fill="#df003c"/>
  </g>
</svg>
