<?xml version="1.0" encoding="utf-8"?>
<!-- Generator: Adobe Illustrator 24.2.1, SVG Export Plug-In . SVG Version: 6.00 Build 0)  -->
<svg version="1.1" id="圖層_1" xmlns="http://www.w3.org/2000/svg" xmlns:xlink="http://www.w3.org/1999/xlink" x="0px" y="0px"
	 viewBox="0 0 512.4 512.5" style="enable-background:new 0 0 512.4 512.5;" xml:space="preserve">
<style type="text/css">
	.st0{fill:#BBBBBB;}
</style>
<g id="圖層_2_1_">
	<g id="圖層_1-2">
		<path class="st0" d="M502.2,452.8L364,314.6c54.5-78,47-186.4-22.6-255.9c-78.1-78.1-204.7-78.1-282.8,0c-78,78-78,204.9,0,282.8
			c68.6,68.5,176.4,78,255.9,22.6l138.2,138.2c13.8,13.5,36,13.3,49.5-0.5C515.6,488.2,515.6,466.4,502.2,452.8L502.2,452.8z
			 M108.1,292c-50.7-50.7-50.7-133.2,0-183.8c50.8-50.8,133.1-50.8,183.8,0c50.7,50.7,50.7,133.2,0,183.8
			C241.2,342.8,158.9,342.8,108.1,292z"/>
	</g>
</g>
</svg>
