<?xml version="1.0" encoding="utf-8"?>
<!-- Generator: Adobe Illustrator 22.1.0, SVG Export Plug-In . SVG Version: 6.00 Build 0)  -->
<svg version="1.1" id="圖層_1" xmlns="http://www.w3.org/2000/svg" xmlns:xlink="http://www.w3.org/1999/xlink" x="0px" y="0px"
	 viewBox="0 0 512.4 512.5" style="enable-background:new 0 0 512.4 512.5;" xml:space="preserve">
<style type="text/css">
	.st0{fill:#333333;}
</style>
<title>search-icon-bk</title>
<g id="圖層_2_1_">
	<g id="圖層_1-2">
		<path class="st0" d="M502.1,452.7L363.9,314.5c54.5-78,47-186.4-22.6-255.9c-78.1-78.1-204.7-78.1-282.8,0
			c-78,78-78,204.9,0,282.8c68.6,68.5,176.4,78,255.9,22.6l138.2,138.2c13.8,13.5,36,13.3,49.5-0.5
			C515.5,488.1,515.5,466.3,502.1,452.7L502.1,452.7z M108,291.9c-50.7-50.7-50.7-133.2,0-183.8c50.8-50.8,133.1-50.8,183.8,0
			c50.7,50.7,50.7,133.2,0,183.8C241.1,342.7,158.8,342.7,108,291.9z"/>
	</g>
</g>
</svg>
