<?xml version="1.0" encoding="utf-8"?>
<!-- Generator: Adobe Illustrator 23.0.1, SVG Export Plug-In . SVG Version: 6.00 Build 0)  -->
<svg version="1.1" id="圖層_1" xmlns="http://www.w3.org/2000/svg" xmlns:xlink="http://www.w3.org/1999/xlink" x="0px" y="0px"
	 viewBox="0 0 117 117" style="enable-background:new 0 0 117 117;" xml:space="preserve">
<path d="M58.5,0L58.5,0L58.5,0C26.2,0,0,26.3,0,58.5S26.3,117,58.5,117c32.3,0,58.5-26.2,58.5-58.5C117,26.3,90.8,0,58.5,0
	 M58.5,4.1c30,0,54.4,24.4,54.4,54.4c0,30.1-24.4,54.4-54.4,54.4c-30.1,0-54.4-24.4-54.4-54.4C4.1,28.4,28.5,4.1,58.5,4.1
	 M39.7,85.7h37.5V41.3L58.5,25.2L39.7,41.3V85.7z M81.3,89.7H35.7V39.4l22.8-19.6l22.8,19.6V89.7z"/>
<g>
	<path d="M64.3,51.2c-1.6-1.5-2.9-2.3-5-2.3c-2.3,0-3.8,1.2-3.8,3.5c0,5.2,11.8,4.2,11.8,12.9c0,4.1-2.4,7.1-6.7,7.9v4.5h-3.5v-4.3
		c-2.6-0.3-5.5-1.5-7.5-3.3l2.3-3.4c2,1.6,4.1,2.7,6.4,2.7c2.8,0,4.2-1.4,4.2-3.7c0-5.7-11.8-4.9-11.8-13c0-4,2.5-6.9,6.4-7.6v-4.4
		h3.5v4.3c2.8,0.3,4.7,1.7,6.3,3.4L64.3,51.2z"/>
</g>
</svg>
