<svg xmlns="http://www.w3.org/2000/svg" width="47.751" height="44.625" viewBox="0 0 47.751 44.625">
  <g id="Group_1773" data-name="Group 1773" transform="translate(-767.044 -413.334)">
    <path id="Path_11963" data-name="Path 11963" d="M780.835,433a12.267,12.267,0,0,0-10.77,6.305l-3.021-3.021v8.537h8.537l-3.677-3.677a9.9,9.9,0,1,1-.394,7.618h-2.758A12.5,12.5,0,1,0,780.835,433Z" fill="#90004c"/>
    <path id="Path_11964" data-name="Path 11964" d="M779.091,440.186v6.291l6.371,3.927,1.212-1.969-5.31-3.321v-4.928Z" fill="#90004c"/>
    <path id="Path_11965" data-name="Path 11965" d="M813.9,429.508l-14.9-14.892a4.337,4.337,0,0,0-3.149-1.282l-8.922.123a3.367,3.367,0,0,0-3.322,3.322v.025c-.411.148-.83.3-1.25.477a17.8,17.8,0,0,0-5.665,3.6l-.074.074c-2.229,2.27-1.982,4-1.637,4.819s1.4,2.22,4.572,2.236a15.6,15.6,0,0,0,4.235-.633,4.363,4.363,0,0,0,.97,1.48l14.892,14.892a3.078,3.078,0,0,0,4.35,0l9.9-9.892A3.078,3.078,0,0,0,813.9,429.508Zm-20.91-7.113a2.494,2.494,0,0,1-3.527,0c-.032-.04-.072-.08-.1-.121a17.261,17.261,0,0,1-3.519,1.957c-4.461,1.86-7.4,1.28-7.674.628-.089-.209.024-.894,1.071-1.965l.048-.048a15.169,15.169,0,0,1,4.727-2.979c.072-.033.137-.057.209-.089l-.048,3.511c.4-.137.821-.3,1.256-.475A17.468,17.468,0,0,0,788.75,421a2.492,2.492,0,1,1,4.235,1.393Z" fill="#90004c"/>
  </g>
</svg>
