<?xml version="1.0" encoding="utf-8"?>
<!-- Generator: Adobe Illustrator 23.0.3, SVG Export Plug-In . SVG Version: 6.00 Build 0)  -->
<svg version="1.1" id="圖層_1" xmlns="http://www.w3.org/2000/svg" xmlns:xlink="http://www.w3.org/1999/xlink" x="0px" y="0px"
	 viewBox="0 0 32.6 32.6" style="enable-background:new 0 0 32.6 32.6;" xml:space="preserve">
<style type="text/css">
	.st0{fill:#90004C;}
</style>
<g id="Group_1771" transform="translate(-858.452 -419.017)">
	<path id="Path_11958" class="st0" d="M888.3,432h-27.2c-0.3,0-0.5,0.2-0.5,0.5v0v14.7c0,1.2,1,2.2,2.2,2.2c0,0,0,0,0,0h23.9
		c1.2,0,2.2-1,2.2-2.2c0,0,0,0,0,0v-14.7C888.9,432.3,888.6,432,888.3,432z M864,439.1c0.2-0.3,0.6-0.5,0.9-0.5h3.3
		c0.6,0,1.1,0.5,1.1,1.1c0,0.6-0.5,1.1-1.1,1.1H865c-0.6,0-1.1-0.5-1.1-1.1C863.9,439.5,863.9,439.3,864,439.1z M872.4,444.6
		c-0.2,0.3-0.6,0.5-0.9,0.5H865c-0.6,0-1.1-0.5-1.1-1.1c0-0.6,0.5-1.1,1.1-1.1l0,0h6.5c0.6,0,1.1,0.5,1.1,1.1
		C872.6,444.2,872.5,444.4,872.4,444.6L872.4,444.6z"/>
	<path id="Path_11959" class="st0" d="M876.4,430L876.4,430l12,0c0.3,0,0.5-0.2,0.5-0.5c0-0.1,0-0.2-0.1-0.3l-4.2-7
		c-0.4-0.6-1.1-0.9-1.8-0.9h-6.5c-0.3,0-0.5,0.2-0.5,0.5v0v7.7C875.8,429.7,876.1,430,876.4,430L876.4,430z"/>
	<path id="Path_11960" class="st0" d="M861.1,430h12v0c0.3,0,0.5-0.2,0.5-0.5v-7.7c0-0.3-0.2-0.5-0.5-0.5l0,0h-6.5
		c-0.7,0-1.4,0.3-1.8,0.9l-4.2,7c-0.2,0.2-0.1,0.6,0.1,0.8C860.9,429.9,861,430,861.1,430L861.1,430z"/>
</g>
</svg>
