<svg xmlns="http://www.w3.org/2000/svg" width="44.549" height="34.841" viewBox="0 0 44.549 34.841">
  <g id="Group_1772" data-name="Group 1772" transform="translate(-689.492 -417.888)">
    <path id="Path_11962" data-name="Path 11962" d="M733.038,440.721a3.422,3.422,0,0,0,0-4.839l-16.576-16.567a4.827,4.827,0,0,0-3.5-1.427l-9.926.138a3.745,3.745,0,0,0-3.7,3.7v.028c-.457.164-.923.338-1.39.53a19.806,19.806,0,0,0-6.3,4.007l-.082.082c-2.479,2.525-2.205,4.446-1.821,5.361s1.555,2.47,5.087,2.488a17.366,17.366,0,0,0,4.711-.7,4.851,4.851,0,0,0,1.079,1.647l16.567,16.566a3.422,3.422,0,0,0,4.839,0Zm-23.775-12.907a2.833,2.833,0,0,1-4.007,0c-.036-.046-.082-.092-.119-.137a19.572,19.572,0,0,1-4,2.223c-5.068,2.113-8.407,1.454-8.718.713-.1-.238.027-1.015,1.216-2.232l.055-.055a17.252,17.252,0,0,1,5.37-3.385c.082-.036.156-.064.238-.1l-.055,3.988c.457-.155.933-.338,1.427-.539a19.717,19.717,0,0,0,3.778-2.059,2.832,2.832,0,1,1,4.812,1.583Z" fill="#90004c"/>
  </g>
</svg>
