<svg xmlns="http://www.w3.org/2000/svg" width="44.751" height="27.639" viewBox="0 0 44.751 27.639">
  <path id="Path_11961" data-name="Path 11961" d="M732.843,496.556l-9.39-9.39a4.433,4.433,0,0,0-6.266,0l-3.285,3.285,3.964,3.962a7.461,7.461,0,0,1,0,10.543,1.511,1.511,0,1,1-2.136-2.138,4.436,4.436,0,0,0,0-6.265l-3.967-3.963-5.423-5.424c-.085-.086-.172-.161-.26-.237a4.429,4.429,0,0,0-6.005.238l-9.39,9.389a4.436,4.436,0,0,0,0,6.265l9.39,9.39a4.437,4.437,0,0,0,6.266,0l3.285-3.286-3.966-3.963a7.465,7.465,0,0,1,0-10.543,1.512,1.512,0,0,1,2.138,2.138,4.436,4.436,0,0,0,0,6.265l9.39,9.39a4.435,4.435,0,0,0,5.5.613h0a4.423,4.423,0,0,0,.77-.613l9.39-9.39a4.429,4.429,0,0,0,0-6.265Z" transform="translate(-689.39 -485.869)" fill="#90004c"/>
</svg>
