<?xml version="1.0" encoding="utf-8"?>
<!-- Generator: Adobe Illustrator 24.0.3, SVG Export Plug-In . SVG Version: 6.00 Build 0)  -->
<svg version="1.1" id="Layer_1" xmlns="http://www.w3.org/2000/svg" xmlns:xlink="http://www.w3.org/1999/xlink" x="0px" y="0px"
	 viewBox="0 0 492 492" style="enable-background:new 0 0 492 492;" xml:space="preserve">
<style type="text/css">
	.st0{fill:#707070;}
</style>
<g>
	<path class="st0" d="M3.9,301.3l84.3,84.3c2.5,2.5,5.6,3.7,9.1,3.7s6.6-1.3,9.1-3.7l84.2-84.3c2.4-2.5,3.7-5.6,3.7-9
		s-1.3-6.6-3.7-9l-7.7-7.7c-2.4-2.5-5.6-3.7-9-3.7s-6.4,1.3-8.9,3.7l-49.6,49.7V195.8c0-7.1-6.1-13-13.1-13H91.4
		c-7.1,0-12.7,6.1-12.7,13.2l0.1-0.4v129.2l-49.3-49.1c-2.5-2.5-5.6-3.7-9.1-3.7s-6.6,1.3-9.1,3.7l-7.7,7.7c-2.5,2.5-3.7,5.6-3.7,9
		C0.1,295.8,1.5,298.9,3.9,301.3z"/>
	<path class="st0" d="M92.1,160.4h10.8c7.1,0,12.6-5.9,12.6-13v-31.7c0-7.1-6.1-13-13.1-13H91.5c-7.1,0-12.6,5.9-12.6,13v31.7
		C79,154.5,85,160.4,92.1,160.4z"/>
</g>
<g>
	<path class="st0" d="M492,343.2v-10.8c0-7.1-5.9-13.1-13-13.1H255.7c-7.1,0-13,5.5-13,12.6v10.8c0,7,5.9,13.1,13,13.1H479
		C486.1,355.8,492,350.2,492,343.2z"/>
	<path class="st0" d="M419.6,251.7v-10.8c0-7.1-5.9-13.1-13-13.1H255.7c-7.1,0-13,5.5-13,12.6v10.8c0,7,5.9,13.1,13,13.1h151
		C413.7,264.3,419.7,258.7,419.6,251.7z"/>
	<path class="st0" d="M347.3,160.1v-10.8c0-7.1-5.9-13.1-13-13.1h-78.6c-7.1,0-13,5.5-13,12.6v10.8c0,7,5.9,13.1,13,13.1h78.6
		C341.3,172.7,347.3,167.2,347.3,160.1z"/>
</g>
</svg>
