<?xml version="1.0" encoding="utf-8"?>
<!-- Generator: Adobe Illustrator 24.0.3, SVG Export Plug-In . SVG Version: 6.00 Build 0)  -->
<svg version="1.1" id="Layer_1" xmlns="http://www.w3.org/2000/svg" xmlns:xlink="http://www.w3.org/1999/xlink" x="0px" y="0px"
	 viewBox="0 0 492 492" style="enable-background:new 0 0 492 492;" xml:space="preserve">
<style type="text/css">
	.st0{fill:#707070;}
</style>
<g>
	<path class="st0" d="M190.4,190.7l-84.3-84.3c-2.5-2.5-5.6-3.7-9.1-3.7s-6.6,1.3-9.1,3.7L3.7,190.7c-2.4,2.5-3.7,5.6-3.7,9
		s1.3,6.6,3.7,9l7.7,7.7c2.4,2.5,5.6,3.7,9,3.7c3.4,0,6.4-1.3,8.9-3.7l49.6-49.7v129.5c0,7.1,6.1,13,13.1,13h10.8
		c7.1,0,12.7-6.1,12.7-13.2l-0.1,0.4V167.2l49.3,49.1c2.5,2.5,5.6,3.7,9.1,3.7s6.6-1.3,9.1-3.7l7.7-7.7c2.5-2.5,3.7-5.6,3.7-9
		C194.1,196.2,192.7,193.1,190.4,190.7z"/>
	<path class="st0" d="M102.2,331.6H91.3c-7.1,0-12.6,5.9-12.6,13v31.7c0,7.1,6.1,13,13.1,13h10.8c7.1,0,12.6-5.9,12.6-13v-31.7
		C115.3,337.5,109.2,331.6,102.2,331.6z"/>
</g>
<g>
	<path class="st0" d="M479,136.2H255.7c-7.1,0-13,6.1-13,13.1v10.8c0,7.1,5.9,12.6,13,12.6H479c7.1,0,13-6,13-13.1v-10.8
		C492,141.8,486.1,136.2,479,136.2z"/>
	<path class="st0" d="M406.7,227.7h-151c-7.1,0-13,6.1-13,13.1v10.8c0,7.1,5.9,12.6,13,12.6h150.9c7.1,0,13-6,13-13.1v-10.8
		C419.7,233.3,413.7,227.7,406.7,227.7z"/>
	<path class="st0" d="M334.3,319.3h-78.6c-7.1,0-13,6.1-13,13.1v10.8c0,7.1,5.9,12.6,13,12.6h78.6c7.1,0,13-6,13-13.1v-10.8
		C347.3,324.8,341.3,319.3,334.3,319.3z"/>
</g>
</svg>
