<svg id="圖層_1" data-name="圖層 1" xmlns="http://www.w3.org/2000/svg" viewBox="0 0 383.75 365.66"><defs><style>.cls-1{fill:#f5c71d;}</style></defs><title>star</title><path class="cls-1" d="M198.71,4.44l53.82,109.05a7.08,7.08,0,0,0,5.32,3.87L378.2,134.84a7.07,7.07,0,0,1,3.91,12L295,231.78a7.07,7.07,0,0,0-2,6.25l20.56,119.86a7.05,7.05,0,0,1-10.24,7.44L195.66,308.74a7.07,7.07,0,0,0-6.57,0L81.44,365.33a7.05,7.05,0,0,1-10.24-7.44L91.76,238a7.07,7.07,0,0,0-2-6.25L2.64,146.89a7.07,7.07,0,0,1,3.91-12l120.36-17.48a7.06,7.06,0,0,0,5.31-3.87l53.83-109A7.06,7.06,0,0,1,198.71,4.44Z" transform="translate(-0.5 -0.5)"/></svg>