<svg xmlns="http://www.w3.org/2000/svg" viewBox="0 0 93.31 16.37"><defs><style>.cls-1{fill:#891d4b;}.cls-2{fill:#333;}.cls-3{fill:#fff;}</style></defs><title>stockvins</title><g id="圖層_2" data-name="圖層 2"><g id="圖層_1-2" data-name="圖層 1"><rect class="cls-1" x="49.92" width="43.39" height="16.37" rx="2.87"/><path class="cls-2" d="M4.91,7.07l-1-.16a2.08,2.08,0,0,1-1-.35.94.94,0,0,1-.29-.78A.85.85,0,0,1,3,5a2,2,0,0,1,1.15-.27A3,3,0,0,1,5.5,5a3.38,3.38,0,0,1,.91.71L7.94,4.21A4.24,4.24,0,0,0,6.38,3.1a5.43,5.43,0,0,0-2.1-.37A5.35,5.35,0,0,0,2.61,3a3.76,3.76,0,0,0-1.24.66,2.84,2.84,0,0,0-.78,1,3.12,3.12,0,0,0-.27,1.3A3,3,0,0,0,1.1,8.07a4,4,0,0,0,2.45,1l1,.14a1.52,1.52,0,0,1,1,.4,1.08,1.08,0,0,1,.24.72,1.13,1.13,0,0,1-.41.92,1.9,1.9,0,0,1-1.25.34,3.42,3.42,0,0,1-2.65-1.2L0,11.93a5.27,5.27,0,0,0,1.65,1.24A5.39,5.39,0,0,0,4,13.64a5.56,5.56,0,0,0,1.75-.25,3.47,3.47,0,0,0,1.29-.7,3,3,0,0,0,.8-1.09,3.52,3.52,0,0,0,.27-1.39,2.78,2.78,0,0,0-.79-2.13A4.42,4.42,0,0,0,4.91,7.07Z"/><polygon class="cls-2" points="8.92 4.95 11.78 4.95 11.78 13.46 14.08 13.46 14.08 4.95 16.94 4.95 16.94 2.91 8.92 2.91 8.92 4.95"/><path class="cls-2" d="M25.74,4.11a3.83,3.83,0,0,0-1.47-1,5.51,5.51,0,0,0-3.81,0,3.91,3.91,0,0,0-1.47,1,4.84,4.84,0,0,0-.93,1.71,7.38,7.38,0,0,0-.34,2.36,7.4,7.4,0,0,0,.34,2.37A4.84,4.84,0,0,0,19,12.26a4,4,0,0,0,1.47,1,5.51,5.51,0,0,0,3.81,0,3.94,3.94,0,0,0,1.47-1,4.84,4.84,0,0,0,.93-1.71A7.4,7.4,0,0,0,27,8.18a7.38,7.38,0,0,0-.34-2.36A4.84,4.84,0,0,0,25.74,4.11ZM24.57,9A2.89,2.89,0,0,1,24,10.92a2.28,2.28,0,0,1-3.25,0A2.89,2.89,0,0,1,20.16,9V7.4a2.89,2.89,0,0,1,.58-1.95,2,2,0,0,1,1.62-.68A2,2,0,0,1,24,5.45a2.89,2.89,0,0,1,.58,2Z"/><path class="cls-2" d="M34.55,11.14a1.93,1.93,0,0,1-1.36.46,2.1,2.1,0,0,1-1.62-.66A2.68,2.68,0,0,1,31,9V7.34a2.72,2.72,0,0,1,.62-1.92,2.12,2.12,0,0,1,1.62-.65,1.88,1.88,0,0,1,1.31.4,2.29,2.29,0,0,1,.66,1.06l2-1a4.11,4.11,0,0,0-1.53-1.88,4.45,4.45,0,0,0-2.42-.59,5,5,0,0,0-1.93.36,3.91,3.91,0,0,0-1.47,1.06,5,5,0,0,0-.94,1.74,7.8,7.8,0,0,0-.33,2.37,7.53,7.53,0,0,0,.33,2.35,4.71,4.71,0,0,0,.94,1.68,3.69,3.69,0,0,0,1.47,1,5.14,5.14,0,0,0,1.93.34A4.27,4.27,0,0,0,35.62,13a4.73,4.73,0,0,0,1.55-1.87L35.29,10A2.89,2.89,0,0,1,34.55,11.14Z"/><polygon class="cls-2" points="47.63 2.91 45.03 2.91 42.66 5.88 41.16 7.93 41.07 7.93 41.07 2.91 38.77 2.91 38.77 13.46 41.07 13.46 41.07 10.53 42.45 8.86 45.24 13.46 47.95 13.46 44.08 7.25 47.63 2.91"/><path class="cls-3" d="M86.14,7.07l-1-.16a2.08,2.08,0,0,1-1-.35.94.94,0,0,1-.3-.78A.86.86,0,0,1,84.22,5a2,2,0,0,1,1.15-.27A3,3,0,0,1,86.72,5a3.28,3.28,0,0,1,.92.71l1.53-1.54A4.41,4.41,0,0,0,87.61,3.1a5.5,5.5,0,0,0-2.1-.37A5.35,5.35,0,0,0,83.84,3a3.66,3.66,0,0,0-1.24.66,2.84,2.84,0,0,0-.78,1,3.12,3.12,0,0,0-.27,1.3,2.94,2.94,0,0,0,.77,2.14,4.06,4.06,0,0,0,2.46,1l1,.14a1.53,1.53,0,0,1,1,.4,1.08,1.08,0,0,1,.24.72,1.16,1.16,0,0,1-.41.92,1.9,1.9,0,0,1-1.25.34,3.42,3.42,0,0,1-2.65-1.2l-1.51,1.53a5.27,5.27,0,0,0,1.65,1.24,5.39,5.39,0,0,0,2.36.47A5.56,5.56,0,0,0,87,13.39a3.63,3.63,0,0,0,1.29-.7,3.08,3.08,0,0,0,.8-1.09,3.52,3.52,0,0,0,.27-1.39,2.78,2.78,0,0,0-.79-2.13A4.42,4.42,0,0,0,86.14,7.07Z"/><polygon class="cls-3" points="77.37 2.91 77.37 10.01 77.33 10.01 76.31 7.9 73.42 2.91 70.92 2.91 70.92 13.46 73.08 13.46 73.08 6.35 73.12 6.35 74.14 8.47 77.02 13.46 79.53 13.46 79.53 2.91 77.37 2.91"/><rect class="cls-3" x="65.34" y="2.91" width="2.3" height="10.55"/><rect class="cls-3" x="84.14" y="1.82" width="2.3" height="2.04"/><rect class="cls-3" x="84.14" y="12.62" width="2.3" height="2.04"/><circle class="cls-3" cx="57.7" cy="11.98" r="1.66" transform="translate(-1.21 13.58) rotate(-13.28)"/><circle class="cls-3" cx="55.74" cy="8.27" r="1.66" transform="translate(-0.41 13.03) rotate(-13.28)"/><circle class="cls-3" cx="59.66" cy="8.27" r="1.66"/><circle class="cls-3" cx="57.7" cy="4.57" r="1.66" transform="translate(0.49 13.38) rotate(-13.28)"/><circle class="cls-3" cx="61.62" cy="4.57" r="1.66" transform="translate(0.6 14.28) rotate(-13.28)"/><circle class="cls-3" cx="53.79" cy="4.57" r="1.66" transform="translate(-0.04 8.67) rotate(-9.22)"/></g></g></svg>