<svg width="1323" height="143" viewBox="0 0 1323 143" fill="none" xmlns="http://www.w3.org/2000/svg">
<path d="M33.8603 43.2607C33.8603 34.7462 41.0159 27.7798 59.5961 27.7798C72.8185 28.0226 85.7517 31.6891 97.1344 38.4215L106.808 14.6209C94.2338 6.68832 76.8176 2.62305 59.7943 2.62305C21.2838 2.62305 2.70891 21.7794 2.70891 44.8176C2.70891 95.1309 81.4613 77.7003 81.4613 103.064C81.4613 111.383 73.9163 117.576 55.342 117.576C39.3618 117.456 23.7866 112.534 10.6389 103.451L0 127.059C11.9978 136.345 33.668 142.732 55.1523 142.732C93.8549 142.732 112.618 123.381 112.618 100.741C112.61 50.9896 33.8603 68.2108 33.8603 43.2607Z" fill="white"/>
<path d="M136.21 30.4843H179.569V140.394H210.916V30.4843H254.26V4.9436H136.21V30.4843Z" fill="white"/>
<path d="M354.106 2.61426C311.329 2.61426 279.991 32.4123 279.991 72.663C279.991 112.914 311.341 142.712 354.106 142.712C396.676 142.712 428.218 113.109 428.218 72.663C428.218 32.2173 396.682 2.61426 354.106 2.61426ZM354.106 116.01C329.915 116.01 311.725 98.4018 311.725 72.6515C311.725 46.9011 329.915 29.2928 354.106 29.2928C378.297 29.2928 396.484 46.9011 396.484 72.6515C396.484 98.4018 378.291 116.01 354.106 116.01Z" fill="white"/>
<path d="M537.726 29.319C544.225 29.2582 550.655 30.6513 556.546 33.3964C562.437 36.1414 567.639 40.169 571.773 45.1842L591.895 26.6069C579.126 11.1259 559.595 2.61426 536.164 2.61426C493.984 2.61426 462.632 31.8332 462.632 72.663C462.632 113.493 493.984 142.712 535.963 142.712C559.572 142.712 579.115 134.2 591.884 118.524L571.762 99.947C567.667 105.021 562.477 109.102 556.581 111.884C550.684 114.666 544.235 116.077 537.715 116.01C512.369 116.01 494.356 98.2068 494.356 72.6515C494.356 47.0961 512.378 29.319 537.726 29.319Z" fill="white"/>
<path d="M758.292 4.9436H723.46L663.468 68.2179V4.9436H632.331V140.397H663.468V106.146L681.664 87.1823L725.005 140.397H761.577L702.173 65.3196L758.292 4.9436Z" fill="white"/>
<path d="M993.874 4.93726H962.525V140.39H993.874V4.93726Z" fill="white"/>
<path d="M1138.61 87.1823L1071.27 4.9436H1045.33V140.397H1076.3V58.1582L1143.83 140.397H1169.57V4.9436H1138.61V87.1823Z" fill="white"/>
<path d="M1244.26 43.2607C1244.26 34.7462 1251.41 27.7798 1269.99 27.7798C1283.21 28.023 1296.14 31.6895 1307.53 38.4215L1317.2 14.6209C1304.63 6.68832 1287.21 2.62305 1270.18 2.62305C1231.67 2.62305 1213.1 21.7794 1213.1 44.8176C1213.1 95.1309 1291.85 77.7003 1291.85 103.064C1291.85 111.383 1284.31 117.576 1265.73 117.576C1249.74 117.45 1234.16 112.522 1221.02 103.43L1210.38 127.039C1222.37 136.325 1244.04 142.712 1265.53 142.712C1304.23 142.712 1323 123.361 1323 100.721C1323.01 50.9897 1244.26 68.2108 1244.26 43.2607Z" fill="white"/>
<path fill-rule="evenodd" clip-rule="evenodd" d="M824.3 6.92945C827.235 10.0795 829.17 14.029 829.86 18.2788C830.784 23.9781 829.407 29.8113 826.032 34.4956C822.656 39.1798 817.558 42.3316 811.859 43.2579C807.609 43.9475 803.251 43.3614 799.334 41.5738C795.417 39.7862 792.118 36.8772 789.854 33.2149C787.591 29.5526 786.465 25.3012 786.617 20.9985C786.769 16.6958 788.194 12.5349 790.711 9.04195C793.228 5.54902 796.725 2.88095 800.758 1.37504C804.792 -0.130859 809.181 -0.406919 813.372 0.581748C817.562 1.57042 821.365 3.77943 824.3 6.92945ZM848.215 40.4173C843.303 37.3809 839.799 32.5177 838.473 26.8977H838.471C837.176 21.2889 838.154 15.3955 841.193 10.5064C844.232 5.61741 849.082 2.1307 854.685 0.808911C860.288 -0.512872 866.186 0.437893 871.089 3.45317C875.993 6.46846 879.503 11.3029 880.851 16.8991C882.176 22.5186 881.214 28.4341 878.179 33.3451C875.143 38.2561 870.282 41.7608 864.663 43.0888C859.043 44.4146 853.126 43.4537 848.215 40.4173ZM838.966 91.6546C843.157 90.6657 846.961 88.4561 849.896 85.3053C852.832 82.1546 854.767 78.204 855.457 73.9534C856.147 69.7028 855.562 65.3429 853.774 61.4253C851.986 57.5076 849.076 54.2081 845.413 51.9439C841.75 49.6798 837.499 48.5526 833.195 48.7052C828.892 48.8577 824.73 50.283 821.236 52.8009C817.743 55.3187 815.074 58.816 813.568 62.8504C812.063 66.8848 811.787 71.2752 812.776 75.4663C813.433 78.2491 814.63 80.8756 816.302 83.1953C817.973 85.5151 820.085 87.4828 822.517 88.9861C824.949 90.4894 827.654 91.4988 830.476 91.9567C833.299 92.4145 836.183 92.3119 838.966 91.6546ZM871.124 100.599C876.036 103.635 879.54 108.497 880.867 114.116L880.865 114.119C882.19 119.738 881.23 125.654 878.194 130.566C875.158 135.477 870.296 138.982 864.676 140.308C861.894 140.965 859.009 141.067 856.187 140.609C853.364 140.151 850.66 139.141 848.228 137.638C845.796 136.134 843.684 134.166 842.013 131.846C840.341 129.527 839.143 126.9 838.487 124.117C837.161 118.497 838.122 112.581 841.159 107.669C844.195 102.758 849.058 99.2536 854.678 97.9276C860.297 96.6025 866.213 97.5634 871.124 100.599ZM885.388 92.159C897.412 92.159 907.16 82.4112 907.16 70.3866C907.16 58.3621 897.412 48.6143 885.388 48.6143C873.363 48.6143 863.615 58.3621 863.615 70.3866C863.615 82.4112 873.363 92.159 885.388 92.159ZM925.972 5.93858C929.122 8.87414 931.331 12.6779 932.32 16.869C932.976 19.652 933.078 22.537 932.62 25.3593C932.161 28.1816 931.151 30.886 929.647 33.3179C928.143 35.7499 926.176 37.8619 923.856 39.5332C921.536 41.2046 918.909 42.4025 916.126 43.0587C911.935 44.047 907.545 43.7703 903.511 42.2636C899.477 40.7568 895.981 38.0878 893.464 34.5939C890.947 31.1 889.522 26.9382 889.37 22.6348C889.218 18.3313 890.347 14.0796 892.611 10.4171C894.876 6.75462 898.176 3.8459 902.093 2.05877C906.011 0.271648 910.37 -0.313621 914.621 0.376979C918.871 1.06758 922.822 3.00303 925.972 5.93858Z" fill="white"/>
</svg>
