<?xml version="1.0" standalone="no"?><!DOCTYPE svg PUBLIC "-//W3C//DTD SVG 1.1//EN" "http://www.w3.org/Graphics/SVG/1.1/DTD/svg11.dtd"><svg t="1592878022673" class="icon" viewBox="0 0 1024 1024" version="1.1" xmlns="http://www.w3.org/2000/svg" p-id="4329" xmlns:xlink="http://www.w3.org/1999/xlink" width="200" height="200"><defs><style type="text/css"></style></defs><path d="M921.6 341.333333a34.133333 34.133333 0 0 1-15.018667-3.413333L512 136.533333 117.418667 336.554667A35.089067 35.089067 0 0 1 87.381333 273.066667L512 62.805333 936.618667 273.066667a34.952533 34.952533 0 0 1-15.018667 68.266666zM341.333333 682.666667H136.533333v204.8h204.8v-204.8z m273.066667 0H409.6v204.8h204.8v-204.8z m273.066667 0h-204.8v204.8h204.8v-204.8z m-136.533334-273.066667H546.133333v204.8h204.8V409.6zM477.866667 409.6H273.066667v204.8h204.8V409.6z" fill="#2c2c2c" p-id="4330"></path></svg>