<?xml version="1.0" encoding="utf-8"?>
<!-- Generator: Adobe Illustrator 23.0.4, SVG Export Plug-In . SVG Version: 6.00 Build 0)  -->
<svg version="1.1" id="Layer_1" xmlns="http://www.w3.org/2000/svg" xmlns:xlink="http://www.w3.org/1999/xlink" x="0px" y="0px"
	 viewBox="0 0 512 512" style="enable-background:new 0 0 512 512;" xml:space="preserve">
<style type="text/css">
	.st0{fill:#E82934;}
	.st1{fill:#FFFFFF;}
</style>
<circle class="st0" cx="256" cy="256" r="256"/>
<path class="st1" d="M382.1,221.2v69.6c0,2.2-1.8,4-4,4h-79.3c-2.2,0-4,1.8-4,4v79.3c0,2.2-1.8,4-4,4h-69.6c-2.2,0-4-1.8-4-4v-79.3
	c0-2.2-1.8-4-4-4h-79.3c-2.2,0-4-1.8-4-4v-69.6c0-2.2,1.8-4,4-4h79.3c2.2,0,4-1.8,4-4v-79.3c0-2.2,1.8-4,4-4h69.6c2.2,0,4,1.8,4,4
	v79.3c0,2.2,1.8,4,4,4h79.3C380.3,217.2,382.1,219,382.1,221.2z"/>
</svg>
