<?xml version="1.0" encoding="utf-8"?>
<!-- Generator: Adobe Illustrator 24.1.0, SVG Export Plug-In . SVG Version: 6.00 Build 0)  -->
<svg version="1.1" id="圖層_1" xmlns="http://www.w3.org/2000/svg" xmlns:xlink="http://www.w3.org/1999/xlink" x="0px" y="0px"
	 viewBox="0 0 200 200" style="enable-background:new 0 0 200 200;" xml:space="preserve">
<style type="text/css">
	.st0{fill:#333333;}
</style>
<g>
	<path class="st0" d="M100,2C45.9,2,2,45.9,2,100s43.9,98,98,98c54.1,0,98-43.9,98-98S154.1,2,100,2z M100,173.5
		c-40.6,0-73.5-32.9-73.5-73.5S59.4,26.5,100,26.5c40.6,0,73.5,32.9,73.5,73.5S140.6,173.5,100,173.5z"/>
	<path class="st0" d="M90.9,150.5h18.1c1.8,0,3.2-1.4,3.2-3.2V92.4c0-1.8-1.4-3.2-3.2-3.2H90.9c-1.8,0-3.2,1.4-3.2,3.2v54.9
		C87.8,149.1,89.2,150.5,90.9,150.5z"/>
	<path class="st0" d="M90.9,74h18.1c1.8,0,3.2-1.4,3.2-3.2V52.7c0-1.8-1.4-3.2-3.2-3.2H90.9c-1.8,0-3.2,1.4-3.2,3.2v18.1
		C87.8,72.6,89.2,74,90.9,74z"/>
</g>
</svg>
