<?xml version="1.0" encoding="utf-8"?>
<!-- Generator: Adobe Illustrator 24.1.0, SVG Export Plug-In . SVG Version: 6.00 Build 0)  -->
<svg version="1.1" id="圖層_1" xmlns="http://www.w3.org/2000/svg" xmlns:xlink="http://www.w3.org/1999/xlink" x="0px" y="0px"
	 viewBox="0 0 200 200" style="enable-background:new 0 0 200 200;" xml:space="preserve">
<style type="text/css">
	.st0{fill:#333333;}
	.st1{fill:#FFFFFF;}
</style>
<path class="st0" d="M100,2C45.9,2,2,45.9,2,100s43.9,98,98,98s98-43.9,98-98S154.1,2,100,2C100,2,100,2,100,2z"/>
<path class="st1" d="M106.4,132.2H92.8c-2.2,0-3.8-1.6-3.8-3.7v-8.3c0-11,7.3-21,18.1-24.6c3.2-1,6.2-2.9,8.7-5.5
	c13.5-15.7,1.1-34.6-15.2-35.1c-6-0.3-11.6,1.8-16,5.8c-3.5,3.1-5.7,7.1-6.2,11.5c-0.3,1.6-1.9,2.9-4.1,2.9H60.9
	c-2.4,0-4.3-1.8-4.1-4.2c1.1-10,5.7-18.9,13-25.9c8.7-7.9,19.7-12.1,31.7-11.8c22.5,0.8,40.9,18.6,41.7,40.3
	c0.8,18.3-10.8,34.8-28.4,41.1c-2.4,1-4.1,2.9-4.1,5.2v8.3C110.7,130.6,108.5,132.2,106.4,132.2z M110.7,162.8
	c0,2.2-1.9,4.1-4.1,4.1H93.1c-2.2,0-4.1-1.9-4.1-4.1v-13.5c0-2.2,1.9-4.1,4.1-4.1h13.5c2.2,0,4.1,1.9,4.1,4.1V162.8z"/>
</svg>
