<?xml version="1.0" standalone="no"?><!DOCTYPE svg PUBLIC "-//W3C//DTD SVG 1.1//EN" "http://www.w3.org/Graphics/SVG/1.1/DTD/svg11.dtd"><svg t="1581038773458" class="icon" viewBox="0 0 1024 1024" version="1.1" xmlns="http://www.w3.org/2000/svg" p-id="6964" xmlns:xlink="http://www.w3.org/1999/xlink" width="200" height="200"><defs><style type="text/css"></style></defs><path d="M415.744 64C363.264 64 320 107.264 320 159.744V192H128v64h64v544c0 52.736 43.264 96 96 96h384c52.736 0 96-43.264 96-96V256h64V192h-192v-32.256C640 107.264 596.736 64 544.256 64z m0 64h128.512c17.984 0 31.744 13.76 31.744 31.744V192H384v-32.256C384 141.76 397.76 128 415.744 128zM256 256h448v544c0 17.984-14.016 32-32 32h-384a31.616 31.616 0 0 1-32-32z m64 64v448h64V320z m128 0v448h64V320z m128 0v448h64V320z" fill="#707070" p-id="6965"></path></svg>