<?xml version="1.0" encoding="utf-8"?>
<!-- Generator: Adobe Illustrator 24.0.3, SVG Export Plug-In . SVG Version: 6.00 Build 0)  -->
<svg version="1.1" id="圖層_1" xmlns="http://www.w3.org/2000/svg" xmlns:xlink="http://www.w3.org/1999/xlink" x="0px" y="0px"
	 viewBox="0 0 200 200" style="enable-background:new 0 0 200 200;" xml:space="preserve">
<style type="text/css">
	.st0{fill:#90004C;}
</style>
<g>
	<path class="st0" d="M14.5,72.5c4.1,0,7.5-3.4,7.5-7.5V49.5c0-4.1-3.4-7.5-7.5-7.5S7,45.4,7,49.5V65C7,69.1,10.3,72.5,14.5,72.5z"
		/>
	<path class="st0" d="M190.2,8.6c0,0-0.1-0.1-0.1-0.1c-1-0.7-2.1-1.2-3.2-1.4c-0.5-0.1-1-0.1-1.3-0.1H14.5C10.3,7,7,10.3,7,14.5
		s3.4,7.5,7.5,7.5H176c1.1,0,2,0.9,2,2v114c0,1.1-0.9,2-2,2H24c-1.1,0-2-0.9-2-2v-38c0-4.1-3.4-7.5-7.5-7.5S7,95.9,7,100v47.5
		c0,4.1,3.4,7.5,7.5,7.5h62.6c0.8,0,1.5,0.5,1.8,1.2c0.3,0.7,0.1,1.6-0.4,2.2l-21.8,21.8c-2.9,2.9-2.9,7.7,0,10.6
		c2.9,2.9,7.7,2.9,10.6,0l31.3-31.3c0.4-0.4,0.9-0.6,1.4-0.6s1,0.2,1.4,0.6l31.3,31.3c2.9,2.9,7.7,2.9,10.6,0
		c2.9-2.9,2.9-7.7,0-10.6l-21.8-21.8c-0.6-0.6-0.7-1.4-0.4-2.2c0.3-0.7,1-1.2,1.8-1.2h62.6c4.1,0,7.5-3.4,7.5-7.5v-133
		C193,12.2,192,10,190.2,8.6z"/>
	<path class="st0" d="M60.5,112.5V100c0-4.1-3.4-7.5-7.5-7.5s-7.5,3.4-7.5,7.5v12.5c0,4.1,3.4,7.5,7.5,7.5S60.5,116.6,60.5,112.5z"
		/>
	<path class="st0" d="M91.8,112.5v-41c0-4.1-3.4-7.5-7.5-7.5s-7.5,3.4-7.5,7.5v41c0,4.1,3.4,7.5,7.5,7.5S91.8,116.6,91.8,112.5z"/>
	<path class="st0" d="M154.6,112.5v-63c0-4.1-3.4-7.5-7.5-7.5s-7.5,3.4-7.5,7.5v63c0,4.1,3.4,7.5,7.5,7.5S154.6,116.6,154.6,112.5z"
		/>
	<path class="st0" d="M123.2,112.5V81c0-4.1-3.4-7.5-7.5-7.5s-7.5,3.4-7.5,7.5v31.5c0,4.1,3.4,7.5,7.5,7.5S123.2,116.6,123.2,112.5z
		"/>
</g>
</svg>
