<svg xmlns="http://www.w3.org/2000/svg" viewBox="0 0 24.25 24.25"><defs><style>.cls-1{fill:#90004c;}</style></defs><title>uc-menu-n-6</title><g id="圖層_2" data-name="圖層 2"><g id="圖層_1-2" data-name="圖層 1"><path class="cls-1" d="M12.12,0A12.13,12.13,0,1,0,24.25,12.12,12.16,12.16,0,0,0,12.12,0ZM22.83,12.12A10.71,10.71,0,1,1,12.12,1.42,10.73,10.73,0,0,1,22.83,12.12Z"/><path class="cls-1" d="M8.54,4.79a.71.71,0,1,0,.63,1.27,6.77,6.77,0,0,1,9,3.11,6.68,6.68,0,0,1,.68,2.95.71.71,0,0,0,.71.72h0a.71.71,0,0,0,.71-.71A8.17,8.17,0,0,0,8.54,4.79Z"/><path class="cls-1" d="M5.87,8a.71.71,0,0,0-1,.3,8.18,8.18,0,0,0-1,3.81.71.71,0,0,0,.71.72h0a.71.71,0,0,0,.68-.71A6.8,6.8,0,0,1,6.17,9,.72.72,0,0,0,5.87,8Z"/><path class="cls-1" d="M12.12,8.13a4.06,4.06,0,0,0-2.06.6L7.48,6.15a.73.73,0,0,0-1,0,.71.71,0,0,0-.21.51.67.67,0,0,0,.21.5L9,9.68a4,4,0,1,0,7.11,2.44A4,4,0,0,0,12.12,8.13Zm2.57,4a2.57,2.57,0,1,1-2.57-2.56A2.58,2.58,0,0,1,14.69,12.12Z"/></g></g></svg>