<svg xmlns="http://www.w3.org/2000/svg" viewBox="0 0 21.25 23.76"><defs><style>.cls-1{fill:#90004c;}</style></defs><title>uc-menu-n-4</title><g id="圖層_2" data-name="圖層 2"><g id="圖層_1-2" data-name="圖層 1"><path class="cls-1" d="M17,3.8H3.2a.7.7,0,1,0,0,1.4H17a.7.7,0,0,0,0-1.4Z"/><path class="cls-1" d="M9.16,9h-6a.7.7,0,1,0,0,1.39h6A.7.7,0,1,0,9.16,9Z"/><path class="cls-1" d="M4.72,14.21H3.2a.7.7,0,0,0,0,1.4H4.72a.7.7,0,0,0,0-1.4Z"/><path class="cls-1" d="M20.68,17.4l-.93-.79h0V2.46A2.37,2.37,0,0,0,17.53,0H2.19A2.32,2.32,0,0,0,0,2.42V19.59a2.36,2.36,0,0,0,2.23,2.46H14.07l1.57,1.33a1.65,1.65,0,0,0,1.06.39h.14A1.7,1.7,0,0,0,18,23.18l2.9-3.45a1.72,1.72,0,0,0,.39-1.21A1.7,1.7,0,0,0,20.68,17.4Zm-2.32-2-2.67-2.25a3,3,0,0,0-2-.66h0L11,12.75a1.68,1.68,0,0,0-1.51,1.79l.23,2.69a3.08,3.08,0,0,0,1,1.9l1.79,1.52H2.28a1,1,0,0,1-.88-1V2.38a.93.93,0,0,1,.83-1H17.48a1,1,0,0,1,.88,1Zm-7.48,1.66-.23-2.66a.44.44,0,0,1,.41-.47l2.66-.23h.07a1.84,1.84,0,0,1,1.13.39l5,4.2a.44.44,0,0,1,.15.3.46.46,0,0,1-.1.32L17,22.38a.46.46,0,0,1-.31.15.4.4,0,0,1-.31-.1l-5-4.22A1.79,1.79,0,0,1,10.88,17.09Z"/></g></g></svg>