<svg xmlns="http://www.w3.org/2000/svg" viewBox="0 0 21.25 23.76"><defs><style>.cls-1{fill:#90004c;}</style></defs><title>uc-menu-n-5</title><g id="圖層_2" data-name="圖層 2"><g id="圖層_1-2" data-name="圖層 1"><path class="cls-1" d="M17,3.8H3.2a.7.7,0,1,0,0,1.4H17a.7.7,0,0,0,0-1.4Z"/><path class="cls-1" d="M9.16,9h-6a.7.7,0,1,0,0,1.39h6A.7.7,0,1,0,9.16,9Z"/><path class="cls-1" d="M4.72,14.21H3.2a.7.7,0,0,0,0,1.4H4.72a.7.7,0,0,0,0-1.4Z"/><path class="cls-1" d="M6.74,15.74a.74.74,0,0,0-.22.49.69.69,0,0,0,.19.5l3.39,3.6a.69.69,0,0,0,.51.22.7.7,0,0,0,.51-1.18l-3.39-3.6A.71.71,0,0,0,6.74,15.74Z"/><path class="cls-1" d="M21,20.94l-1.28-1.41a.54.54,0,0,0,.05-.22V2.46A2.37,2.37,0,0,0,17.53,0H2.18A2.32,2.32,0,0,0,0,2.42V19.59a2.36,2.36,0,0,0,2.23,2.46H16.79A.58.58,0,0,0,17,22l1.26,1.4a1,1,0,0,0,.73.35H19a1,1,0,0,0,.69-.27l1.19-1.07a1,1,0,0,0,.35-.72A1.05,1.05,0,0,0,21,20.94Zm-5.72-4.26,4.44,4.93-.66.6-4.44-4.93Zm3.09-3.79L15.18,9.52a.64.64,0,0,0-.48-.22A.7.7,0,0,0,14,10a.68.68,0,0,0,.19.5l3.38,3.6a.75.75,0,0,0,.51.21.73.73,0,0,0,.3-.07V18l-2.1-2.34.37-.33a1,1,0,0,0,.31-.64,1,1,0,0,0-.24-.67L13.93,11a1,1,0,0,0-.64-.31h0a1,1,0,0,0-.63.24L8.7,14.44a.94.94,0,0,0-.3.65.9.9,0,0,0,.24.66l2.76,3.07a.94.94,0,0,0,.65.31h0a.94.94,0,0,0,.62-.24l.81-.73,2.24,2.49H2.28a1,1,0,0,1-.88-1V2.38a.93.93,0,0,1,.83-1H17.48a1,1,0,0,1,.88,1Zm-6.23,4.65L10,15.16l3.23-2.9,2.13,2.37Z"/></g></g></svg>