<svg xmlns="http://www.w3.org/2000/svg" viewBox="0 0 23.44 24.14"><defs><style>.cls-1{fill:#90004c;}</style></defs><title>uc-menu-n-3</title><g id="圖層_2" data-name="圖層 2"><g id="圖層_1-2" data-name="圖層 1"><path class="cls-1" d="M2.8,16H8.86a.65.65,0,0,0,.65-.65.66.66,0,0,0-.65-.66H2.8a.66.66,0,0,0-.65.66A.65.65,0,0,0,2.8,16Z"/><path class="cls-1" d="M2.8,19.27H8.86a.66.66,0,0,0,0-1.31H2.8a.66.66,0,0,0,0,1.31Z"/><path class="cls-1" d="M21.2,6h-.46L18.35,1.22a2.24,2.24,0,0,0-3-1L4,6H2.23A2.23,2.23,0,0,0,0,8.19V21.9a2.24,2.24,0,0,0,2.23,2.24h19a2.25,2.25,0,0,0,2.24-2.24V8.19A2.24,2.24,0,0,0,21.2,6ZM1.3,12.65H22.13V21.9a.93.93,0,0,1-.93.93h-19a.93.93,0,0,1-.93-.93ZM17.19,1.81l.9,1.79L13.29,6H6.93l9-4.56A.94.94,0,0,1,17.19,1.81ZM16.25,6l2.43-1.19L19.29,6Zm4.95,1.3a.93.93,0,0,1,.93.93v3.16H1.3V8.19a.93.93,0,0,1,.93-.93Z"/></g></g></svg>