<svg xmlns="http://www.w3.org/2000/svg" viewBox="0 0 19.04 23.06"><defs><style>.cls-1{fill:#90004c;}</style></defs><title>uc-menu-watch</title><g id="圖層_2" data-name="圖層 2"><g id="圖層_1-2" data-name="圖層 1"><path class="cls-1" d="M9.52,21.65a1.08,1.08,0,0,1-1.08-1.08H7a2.48,2.48,0,1,0,5,0H10.6A1.08,1.08,0,0,1,9.52,21.65Z"/><path class="cls-1" d="M16.8,15.68V9.52a7.22,7.22,0,0,0-5.6-7.06V1.68a1.68,1.68,0,0,0-3.36,0v.78a7.22,7.22,0,0,0-5.6,7.06v6.16L0,17.92V19H19V17.92Zm-14.54,2,1-1a1.41,1.41,0,0,0,.41-1V9.52a5.81,5.81,0,0,1,4.53-5.7A1.39,1.39,0,0,0,9.24,2.46V1.68a.34.34,0,0,1,.28-.28.34.34,0,0,1,.28.28v.78a1.39,1.39,0,0,0,1.07,1.36,5.81,5.81,0,0,1,4.53,5.7v6.16a1.41,1.41,0,0,0,.41,1l1,1Z"/></g></g></svg>