<svg xmlns="http://www.w3.org/2000/svg" viewBox="0 0 21.25 23.76"><defs><style>.cls-1{fill:#90004c;}</style></defs><title>uc-menu-n-1</title><g id="圖層_2" data-name="圖層 2"><g id="圖層_1-2" data-name="圖層 1"><path class="cls-1" d="M17,3.8H3.2a.7.7,0,1,0,0,1.4H17a.7.7,0,0,0,0-1.4Z"/><path class="cls-1" d="M9.16,9h-6a.7.7,0,1,0,0,1.39h6A.7.7,0,1,0,9.16,9Z"/><path class="cls-1" d="M4.72,14.21H3.2a.7.7,0,0,0,0,1.4H4.72a.7.7,0,0,0,0-1.4Z"/><path class="cls-1" d="M19.74,13a.14.14,0,0,0,0-.07V2.46A2.37,2.37,0,0,0,17.53,0H2.19A2.32,2.32,0,0,0,0,2.42V19.59a2.36,2.36,0,0,0,2.23,2.46h7.89l.1,0a6.54,6.54,0,0,0,4.43,1.73A6.6,6.6,0,0,0,19.74,13ZM18.36,11.7A6.6,6.6,0,0,0,8,17.15a6.52,6.52,0,0,0,1,3.5H2.28a1,1,0,0,1-.88-1V2.38a.93.93,0,0,1,.83-1H17.48a1,1,0,0,1,.88,1ZM9.28,17.15a5.37,5.37,0,1,1,5.37,5.37A5.38,5.38,0,0,1,9.28,17.15Z"/><path class="cls-1" d="M14.32,17.59v2.35a3.18,3.18,0,0,1-.86-.16,2.48,2.48,0,0,1-.83-.41.13.13,0,0,0-.2.1v.88a.14.14,0,0,0,.07.11,3.83,3.83,0,0,0,1.8.44h0v.62a.12.12,0,0,0,.13.12H15a.12.12,0,0,0,.12-.12v-.67a2.81,2.81,0,0,0,1.42-.65,1.65,1.65,0,0,0,.56-1.28,1.61,1.61,0,0,0-.46-1.15,4.9,4.9,0,0,0-1.51-.95V14.39a2.55,2.55,0,0,1,1.29.41.11.11,0,0,0,.12,0,.12.12,0,0,0,.07-.11v-.85a.12.12,0,0,0-.07-.11,3.5,3.5,0,0,0-1.39-.29h0v-.65a.12.12,0,0,0-.13-.12h-.56a.12.12,0,0,0-.13.12v.69a2.46,2.46,0,0,0-1.33.65,1.85,1.85,0,0,0-.2,2.49A4.49,4.49,0,0,0,14.32,17.59Zm-.74-2.22a.88.88,0,0,1,.23-.61,1.15,1.15,0,0,1,.51-.3v2a2.29,2.29,0,0,1-.55-.42A1,1,0,0,1,13.58,15.37ZM16,19c0,.45-.27.74-.81.89V18C15.68,18.29,16,18.63,16,19Z"/></g></g></svg>