<?xml version="1.0" encoding="utf-8"?>
<!-- Generator: Adobe Illustrator 23.0.3, SVG Export Plug-In . SVG Version: 6.00 Build 0)  -->
<svg version="1.1" id="圖層_1" xmlns="http://www.w3.org/2000/svg" xmlns:xlink="http://www.w3.org/1999/xlink" x="0px" y="0px"
	 viewBox="0 0 20.2 18.2" style="enable-background:new 0 0 20.2 18.2;" xml:space="preserve">
<style type="text/css">
	.st0{fill:#FFFFFF;}
</style>
<g>
	<path class="st0" d="M19.7,9.9L19.7,9.9l-3.3-3.3c-0.7-0.7-1.7-0.7-2.4,0l-0.1,0.1v1.5c0,0,0,0,0,0.1c0,0.3-0.2,0.5-0.5,0.5
		c0,0-0.1,0-0.1,0v0H6.9c-0.1,0-0.1,0-0.2,0c-0.7,0-1.3,0.6-1.3,1.3c0,0,0,0,0,0c0,0,0,0.1,0,0.1v1.1c-0.3,0.2-0.6,0.1-0.8-0.1
		L1.2,7.9c-0.3-0.3-0.3-0.7,0-1l3.3-3.3c0.2-0.2,0.6-0.3,0.8-0.1v1.1c0,0,0,0.1,0,0.1c0,0.7,0.6,1.4,1.3,1.4c0,0,0.1,0,0.1,0h2.9
		c0.3,0,0.5-0.2,0.5-0.5c0-0.3-0.2-0.5-0.5-0.5H7v0c0,0-0.1,0-0.1,0c-0.3,0-0.5-0.2-0.5-0.5c0,0,0-0.1,0-0.1h0V3L6.2,2.9
		c-0.7-0.7-1.7-0.7-2.4,0L0.5,6.2c-0.7,0.7-0.7,1.7,0,2.4l0,0L3.8,12c0.7,0.7,1.7,0.7,2.4,0l0,0l0.1-0.1v-1.6h0
		c0-0.2,0.2-0.3,0.4-0.4H7l0,0v0h6.4c0.7,0,1.3-0.6,1.3-1.4c0,0,0,0,0,0c0,0,0-0.1,0-0.1V7.2c0.3-0.2,0.6-0.1,0.8,0.1l3.3,3.3
		c0.3,0.3,0.3,0.7,0,1l-3.3,3.3c-0.2,0.2-0.6,0.3-0.8,0.1v-0.7c0,0,0-0.1,0-0.1c0-0.7-0.6-1.4-1.3-1.4H8.1c0,0,0,0-0.1,0
		c-0.3,0-0.5,0.2-0.5,0.5c0,0.3,0.2,0.5,0.5,0.5c0,0,0,0,0.1,0h5v0c0,0,0,0,0,0h0.3c0.2,0.1,0.4,0.3,0.4,0.5c0,0,0,0,0,0.1v1.1
		l0.2,0.2c0.7,0.7,1.7,0.6,2.4,0l0,0l3.3-3.3C20.3,11.7,20.3,10.6,19.7,9.9z"/>
	<path class="st0" d="M7.7,1.4c0.1,0,0.2,0,0.3-0.1C8.6,1.1,9.4,1,10.1,1c2.8,0,5.5,1.5,6.9,3.9c0.1,0.2,0.3,0.3,0.5,0.3
		C17.8,5.2,18,5,18,4.7c0-0.1,0-0.2-0.1-0.3l0,0C16.3,1.7,13.3,0,10.1,0C9.2,0,8.3,0.1,7.4,0.4l0,0C7.3,0.5,7.2,0.7,7.2,0.9
		C7.2,1.1,7.4,1.4,7.7,1.4z"/>
	<path class="st0" d="M11.6,5.1c-0.3,0-0.5,0.2-0.5,0.5c0,0,0,0,0,0c0,0.3,0.2,0.5,0.5,0.5c0.3,0,0.5-0.2,0.5-0.5c0,0,0,0,0,0
		C12.1,5.3,11.9,5.1,11.6,5.1C11.6,5.1,11.6,5.1,11.6,5.1z"/>
	<path class="st0" d="M12.5,16.9L12.5,16.9c-0.1,0-0.2,0-0.3,0.1l0,0c-0.7,0.2-1.4,0.3-2.1,0.3c-2.9,0-5.6-1.6-7-4.1
		c-0.1-0.2-0.3-0.4-0.5-0.4c-0.3,0-0.5,0.2-0.5,0.5c0,0.1,0,0.2,0.1,0.2c1.6,2.9,4.7,4.7,8,4.7c0.9,0,1.8-0.1,2.6-0.4l0,0
		c0.2-0.1,0.3-0.3,0.3-0.4C13,17.1,12.8,16.9,12.5,16.9z"/>
</g>
</svg>
