<?xml version="1.0" encoding="utf-8"?>
<!-- Generator: Adobe Illustrator 23.0.3, SVG Export Plug-In . SVG Version: 6.00 Build 0)  -->
<svg version="1.1" id="圖層_1" xmlns="http://www.w3.org/2000/svg" xmlns:xlink="http://www.w3.org/1999/xlink" x="0px" y="0px"
	 viewBox="0 0 15.8 18.2" style="enable-background:new 0 0 15.8 18.2;" xml:space="preserve">
<style type="text/css">
	.st0{fill:#FFFFFF;}
</style>
<g>
	<path class="st0" d="M12.5,15.6C12.5,15.6,12.5,15.6,12.5,15.6c0.4,0,0.6-0.3,0.6-0.6V2c0,0,0,0,0,0c0-0.3-0.3-0.6-0.6-0.6H9.9
		C9.5,1.4,9.3,1.6,9.3,2s0.3,0.6,0.6,0.6h2v11.8H1.2V2.6h2c0.3,0,0.6-0.3,0.6-0.6S3.5,1.4,3.2,1.4H0.6C0.3,1.4,0,1.6,0,2v13
		c0,0.2,0.1,0.3,0.2,0.4c0.1,0.1,0.3,0.2,0.4,0.2L12.5,15.6L12.5,15.6z"/>
	<path class="st0" d="M15.2,4.7c-0.3,0-0.6,0.3-0.6,0.6V17H3.9c-0.3,0-0.6,0.3-0.6,0.6c0,0.3,0.3,0.6,0.6,0.6h11.3l0,0
		c0.3,0,0.6-0.3,0.6-0.6V5.3C15.8,5,15.5,4.7,15.2,4.7z"/>
	<path class="st0" d="M5.1,1.2H8c0.3,0,0.6-0.3,0.6-0.6C8.6,0.3,8.3,0,8,0H5.1C4.7,0,4.5,0.3,4.5,0.6C4.5,0.9,4.7,1.2,5.1,1.2z"/>
	<path class="st0" d="M9.9,7.1H3c-0.3,0-0.5,0.2-0.5,0.5S2.7,8.1,3,8.1h6.8c0.3,0,0.5-0.2,0.5-0.5S10.1,7.1,9.9,7.1z"/>
	<path class="st0" d="M3,5.2h4.3h0c0.3,0,0.5-0.2,0.5-0.5c0-0.3-0.2-0.5-0.5-0.5H3c-0.3,0-0.5,0.2-0.5,0.5C2.5,4.9,2.7,5.2,3,5.2z"
		/>
	<circle class="st0" cx="3.2" cy="10.6" r="0.6"/>
	<path class="st0" d="M6,10.6c0,0.3,0.3,0.6,0.6,0.6c0.3,0,0.6-0.3,0.6-0.6c0-0.3-0.3-0.6-0.6-0.6C6.3,9.9,6,10.2,6,10.6z"/>
	<path class="st0" d="M10.2,9.9c-0.3,0-0.6,0.3-0.6,0.6c0,0.3,0.3,0.6,0.6,0.6c0.3,0,0.6-0.3,0.6-0.6C10.8,10.2,10.5,9.9,10.2,9.9
		C10.2,9.9,10.2,9.9,10.2,9.9z"/>
</g>
</svg>
