<svg xmlns="http://www.w3.org/2000/svg" xmlns:xlink="http://www.w3.org/1999/xlink" viewBox="0 0 19.1 20.01"><defs><style>.cls-1{fill:url(#未命名漸層_3);}</style><linearGradient id="未命名漸層_3" x1="-107.21" y1="48.81" x2="-106.58" y2="48.01" gradientTransform="matrix(19.1, 0, 0, -20.01, 2048.69, 977.79)" gradientUnits="userSpaceOnUse"><stop offset="0" stop-color="#fd9580"/><stop offset="1" stop-color="#f45b4e"/></linearGradient></defs><title>wallet-r-a</title><g id="圖層_2" data-name="圖層 2"><g id="圖層_1-2" data-name="圖層 1"><g id="Group_1499" data-name="Group 1499"><path id="Path_1133" data-name="Path 1133" class="cls-1" d="M18.93,17.9a1.9,1.9,0,0,1-.17.81,5.25,5.25,0,0,1-.4.68,2.79,2.79,0,0,1-.63.45,1.7,1.7,0,0,1-.8.17H2.11a1.7,1.7,0,0,1-.8-.17,1.39,1.39,0,0,1-.68-.45,2,2,0,0,1-.46-.68A1.9,1.9,0,0,1,0,17.9V6.6A2,2,0,0,1,.63,5.12a2.07,2.07,0,0,1,1.48-.63H17a2.15,2.15,0,0,1,2.1,2.1V9.66H13.82a2,2,0,0,0-1.48.57,2,2,0,0,0-.63,1.49,2.75,2.75,0,0,0,.22,1,1.43,1.43,0,0,0,.63.68,1.82,1.82,0,0,0,1.19.34h5.17ZM15.86,3.47H5.58c.8-.4,1.59-.85,2.33-1.25l1.87-1c.63-.34,1.08-.57,1.48-.8A3,3,0,0,1,12.68,0a3.07,3.07,0,0,1,1.08.23,2.44,2.44,0,0,1,.85.68Zm-3.07,8.25a1.2,1.2,0,0,1,.29-.74,1.06,1.06,0,0,1,.74-.29,1.15,1.15,0,0,1,.73.29,1.06,1.06,0,0,1,.29.74,1.2,1.2,0,0,1-.29.74.87.87,0,0,1-.73.28,1.21,1.21,0,0,1-.74-.28A1,1,0,0,1,12.79,11.72Z"/></g></g></g></svg>