<svg xmlns="http://www.w3.org/2000/svg" width="23.998" height="22.568" viewBox="0 0 23.998 22.568">
  <g id="Group_906" data-name="Group 906" transform="translate(-2945.8 -9912.242)">
    <path id="Path_792" data-name="Path 792" d="M-152.479,13.648h-3.193a2.584,2.584,0,0,0-2.556-2.238h-12.253a2.584,2.584,0,0,0-2.572,2.582v1.99a2.95,2.95,0,0,0-.067.623V30.623a2.96,2.96,0,0,0,2.957,2.957h17.684a2.96,2.96,0,0,0,2.957-2.957V16.605a2.96,2.96,0,0,0-2.957-2.957Zm-17.991-1.3h12.253a1.655,1.655,0,0,1,1.616,1.309h-13.562a2.94,2.94,0,0,0-1.951.748v-.413a1.655,1.655,0,0,1,1.644-1.644Zm19.891,14.721h-8.091a2.949,2.949,0,0,1-2.949-2.949,2.949,2.949,0,0,1,2.949-2.949h8.093Zm-8.091-6.969a4.013,4.013,0,0,0-4.013,4.013,4.013,4.013,0,0,0,4.013,4.013h8.093v2.5a1.9,1.9,0,0,1-.559,1.34,1.9,1.9,0,0,1-1.343.551h-17.684a1.894,1.894,0,0,1-1.893-1.893V16.605a1.894,1.894,0,0,1,1.893-1.893h17.684a1.894,1.894,0,0,1,1.342.552,1.9,1.9,0,0,1,.557,1.34v3.5Zm0,0" transform="translate(3119.12 9901.032)" fill="#90004c" stroke="#90004c" stroke-width="0.4"/>
    <path id="Path_793" data-name="Path 793" d="M414.8,430.258a1.069,1.069,0,1,0,.534-.926,1.068,1.068,0,0,0-.534.926Zm0,0" transform="translate(2544.4 9494.811)" fill="#90004c" stroke="#90004c" stroke-width="0.4"/>
  </g>
</svg>
