<svg id="圖層_1" data-name="圖層 1" xmlns="http://www.w3.org/2000/svg" viewBox="0 0 200 400"><defs><style>.cls-1{fill:#333;}.cls-2{fill:#e9cedb;}</style></defs><title>wm-full</title><path class="cls-1" d="M57.65,251.45a8.13,8.13,0,0,0-8.1,8.1c0,.08,0,.16,0,.24a8.09,8.09,0,0,0,16.18,0c0-.08,0-.16,0-.24A8.2,8.2,0,0,0,57.65,251.45Z"/><circle class="cls-1" cx="57.65" cy="299.95" r="8.1" transform="translate(-67.37 21.27) rotate(-13.28)"/><path class="cls-1" d="M26.65,350V231.25c0-7.5,5.2-12.7,12.7-12.7H158.11l13.17-13.17a29,29,0,0,0-10.53-1.93H39.35c-15.8,0-27.8,11.9-27.8,27.8V365.11Z"/><path class="cls-1" d="M173.35,250V368.65c0,7.5-5.2,12.7-12.7,12.7H42L28.74,394.59a28.93,28.93,0,0,0,10.61,2h121.3c15.8,0,27.8-11.9,27.8-27.8V234.88Z"/><path class="cls-1" d="M113.15,332.35H91L80.21,343.12c1,3.36,3.8,5.43,7.74,5.43h25.2c4.9,0,8.1-3.2,8.1-8.1S118.05,332.35,113.15,332.35Z"/><path class="cls-2" d="M80.73,295.93a7,7,0,0,1,3.2-3.2l21-21c-2.71-1.5-5.49-2.89-8.35-4.14H88c-4,0-6.83-2-7.77-5.48a96.56,96.56,0,0,0-14.44-2.28,8.09,8.09,0,0,1-16.18,0,97.1,97.1,0,0,0-22.91,4.69V350Zm-23.08-4.08a8.1,8.1,0,1,1-8.1,8.1A8.13,8.13,0,0,1,57.65,291.85Z"/><path class="cls-2" d="M115.28,308.05,91,332.35h22.17c4.9,0,8.1,3.2,8.1,8.1s-3.2,8.1-8.1,8.1H88c-3.94,0-6.78-2.07-7.74-5.43L42,381.35H152.16a97.83,97.83,0,0,0-10.11-73.3Z"/><path class="cls-1" d="M143.45,291.85h-12l-16.2,16.2h28.27c4.9,0,8.1-3.2,8.1-8.1S148.35,291.85,143.45,291.85Z"/><path class="cls-1" d="M88,267.55h21.16l16-16a9.45,9.45,0,0,0-1.88-.18H88c-4.9,0-8.1,3.2-8.1,8.1a9.89,9.89,0,0,0,.33,2.62C81.12,265.51,84,267.55,88,267.55Z"/><path class="cls-1" d="M187.31,205.19a7.44,7.44,0,0,0-5.3,2.2L7.39,382A7.5,7.5,0,1,0,18,392.61L192.61,218a7.5,7.5,0,0,0-5.3-12.8Z"/><path class="cls-2" d="M39.35,181.35H152.16a97.83,97.83,0,0,0-10.11-73.3H88c-4.9,0-8.1-3.2-8.1-8.1s3.2-8.1,8.1-8.1h42.31a97.92,97.92,0,0,0-33.64-24.3H88c-4,0-6.83-2-7.77-5.48a96.56,96.56,0,0,0-14.44-2.28,8.09,8.09,0,0,1-16.18,0,97.1,97.1,0,0,0-22.91,4.69V168.65C26.65,176.15,31.85,181.35,39.35,181.35Zm48.6-49h25.2c4.9,0,8.1,3.2,8.1,8.1s-3.2,8.1-8.1,8.1H88c-4.9,0-8.1-3.2-8.1-8.1S83.05,132.35,88,132.35Zm-30.3-40.5a8.1,8.1,0,1,1-8.1,8.1A8.13,8.13,0,0,1,57.65,91.85Zm0,40.5a8.1,8.1,0,1,1-8.1,8.1A8.2,8.2,0,0,1,57.65,132.35Z"/><path class="cls-1" d="M160.75,3.45H39.35c-15.8,0-27.8,11.9-27.8,27.8v137.5c0,15.8,11.9,27.8,27.8,27.8h121.3c15.8,0,27.8-11.9,27.8-27.8V31.25C188.45,15.35,176.55,3.45,160.75,3.45Zm12.6,165.2c0,7.5-5.2,12.7-12.7,12.7H39.35c-7.5,0-12.7-5.2-12.7-12.7V31.25c0-7.5,5.2-12.7,12.7-12.7h121.3c7.5,0,12.7,5.2,12.7,12.7Z"/><path class="cls-1" d="M143.45,91.85H88c-4.9,0-8.1,3.2-8.1,8.1s3.2,8.1,8.1,8.1h55.6c4.9,0,8.1-3.2,8.1-8.1S148.35,91.85,143.45,91.85Z"/><path class="cls-1" d="M113.15,132.35H88c-4.9,0-8.1,3.2-8.1,8.1s3.2,8.1,8.1,8.1h25.2c4.9,0,8.1-3.2,8.1-8.1S118.05,132.35,113.15,132.35Z"/><path class="cls-1" d="M88,67.55h35.3c4.9,0,8.1-3.2,8.1-8.1s-3.2-8.1-8.1-8.1H88c-4.9,0-8.1,3.2-8.1,8.1a9.89,9.89,0,0,0,.33,2.62C81.12,65.51,84,67.55,88,67.55Z"/><path class="cls-1" d="M57.65,51.45a8.13,8.13,0,0,0-8.1,8.1c0,.08,0,.16,0,.24a8.09,8.09,0,0,0,16.18,0c0-.08,0-.16,0-.24A8.2,8.2,0,0,0,57.65,51.45Z"/><circle class="cls-1" cx="57.65" cy="99.95" r="8.1" transform="translate(-21.42 15.92) rotate(-13.28)"/><path class="cls-1" d="M57.65,132.35a8.1,8.1,0,1,0,8.1,8.1A8.13,8.13,0,0,0,57.65,132.35Z"/></svg>