<svg id="圖層_1" data-name="圖層 1" xmlns="http://www.w3.org/2000/svg" viewBox="0 0 200 400"><defs><style>.cls-1{fill:#333;}.cls-2{fill:#a2eeff;}</style></defs><title>wm-full</title><path class="cls-1" d="M32.22,344.44A81.06,81.06,0,0,1,100,218.91h0a80.62,80.62,0,0,1,44.4,13.35l10.06-10.06A95,95,0,0,0,22.2,354.46Z"/><path class="cls-1" d="M167.74,255.59A81,81,0,0,1,55.55,367.78l-10,10A94.42,94.42,0,0,0,100,395h0a94.95,94.95,0,0,0,77.79-149.46Z"/><path class="cls-2" d="M93.05,283.62V265.13a97.95,97.95,0,0,0-66.35.22,80.89,80.89,0,0,0,5.52,79.09Z"/><path class="cls-2" d="M116.57,306.76l19.51,19.52a7,7,0,0,1-4.87,11.91h-1.54V338a6.91,6.91,0,0,1-3.41-1.83L106.73,316.6,55.55,367.78a80.9,80.9,0,0,0,102.2-10.93,97.21,97.21,0,0,0-25.58-65.69Z"/><path class="cls-1" d="M107,269.71v-32a7,7,0,1,0-13.9,0v46Z"/><path class="cls-1" d="M116.57,306.76l-9.84,9.84,19.53,19.53a6.91,6.91,0,0,0,3.41,1.83v.22h1.54a7,7,0,0,0,4.87-11.91Z"/><path class="cls-1" d="M187.31,205.19a7.44,7.44,0,0,0-5.3,2.2L7.39,382A7.5,7.5,0,1,0,18,392.61L192.61,218a7.5,7.5,0,0,0-5.3-12.8Z"/><path class="cls-2" d="M100,181.09a80.8,80.8,0,0,0,57.75-24.24A97.53,97.53,0,0,0,107,71.37V97.15l29.13,29.13a7,7,0,0,1-4.87,11.91h-1.54V138a6.91,6.91,0,0,1-3.41-1.83L95.08,105a6.9,6.9,0,0,1-2-4.51c0-.15,0-.3,0-.45V65.13a97.92,97.92,0,0,0-66.34.22A81.07,81.07,0,0,0,100,181.09Z"/><path class="cls-1" d="M100,5a95,95,0,0,0,0,190h0A95,95,0,0,0,100,5Zm57.75,151.85A81.06,81.06,0,1,1,100,18.91h0a81,81,0,0,1,57.75,137.94Z"/><path class="cls-1" d="M107,97.15V37.66a7,7,0,1,0-13.91,0V100c0,.15,0,.3,0,.45a6.9,6.9,0,0,0,2,4.51l31.18,31.18a6.91,6.91,0,0,0,3.41,1.83v.22h1.54a7,7,0,0,0,4.87-11.91Z"/></svg>