<svg id="圖層_1" data-name="圖層 1" xmlns="http://www.w3.org/2000/svg" viewBox="0 0 200 200"><defs><style>.cls-1{fill:#c6a468;}.cls-2{fill:#333;}</style></defs><title>star</title><path class="cls-1" d="M66.57,72.8,16,80.33l37.08,37a14.61,14.61,0,0,1,4.12,12.74l-8.6,51.31,44-23.69a15.47,15.47,0,0,1,14.67,0l44,23.69-8.6-51.31a14.64,14.64,0,0,1,4.13-12.74l1-1A97.74,97.74,0,0,0,79.44,61.55L78,64.46A15.14,15.14,0,0,1,66.57,72.8Z"/><path class="cls-2" d="M200,75.11h0a15.11,15.11,0,0,0-12.12-9.94l-51.65-7.68-22.44-46.6a15.33,15.33,0,0,0-13.67-8.51H100a15.29,15.29,0,0,0-13.75,8.51L63.79,57.48,12.15,65.16A15.1,15.1,0,0,0,0,75.1,14.9,14.9,0,0,0-.74,80,14.64,14.64,0,0,0,3.57,90.16L41.43,128l-8.78,52.43a14.7,14.7,0,0,0,6.24,14.51,15.37,15.37,0,0,0,16.09.86l45-24.23,45,24.23a14.86,14.86,0,0,0,3.2,1.28,15.47,15.47,0,0,0,12.88-2.13,14.71,14.71,0,0,0,6.23-14.52L158.54,128l37.87-37.8A14.52,14.52,0,0,0,200,75.11Zm-52,41.22-1,1a14.64,14.64,0,0,0-4.13,12.74l8.6,51.31-44-23.69a15.47,15.47,0,0,0-14.67,0l-44,23.69,8.6-51.31a14.61,14.61,0,0,0-4.12-12.74L16,80.33,66.57,72.8A15.14,15.14,0,0,0,78,64.46l1.41-2.91L100,18.92l22,45.55a15.19,15.19,0,0,0,11.45,8.34L184,80.34Z"/></svg>