<svg id="圖層_1" data-name="圖層 1" xmlns="http://www.w3.org/2000/svg" viewBox="0 0 200 200"><defs><style>.cls-1{fill:#f8511e;}.cls-2{fill:#333;}</style></defs><title>star</title><path class="cls-1" d="M51.79,134.81a12.54,12.54,0,0,1-3.66,8.93L41,150.86h98.24a97.61,97.61,0,0,0-82-90.2,47.62,47.62,0,0,0-5.49,22.41Z"/><path class="cls-2" d="M108.49,175.88a8.32,8.32,0,1,1-16.64,0v-.75H78.25v.75a21.75,21.75,0,0,0,43.5,0v-.75H108.49Z"/><path class="cls-2" d="M162.06,134.5V83.08a61.06,61.06,0,0,0-47-59.89v-6A14.85,14.85,0,0,0,100.17,2.38h0A14.87,14.87,0,0,0,85.31,17.23v6a61.14,61.14,0,0,0-47,59.88V134.5L19.46,153.31v10.13H180.54V153.32Zm-22.81,16.36H41l7.12-7.12a12.54,12.54,0,0,0,3.66-8.93V83.07a47.62,47.62,0,0,1,5.49-22.41,48.26,48.26,0,0,1,32-24.73,12.4,12.4,0,0,0,9.3-12.15V17.3a1.6,1.6,0,1,1,3.2,0v6.48a12.37,12.37,0,0,0,9.57,12.15A48.34,48.34,0,0,1,148.8,83.07v51.74a12.54,12.54,0,0,0,3.66,8.93l7.12,7.12Z"/></svg>