<svg id="圖層_1" data-name="圖層 1" xmlns="http://www.w3.org/2000/svg" viewBox="0 0 200 400"><defs><style>.cls-1{fill:#333;}.cls-2{fill:#f8511e;}</style></defs><title>wm-full</title><path class="cls-1" d="M108.49,375.88a8.32,8.32,0,1,1-16.64,0v-.75H78.25v.75a21.75,21.75,0,0,0,43.5,0v-.75H108.49Z"/><path class="cls-2" d="M98.85,277.81a97.19,97.19,0,0,0-41.57-17.15,47.62,47.62,0,0,0-5.49,22.41v41.8Z"/><path class="cls-2" d="M72.47,350.86h66.78A97.12,97.12,0,0,0,122,301.34Z"/><path class="cls-1" d="M162.06,283.08a62.09,62.09,0,0,0-2.88-18.93l-11,11a46.14,46.14,0,0,1,.63,7.91v51.74a12.54,12.54,0,0,0,3.66,8.93l7.12,7.12H72.47L59.89,363.44H180.54V353.32L162.06,334.5Z"/><path class="cls-1" d="M187.31,205.19a7.44,7.44,0,0,0-5.3,2.2L7.39,382A7.5,7.5,0,1,0,18,392.61L192.61,218a7.5,7.5,0,0,0-5.3-12.8Z"/><path class="cls-1" d="M115,223.19v-6a14.85,14.85,0,0,0-14.86-14.85h0a14.87,14.87,0,0,0-14.85,14.85v6a61.14,61.14,0,0,0-47,59.88v55.31l13.51-13.51v-41.8a47.62,47.62,0,0,1,5.49-22.41,48.26,48.26,0,0,1,32-24.73,12.4,12.4,0,0,0,9.3-12.15V217.3a1.6,1.6,0,1,1,3.2,0v6.48a12.37,12.37,0,0,0,9.57,12.15,47.61,47.61,0,0,1,19.72,9.67l9.49-9.49A61.36,61.36,0,0,0,115,223.19Z"/><path class="cls-2" d="M51.79,134.81a12.54,12.54,0,0,1-3.66,8.93L41,150.86h98.24a97.61,97.61,0,0,0-82-90.2,47.62,47.62,0,0,0-5.49,22.41Z"/><path class="cls-1" d="M108.49,175.88a8.32,8.32,0,1,1-16.64,0v-.75H78.25v.75a21.75,21.75,0,0,0,43.5,0v-.75H108.49Z"/><path class="cls-1" d="M162.06,134.5V83.08a61.06,61.06,0,0,0-47-59.89v-6A14.85,14.85,0,0,0,100.17,2.38h0A14.87,14.87,0,0,0,85.31,17.23v6a61.14,61.14,0,0,0-47,59.88V134.5L19.46,153.31v10.13H180.54V153.32Zm-22.81,16.36H41l7.12-7.12a12.54,12.54,0,0,0,3.66-8.93V83.07a47.62,47.62,0,0,1,5.49-22.41,48.26,48.26,0,0,1,32-24.73,12.4,12.4,0,0,0,9.3-12.15V17.3a1.6,1.6,0,1,1,3.2,0v6.48a12.37,12.37,0,0,0,9.57,12.15A48.34,48.34,0,0,1,148.8,83.07v51.74a12.54,12.54,0,0,0,3.66,8.93l7.12,7.12Z"/></svg>