<svg xmlns="http://www.w3.org/2000/svg" viewBox="0 0 15.88 15.88"><defs><style>.cls-1{fill:#fff;}.cls-2{fill:none;}</style></defs><title>ws-cross-b</title><g id="圖層_2" data-name="圖層 2"><g id="圖層_1-2" data-name="圖層 1"><path class="cls-1" d="M8.85,7.94,11,5.74a.64.64,0,0,0-.45-1.09h0a.64.64,0,0,0-.45.19L7.94,7l-2.2-2.2a.64.64,0,0,0-.45-.19h0a.64.64,0,0,0-.45,1.09L7,7.94l-2.2,2.2a.64.64,0,1,0,.9.9l2.2-2.19L10.14,11a.64.64,0,0,0,.9-.9Z"/><rect class="cls-2" width="15.88" height="15.88"/></g></g></svg>